G04 #@! TF.GenerationSoftware,KiCad,Pcbnew,(5.1.2-1)-1*
G04 #@! TF.CreationDate,2019-07-29T11:07:22+08:00*
G04 #@! TF.ProjectId,TA8210,54413832-3130-42e6-9b69-6361645f7063,rev?*
G04 #@! TF.SameCoordinates,Original*
G04 #@! TF.FileFunction,Legend,Bot*
G04 #@! TF.FilePolarity,Positive*
%FSLAX46Y46*%
G04 Gerber Fmt 4.6, Leading zero omitted, Abs format (unit mm)*
G04 Created by KiCad (PCBNEW (5.1.2-1)-1) date 2019-07-29 11:07:22*
%MOMM*%
%LPD*%
G04 APERTURE LIST*
%ADD10C,0.150000*%
%ADD11C,3.400000*%
%ADD12R,4.400000X4.400000*%
%ADD13C,4.400000*%
%ADD14C,2.400000*%
%ADD15R,2.400000X2.400000*%
%ADD16O,2.000000X2.000000*%
%ADD17C,2.000000*%
%ADD18C,2.350000*%
%ADD19C,2.740000*%
%ADD20O,2.400000X4.000000*%
%ADD21R,2.400000X4.000000*%
%ADD22C,1.600000*%
%ADD23R,2.200000X2.900000*%
%ADD24R,2.900000X2.200000*%
%ADD25C,0.100000*%
G04 APERTURE END LIST*
%LPC*%
D10*
G36*
X118250000Y-68750000D02*
G01*
X76500000Y-68750000D01*
X76500000Y-60000000D01*
X118250000Y-60000000D01*
X118250000Y-68750000D01*
G37*
X118250000Y-68750000D02*
X76500000Y-68750000D01*
X76500000Y-60000000D01*
X118250000Y-60000000D01*
X118250000Y-68750000D01*
D11*
X104750000Y-63000000D03*
X89250000Y-63000000D03*
X73000000Y-63000000D03*
X142000000Y-63000000D03*
X142000000Y-132000000D03*
D12*
X123190000Y-83820000D03*
D13*
X133190000Y-83820000D03*
D14*
X102500000Y-102174000D03*
X102500000Y-112174000D03*
X85000000Y-104648000D03*
X85000000Y-109648000D03*
X94000000Y-109648000D03*
X94000000Y-104648000D03*
D15*
X101500000Y-90750000D03*
D14*
X96500000Y-90750000D03*
X76200000Y-82724000D03*
D15*
X76200000Y-77724000D03*
D14*
X82630000Y-90750000D03*
D15*
X87630000Y-90750000D03*
D14*
X135890000Y-118745000D03*
X130890000Y-118745000D03*
X118745000Y-118745000D03*
X113745000Y-118745000D03*
X136064000Y-107950000D03*
X131064000Y-107950000D03*
X118665000Y-108585000D03*
X113665000Y-108585000D03*
D16*
X83566000Y-80264000D03*
D17*
X98806000Y-80264000D03*
X127000000Y-113665000D03*
D16*
X142240000Y-113665000D03*
D17*
X108204000Y-113665000D03*
D16*
X123444000Y-113665000D03*
X127000000Y-103505000D03*
D17*
X142240000Y-103505000D03*
D16*
X107950000Y-103505000D03*
D17*
X123190000Y-103505000D03*
D18*
X81000000Y-72000000D03*
X83000000Y-70000000D03*
X85000000Y-72000000D03*
X87000000Y-70000000D03*
X89000000Y-72000000D03*
X91000000Y-70000000D03*
X93000000Y-72000000D03*
X95000000Y-70000000D03*
X97000000Y-72000000D03*
X99000000Y-70000000D03*
X101000000Y-72000000D03*
X103000000Y-70000000D03*
X105000000Y-72000000D03*
X107000000Y-70000000D03*
X109000000Y-72000000D03*
X111000000Y-70000000D03*
X113000000Y-72000000D03*
D19*
X100678000Y-125222000D03*
X95678000Y-125222000D03*
X90678000Y-125222000D03*
X100678000Y-120222000D03*
X95678000Y-120222000D03*
X90678000Y-120222000D03*
D14*
X76000000Y-112268000D03*
X76000000Y-102268000D03*
D17*
X98806000Y-76708000D03*
D16*
X114046000Y-76708000D03*
D20*
X135000000Y-125000000D03*
D21*
X130000000Y-125000000D03*
X115000000Y-125000000D03*
D20*
X120000000Y-125000000D03*
D11*
X73000000Y-132000000D03*
D22*
X72459200Y-126183400D03*
X74959200Y-126183400D03*
X72459200Y-116183400D03*
X74959200Y-116183400D03*
X79959200Y-121183400D03*
D23*
X74959200Y-121183400D03*
D24*
X79959200Y-126183400D03*
X79959200Y-116183400D03*
X79959200Y-123683400D03*
X79959200Y-118683400D03*
D25*
G36*
X133009405Y-62771445D02*
G01*
X133038527Y-62775764D01*
X133067085Y-62782918D01*
X133094805Y-62792836D01*
X133121419Y-62805424D01*
X133146671Y-62820559D01*
X133170318Y-62838097D01*
X133192132Y-62857868D01*
X133211903Y-62879682D01*
X133229441Y-62903329D01*
X133244576Y-62928581D01*
X133257164Y-62955195D01*
X133267082Y-62982915D01*
X133274236Y-63011473D01*
X133278555Y-63040595D01*
X133280000Y-63070000D01*
X133280000Y-66470000D01*
X133278555Y-66499405D01*
X133274236Y-66528527D01*
X133267082Y-66557085D01*
X133257164Y-66584805D01*
X133244576Y-66611419D01*
X133229441Y-66636671D01*
X133211903Y-66660318D01*
X133192132Y-66682132D01*
X133170318Y-66701903D01*
X133146671Y-66719441D01*
X133121419Y-66734576D01*
X133094805Y-66747164D01*
X133067085Y-66757082D01*
X133038527Y-66764236D01*
X133009405Y-66768555D01*
X132980000Y-66770000D01*
X131180000Y-66770000D01*
X131150595Y-66768555D01*
X131121473Y-66764236D01*
X131092915Y-66757082D01*
X131065195Y-66747164D01*
X131038581Y-66734576D01*
X131013329Y-66719441D01*
X130989682Y-66701903D01*
X130967868Y-66682132D01*
X130948097Y-66660318D01*
X130930559Y-66636671D01*
X130915424Y-66611419D01*
X130902836Y-66584805D01*
X130892918Y-66557085D01*
X130885764Y-66528527D01*
X130881445Y-66499405D01*
X130880000Y-66470000D01*
X130880000Y-63070000D01*
X130881445Y-63040595D01*
X130885764Y-63011473D01*
X130892918Y-62982915D01*
X130902836Y-62955195D01*
X130915424Y-62928581D01*
X130930559Y-62903329D01*
X130948097Y-62879682D01*
X130967868Y-62857868D01*
X130989682Y-62838097D01*
X131013329Y-62820559D01*
X131038581Y-62805424D01*
X131065195Y-62792836D01*
X131092915Y-62782918D01*
X131121473Y-62775764D01*
X131150595Y-62771445D01*
X131180000Y-62770000D01*
X132980000Y-62770000D01*
X133009405Y-62771445D01*
X133009405Y-62771445D01*
G37*
D14*
X132080000Y-64770000D03*
D20*
X127080000Y-64770000D03*
M02*
