G04 #@! TF.GenerationSoftware,KiCad,Pcbnew,(5.1.2-1)-1*
G04 #@! TF.CreationDate,2019-07-29T11:07:22+08:00*
G04 #@! TF.ProjectId,TA8210,54413832-3130-42e6-9b69-6361645f7063,rev?*
G04 #@! TF.SameCoordinates,Original*
G04 #@! TF.FileFunction,Copper,L1,Top*
G04 #@! TF.FilePolarity,Positive*
%FSLAX46Y46*%
G04 Gerber Fmt 4.6, Leading zero omitted, Abs format (unit mm)*
G04 Created by KiCad (PCBNEW (5.1.2-1)-1) date 2019-07-29 11:07:22*
%MOMM*%
%LPD*%
G04 APERTURE LIST*
%ADD10C,3.000000*%
%ADD11R,4.000000X4.000000*%
%ADD12C,4.000000*%
%ADD13C,2.000000*%
%ADD14R,2.000000X2.000000*%
%ADD15O,1.600000X1.600000*%
%ADD16C,1.600000*%
%ADD17C,1.950000*%
%ADD18C,2.340000*%
%ADD19O,2.000000X3.600000*%
%ADD20R,2.000000X3.600000*%
%ADD21R,1.800000X2.500000*%
%ADD22R,2.500000X1.800000*%
%ADD23C,0.100000*%
%ADD24C,1.000000*%
G04 APERTURE END LIST*
D10*
X104750000Y-63000000D03*
X89250000Y-63000000D03*
D11*
X123190000Y-83820000D03*
D12*
X133190000Y-83820000D03*
D13*
X102500000Y-102174000D03*
X102500000Y-112174000D03*
X85000000Y-104648000D03*
X85000000Y-109648000D03*
X94000000Y-109648000D03*
X94000000Y-104648000D03*
D14*
X101500000Y-90750000D03*
D13*
X96500000Y-90750000D03*
X76200000Y-82724000D03*
D14*
X76200000Y-77724000D03*
D13*
X82630000Y-90750000D03*
D14*
X87630000Y-90750000D03*
D13*
X135890000Y-118745000D03*
X130890000Y-118745000D03*
X118745000Y-118745000D03*
X113745000Y-118745000D03*
X136064000Y-107950000D03*
X131064000Y-107950000D03*
X118665000Y-108585000D03*
X113665000Y-108585000D03*
D15*
X83566000Y-80264000D03*
D16*
X98806000Y-80264000D03*
X127000000Y-113665000D03*
D15*
X142240000Y-113665000D03*
D16*
X108204000Y-113665000D03*
D15*
X123444000Y-113665000D03*
X127000000Y-103505000D03*
D16*
X142240000Y-103505000D03*
D15*
X107950000Y-103505000D03*
D16*
X123190000Y-103505000D03*
D17*
X81000000Y-72000000D03*
X83000000Y-70000000D03*
X85000000Y-72000000D03*
X87000000Y-70000000D03*
X89000000Y-72000000D03*
X91000000Y-70000000D03*
X93000000Y-72000000D03*
X95000000Y-70000000D03*
X97000000Y-72000000D03*
X99000000Y-70000000D03*
X101000000Y-72000000D03*
X103000000Y-70000000D03*
X105000000Y-72000000D03*
X107000000Y-70000000D03*
X109000000Y-72000000D03*
X111000000Y-70000000D03*
X113000000Y-72000000D03*
D18*
X100678000Y-125222000D03*
X95678000Y-125222000D03*
X90678000Y-125222000D03*
X100678000Y-120222000D03*
X95678000Y-120222000D03*
X90678000Y-120222000D03*
D13*
X76000000Y-112268000D03*
X76000000Y-102268000D03*
D16*
X98806000Y-76708000D03*
D15*
X114046000Y-76708000D03*
D19*
X135000000Y-125000000D03*
D20*
X130000000Y-125000000D03*
X115000000Y-125000000D03*
D19*
X120000000Y-125000000D03*
D21*
X74959200Y-121183400D03*
D22*
X79959200Y-126183400D03*
X79959200Y-116183400D03*
X79959200Y-123683400D03*
X79959200Y-118683400D03*
D23*
G36*
X132854504Y-62971204D02*
G01*
X132878773Y-62974804D01*
X132902571Y-62980765D01*
X132925671Y-62989030D01*
X132947849Y-62999520D01*
X132968893Y-63012133D01*
X132988598Y-63026747D01*
X133006777Y-63043223D01*
X133023253Y-63061402D01*
X133037867Y-63081107D01*
X133050480Y-63102151D01*
X133060970Y-63124329D01*
X133069235Y-63147429D01*
X133075196Y-63171227D01*
X133078796Y-63195496D01*
X133080000Y-63220000D01*
X133080000Y-66320000D01*
X133078796Y-66344504D01*
X133075196Y-66368773D01*
X133069235Y-66392571D01*
X133060970Y-66415671D01*
X133050480Y-66437849D01*
X133037867Y-66458893D01*
X133023253Y-66478598D01*
X133006777Y-66496777D01*
X132988598Y-66513253D01*
X132968893Y-66527867D01*
X132947849Y-66540480D01*
X132925671Y-66550970D01*
X132902571Y-66559235D01*
X132878773Y-66565196D01*
X132854504Y-66568796D01*
X132830000Y-66570000D01*
X131330000Y-66570000D01*
X131305496Y-66568796D01*
X131281227Y-66565196D01*
X131257429Y-66559235D01*
X131234329Y-66550970D01*
X131212151Y-66540480D01*
X131191107Y-66527867D01*
X131171402Y-66513253D01*
X131153223Y-66496777D01*
X131136747Y-66478598D01*
X131122133Y-66458893D01*
X131109520Y-66437849D01*
X131099030Y-66415671D01*
X131090765Y-66392571D01*
X131084804Y-66368773D01*
X131081204Y-66344504D01*
X131080000Y-66320000D01*
X131080000Y-63220000D01*
X131081204Y-63195496D01*
X131084804Y-63171227D01*
X131090765Y-63147429D01*
X131099030Y-63124329D01*
X131109520Y-63102151D01*
X131122133Y-63081107D01*
X131136747Y-63061402D01*
X131153223Y-63043223D01*
X131171402Y-63026747D01*
X131191107Y-63012133D01*
X131212151Y-62999520D01*
X131234329Y-62989030D01*
X131257429Y-62980765D01*
X131281227Y-62974804D01*
X131305496Y-62971204D01*
X131330000Y-62970000D01*
X132830000Y-62970000D01*
X132854504Y-62971204D01*
X132854504Y-62971204D01*
G37*
D13*
X132080000Y-64770000D03*
D19*
X127080000Y-64770000D03*
D24*
X82209200Y-116183400D02*
X83076600Y-115316000D01*
X79959200Y-116183400D02*
X82209200Y-116183400D01*
X83076600Y-115316000D02*
X101650800Y-115316000D01*
X101650800Y-115316000D02*
X104368600Y-118033800D01*
X104368600Y-118033800D02*
X104368600Y-123748800D01*
X102895400Y-125222000D02*
X104368600Y-123748800D01*
X100678000Y-125222000D02*
X102895400Y-125222000D01*
X100678000Y-120222000D02*
X97829400Y-117373400D01*
X97829400Y-117373400D02*
X86944200Y-117373400D01*
X86944200Y-117373400D02*
X85267800Y-119049800D01*
X85267800Y-119049800D02*
X85267800Y-124409200D01*
X83493600Y-126183400D02*
X79959200Y-126183400D01*
X85267800Y-124409200D02*
X83493600Y-126183400D01*
M02*
