G04 #@! TF.GenerationSoftware,KiCad,Pcbnew,(5.1.2-1)-1*
G04 #@! TF.CreationDate,2019-07-29T11:07:22+08:00*
G04 #@! TF.ProjectId,TA8210,54413832-3130-42e6-9b69-6361645f7063,rev?*
G04 #@! TF.SameCoordinates,Original*
G04 #@! TF.FileFunction,Copper,L2,Bot*
G04 #@! TF.FilePolarity,Positive*
%FSLAX46Y46*%
G04 Gerber Fmt 4.6, Leading zero omitted, Abs format (unit mm)*
G04 Created by KiCad (PCBNEW (5.1.2-1)-1) date 2019-07-29 11:07:22*
%MOMM*%
%LPD*%
G04 APERTURE LIST*
%ADD10C,3.000000*%
%ADD11R,4.000000X4.000000*%
%ADD12C,4.000000*%
%ADD13C,2.000000*%
%ADD14R,2.000000X2.000000*%
%ADD15O,1.600000X1.600000*%
%ADD16C,1.600000*%
%ADD17C,1.950000*%
%ADD18C,2.340000*%
%ADD19O,2.000000X3.600000*%
%ADD20R,2.000000X3.600000*%
%ADD21R,1.800000X2.500000*%
%ADD22R,2.500000X1.800000*%
%ADD23C,0.100000*%
%ADD24C,1.000000*%
%ADD25C,0.254000*%
G04 APERTURE END LIST*
D10*
X104750000Y-63000000D03*
X89250000Y-63000000D03*
D11*
X123190000Y-83820000D03*
D12*
X133190000Y-83820000D03*
D13*
X102500000Y-102174000D03*
X102500000Y-112174000D03*
X85000000Y-104648000D03*
X85000000Y-109648000D03*
X94000000Y-109648000D03*
X94000000Y-104648000D03*
D14*
X101500000Y-90750000D03*
D13*
X96500000Y-90750000D03*
X76200000Y-82724000D03*
D14*
X76200000Y-77724000D03*
D13*
X82630000Y-90750000D03*
D14*
X87630000Y-90750000D03*
D13*
X135890000Y-118745000D03*
X130890000Y-118745000D03*
X118745000Y-118745000D03*
X113745000Y-118745000D03*
X136064000Y-107950000D03*
X131064000Y-107950000D03*
X118665000Y-108585000D03*
X113665000Y-108585000D03*
D15*
X83566000Y-80264000D03*
D16*
X98806000Y-80264000D03*
X127000000Y-113665000D03*
D15*
X142240000Y-113665000D03*
D16*
X108204000Y-113665000D03*
D15*
X123444000Y-113665000D03*
X127000000Y-103505000D03*
D16*
X142240000Y-103505000D03*
D15*
X107950000Y-103505000D03*
D16*
X123190000Y-103505000D03*
D17*
X81000000Y-72000000D03*
X83000000Y-70000000D03*
X85000000Y-72000000D03*
X87000000Y-70000000D03*
X89000000Y-72000000D03*
X91000000Y-70000000D03*
X93000000Y-72000000D03*
X95000000Y-70000000D03*
X97000000Y-72000000D03*
X99000000Y-70000000D03*
X101000000Y-72000000D03*
X103000000Y-70000000D03*
X105000000Y-72000000D03*
X107000000Y-70000000D03*
X109000000Y-72000000D03*
X111000000Y-70000000D03*
X113000000Y-72000000D03*
D18*
X100678000Y-125222000D03*
X95678000Y-125222000D03*
X90678000Y-125222000D03*
X100678000Y-120222000D03*
X95678000Y-120222000D03*
X90678000Y-120222000D03*
D13*
X76000000Y-112268000D03*
X76000000Y-102268000D03*
D16*
X98806000Y-76708000D03*
D15*
X114046000Y-76708000D03*
D19*
X135000000Y-125000000D03*
D20*
X130000000Y-125000000D03*
X115000000Y-125000000D03*
D19*
X120000000Y-125000000D03*
D21*
X74959200Y-121183400D03*
D22*
X79959200Y-126183400D03*
X79959200Y-116183400D03*
X79959200Y-123683400D03*
X79959200Y-118683400D03*
D23*
G36*
X132854504Y-62971204D02*
G01*
X132878773Y-62974804D01*
X132902571Y-62980765D01*
X132925671Y-62989030D01*
X132947849Y-62999520D01*
X132968893Y-63012133D01*
X132988598Y-63026747D01*
X133006777Y-63043223D01*
X133023253Y-63061402D01*
X133037867Y-63081107D01*
X133050480Y-63102151D01*
X133060970Y-63124329D01*
X133069235Y-63147429D01*
X133075196Y-63171227D01*
X133078796Y-63195496D01*
X133080000Y-63220000D01*
X133080000Y-66320000D01*
X133078796Y-66344504D01*
X133075196Y-66368773D01*
X133069235Y-66392571D01*
X133060970Y-66415671D01*
X133050480Y-66437849D01*
X133037867Y-66458893D01*
X133023253Y-66478598D01*
X133006777Y-66496777D01*
X132988598Y-66513253D01*
X132968893Y-66527867D01*
X132947849Y-66540480D01*
X132925671Y-66550970D01*
X132902571Y-66559235D01*
X132878773Y-66565196D01*
X132854504Y-66568796D01*
X132830000Y-66570000D01*
X131330000Y-66570000D01*
X131305496Y-66568796D01*
X131281227Y-66565196D01*
X131257429Y-66559235D01*
X131234329Y-66550970D01*
X131212151Y-66540480D01*
X131191107Y-66527867D01*
X131171402Y-66513253D01*
X131153223Y-66496777D01*
X131136747Y-66478598D01*
X131122133Y-66458893D01*
X131109520Y-66437849D01*
X131099030Y-66415671D01*
X131090765Y-66392571D01*
X131084804Y-66368773D01*
X131081204Y-66344504D01*
X131080000Y-66320000D01*
X131080000Y-63220000D01*
X131081204Y-63195496D01*
X131084804Y-63171227D01*
X131090765Y-63147429D01*
X131099030Y-63124329D01*
X131109520Y-63102151D01*
X131122133Y-63081107D01*
X131136747Y-63061402D01*
X131153223Y-63043223D01*
X131171402Y-63026747D01*
X131191107Y-63012133D01*
X131212151Y-62999520D01*
X131234329Y-62989030D01*
X131257429Y-62980765D01*
X131281227Y-62974804D01*
X131305496Y-62971204D01*
X131330000Y-62970000D01*
X132830000Y-62970000D01*
X132854504Y-62971204D01*
X132854504Y-62971204D01*
G37*
D13*
X132080000Y-64770000D03*
D19*
X127080000Y-64770000D03*
D24*
X93250000Y-122794000D02*
X95678000Y-125222000D01*
X87750000Y-113250000D02*
X93250000Y-118750000D01*
X93250000Y-118750000D02*
X93250000Y-122794000D01*
X81314000Y-113250000D02*
X87750000Y-113250000D01*
X80332000Y-112268000D02*
X81314000Y-113250000D01*
X76000000Y-112268000D02*
X80332000Y-112268000D01*
X95678000Y-118567371D02*
X95678000Y-120222000D01*
X95678000Y-117581787D02*
X95678000Y-118567371D01*
X101085787Y-112174000D02*
X95678000Y-117581787D01*
X102500000Y-112174000D02*
X101085787Y-112174000D01*
X78380000Y-104648000D02*
X76000000Y-102268000D01*
X85000000Y-104648000D02*
X78380000Y-104648000D01*
X77900001Y-100367999D02*
X77900001Y-88849999D01*
X76000000Y-102268000D02*
X77900001Y-100367999D01*
X83000000Y-74250000D02*
X74500000Y-74250000D01*
X83000000Y-74250000D02*
X83000000Y-70000000D01*
X74500000Y-74250000D02*
X73500000Y-75250000D01*
X73500000Y-84449998D02*
X77900001Y-88849999D01*
X73500000Y-75250000D02*
X73500000Y-84449998D01*
X100026000Y-104648000D02*
X102500000Y-102174000D01*
X94000000Y-104648000D02*
X100026000Y-104648000D01*
X98424000Y-102174000D02*
X102500000Y-102174000D01*
X93000000Y-96750000D02*
X98424000Y-102174000D01*
X93000000Y-72000000D02*
X93000000Y-96750000D01*
X89000000Y-78000000D02*
X84276000Y-82724000D01*
X89000000Y-72000000D02*
X89000000Y-78000000D01*
X82630000Y-82844000D02*
X82750000Y-82724000D01*
X82630000Y-95504000D02*
X82630000Y-82844000D01*
X82750000Y-82724000D02*
X76200000Y-82724000D01*
X84276000Y-82724000D02*
X82750000Y-82724000D01*
X107000000Y-70000000D02*
X105000000Y-72000000D01*
X82630000Y-95504000D02*
X89250000Y-102124000D01*
X89250000Y-102124000D02*
X89250000Y-109750000D01*
X89250000Y-109750000D02*
X89148000Y-109648000D01*
X94000000Y-109648000D02*
X88750000Y-109648000D01*
X88750000Y-109648000D02*
X85000000Y-109648000D01*
X89148000Y-109648000D02*
X88750000Y-109648000D01*
X94000000Y-109648000D02*
X97852000Y-109648000D01*
X97852000Y-109648000D02*
X99250000Y-108250000D01*
X99250000Y-108250000D02*
X104250000Y-108250000D01*
X104250000Y-108250000D02*
X105750000Y-109750000D01*
X105750000Y-101250000D02*
X105750000Y-109750000D01*
X96500000Y-95404000D02*
X96500000Y-90750000D01*
X100096000Y-99000000D02*
X96500000Y-95404000D01*
X103500000Y-99000000D02*
X100096000Y-99000000D01*
X105750000Y-101250000D02*
X103500000Y-99000000D01*
X77000000Y-125250000D02*
X75000000Y-123250000D01*
X75000000Y-123250000D02*
X75000000Y-121000000D01*
X79500000Y-130500000D02*
X77000000Y-128000000D01*
X77000000Y-128000000D02*
X77000000Y-125250000D01*
X90678000Y-120222000D02*
X90678000Y-125222000D01*
X90678000Y-130048000D02*
X90226000Y-130500000D01*
X90678000Y-125222000D02*
X90678000Y-130048000D01*
X90226000Y-130500000D02*
X79500000Y-130500000D01*
X105750000Y-109750000D02*
X105750000Y-130479200D01*
X105770800Y-130500000D02*
X90226000Y-130500000D01*
X105750000Y-130479200D02*
X105770800Y-130500000D01*
X121750000Y-130500000D02*
X105770800Y-130500000D01*
X135250000Y-130500000D02*
X125000000Y-130500000D01*
X123444000Y-128944000D02*
X123444000Y-128806000D01*
X125000000Y-130500000D02*
X123444000Y-128944000D01*
X142240000Y-123510000D02*
X135250000Y-130500000D01*
X133190000Y-83820000D02*
X135189999Y-85819999D01*
X123444000Y-128806000D02*
X121750000Y-130500000D01*
X139069999Y-85819999D02*
X143500000Y-90250000D01*
X135189999Y-85819999D02*
X139069999Y-85819999D01*
X143500000Y-95768000D02*
X143500000Y-100320000D01*
X143500000Y-90250000D02*
X143500000Y-95768000D01*
X143500000Y-95768000D02*
X143500000Y-96750000D01*
X143039999Y-112865001D02*
X142240000Y-113665000D01*
X143740001Y-112164999D02*
X143039999Y-112865001D01*
X143740001Y-100560001D02*
X143740001Y-112164999D01*
X143500000Y-100320000D02*
X143740001Y-100560001D01*
X142240000Y-113665000D02*
X142240000Y-123510000D01*
X107000000Y-65250000D02*
X104750000Y-63000000D01*
X107000000Y-70000000D02*
X107000000Y-65250000D01*
X132080000Y-64770000D02*
X132080000Y-71264580D01*
X133190000Y-72374580D02*
X133190000Y-83820000D01*
X132080000Y-71264580D02*
X133190000Y-72374580D01*
X101500000Y-90750000D02*
X101500000Y-88250000D01*
X95000000Y-81750000D02*
X95000000Y-70000000D01*
X101500000Y-88250000D02*
X95000000Y-81750000D01*
X80010000Y-75692000D02*
X76232000Y-75692000D01*
X80018000Y-75684000D02*
X80010000Y-75692000D01*
X76200000Y-75724000D02*
X76200000Y-77724000D01*
X76232000Y-75692000D02*
X76200000Y-75724000D01*
X84066000Y-75684000D02*
X80018000Y-75684000D01*
X85000000Y-74750000D02*
X84066000Y-75684000D01*
X85000000Y-72000000D02*
X85000000Y-74750000D01*
X91000000Y-85380000D02*
X91000000Y-70000000D01*
X87630000Y-88750000D02*
X91000000Y-85380000D01*
X87630000Y-90750000D02*
X87630000Y-88750000D01*
X113000000Y-75662000D02*
X114046000Y-76708000D01*
X113000000Y-72000000D02*
X113000000Y-75662000D01*
X115588000Y-78250000D02*
X114046000Y-76708000D01*
X127080000Y-72056000D02*
X127080000Y-64770000D01*
X120886000Y-78250000D02*
X127080000Y-72056000D01*
X123190000Y-80820000D02*
X120620000Y-78250000D01*
X120620000Y-78250000D02*
X119906000Y-78250000D01*
X123190000Y-83820000D02*
X123190000Y-80820000D01*
X119906000Y-78250000D02*
X120886000Y-78250000D01*
X115588000Y-78250000D02*
X119906000Y-78250000D01*
X135890000Y-124110000D02*
X135000000Y-125000000D01*
X135890000Y-118745000D02*
X135890000Y-124110000D01*
X111000000Y-76456000D02*
X111000000Y-70000000D01*
X111000000Y-76456000D02*
X111000000Y-71520998D01*
X128524000Y-99060000D02*
X125984000Y-99060000D01*
X125984000Y-99060000D02*
X111000000Y-84076000D01*
X111000000Y-84076000D02*
X111000000Y-76456000D01*
X132764001Y-103300001D02*
X128524000Y-99060000D01*
X132764001Y-115619001D02*
X132764001Y-103300001D01*
X135890000Y-118745000D02*
X132764001Y-115619001D01*
X130890000Y-117555000D02*
X127000000Y-113665000D01*
X130890000Y-118745000D02*
X130890000Y-117555000D01*
X120000000Y-120000000D02*
X118745000Y-118745000D01*
X120000000Y-125000000D02*
X120000000Y-120000000D01*
X115570000Y-93726000D02*
X103000000Y-81156000D01*
X103000000Y-81156000D02*
X103000000Y-70000000D01*
X115570000Y-115570000D02*
X115570000Y-93726000D01*
X118745000Y-118745000D02*
X115570000Y-115570000D01*
X113284000Y-118745000D02*
X108204000Y-113665000D01*
X113745000Y-118745000D02*
X113284000Y-118745000D01*
X137795000Y-107950000D02*
X142240000Y-103505000D01*
X136064000Y-107950000D02*
X137795000Y-107950000D01*
X109000000Y-84235000D02*
X109000000Y-72000000D01*
X131064000Y-103886000D02*
X127889000Y-100711000D01*
X131064000Y-108064000D02*
X131064000Y-103886000D01*
X125476000Y-100711000D02*
X109000000Y-84235000D01*
X127889000Y-100711000D02*
X125476000Y-100711000D01*
X130000000Y-125000000D02*
X130000000Y-121750000D01*
X131064000Y-116031930D02*
X132758000Y-117725930D01*
X131064000Y-107950000D02*
X131064000Y-116031930D01*
X130000000Y-121750000D02*
X131574000Y-121750000D01*
X131574000Y-121750000D02*
X132758000Y-120566000D01*
X132758000Y-117725930D02*
X132758000Y-120566000D01*
X118665000Y-108030000D02*
X123190000Y-103505000D01*
X118665000Y-108585000D02*
X118665000Y-108030000D01*
X101000000Y-81500000D02*
X101000000Y-72000000D01*
X113792000Y-94292000D02*
X101000000Y-81500000D01*
X113792000Y-106042000D02*
X113792000Y-94292000D01*
X115499991Y-121700009D02*
X115000000Y-122200000D01*
X115000000Y-122200000D02*
X115000000Y-125000000D01*
X115499991Y-117926009D02*
X115499991Y-117785991D01*
X115499991Y-117926009D02*
X115499991Y-121700009D01*
X113665000Y-115951000D02*
X113665000Y-108585000D01*
X115499991Y-117785991D02*
X113665000Y-115951000D01*
X113665000Y-106169000D02*
X113792000Y-106042000D01*
X113665000Y-108585000D02*
X113665000Y-106169000D01*
X87000000Y-76830000D02*
X87000000Y-70000000D01*
X83566000Y-80264000D02*
X87000000Y-76830000D01*
X99000000Y-70000000D02*
X97000000Y-72000000D01*
X98806000Y-76708000D02*
X98806000Y-80264000D01*
X98806000Y-73806000D02*
X97000000Y-72000000D01*
X98806000Y-76708000D02*
X98806000Y-73806000D01*
D25*
G36*
X144290000Y-134290000D02*
G01*
X70710000Y-134290000D01*
X70710000Y-131789721D01*
X70865000Y-131789721D01*
X70865000Y-132210279D01*
X70947047Y-132622756D01*
X71107988Y-133011302D01*
X71341637Y-133360983D01*
X71639017Y-133658363D01*
X71988698Y-133892012D01*
X72377244Y-134052953D01*
X72789721Y-134135000D01*
X73210279Y-134135000D01*
X73622756Y-134052953D01*
X74011302Y-133892012D01*
X74360983Y-133658363D01*
X74658363Y-133360983D01*
X74892012Y-133011302D01*
X75052953Y-132622756D01*
X75135000Y-132210279D01*
X75135000Y-131789721D01*
X139865000Y-131789721D01*
X139865000Y-132210279D01*
X139947047Y-132622756D01*
X140107988Y-133011302D01*
X140341637Y-133360983D01*
X140639017Y-133658363D01*
X140988698Y-133892012D01*
X141377244Y-134052953D01*
X141789721Y-134135000D01*
X142210279Y-134135000D01*
X142622756Y-134052953D01*
X143011302Y-133892012D01*
X143360983Y-133658363D01*
X143658363Y-133360983D01*
X143892012Y-133011302D01*
X144052953Y-132622756D01*
X144135000Y-132210279D01*
X144135000Y-131789721D01*
X144052953Y-131377244D01*
X143892012Y-130988698D01*
X143658363Y-130639017D01*
X143360983Y-130341637D01*
X143011302Y-130107988D01*
X142622756Y-129947047D01*
X142210279Y-129865000D01*
X141789721Y-129865000D01*
X141377244Y-129947047D01*
X140988698Y-130107988D01*
X140639017Y-130341637D01*
X140341637Y-130639017D01*
X140107988Y-130988698D01*
X139947047Y-131377244D01*
X139865000Y-131789721D01*
X75135000Y-131789721D01*
X75052953Y-131377244D01*
X74892012Y-130988698D01*
X74658363Y-130639017D01*
X74360983Y-130341637D01*
X74011302Y-130107988D01*
X73622756Y-129947047D01*
X73210279Y-129865000D01*
X72789721Y-129865000D01*
X72377244Y-129947047D01*
X71988698Y-130107988D01*
X71639017Y-130341637D01*
X71341637Y-130639017D01*
X71107988Y-130988698D01*
X70947047Y-131377244D01*
X70865000Y-131789721D01*
X70710000Y-131789721D01*
X70710000Y-126061763D01*
X71224200Y-126061763D01*
X71224200Y-126305037D01*
X71271660Y-126543636D01*
X71364757Y-126768392D01*
X71499913Y-126970667D01*
X71671933Y-127142687D01*
X71874208Y-127277843D01*
X72098964Y-127370940D01*
X72337563Y-127418400D01*
X72580837Y-127418400D01*
X72819436Y-127370940D01*
X73044192Y-127277843D01*
X73246467Y-127142687D01*
X73418487Y-126970667D01*
X73553643Y-126768392D01*
X73646740Y-126543636D01*
X73694200Y-126305037D01*
X73694200Y-126061763D01*
X73724200Y-126061763D01*
X73724200Y-126305037D01*
X73771660Y-126543636D01*
X73864757Y-126768392D01*
X73999913Y-126970667D01*
X74171933Y-127142687D01*
X74374208Y-127277843D01*
X74598964Y-127370940D01*
X74837563Y-127418400D01*
X75080837Y-127418400D01*
X75319436Y-127370940D01*
X75544192Y-127277843D01*
X75746467Y-127142687D01*
X75918487Y-126970667D01*
X76053643Y-126768392D01*
X76146740Y-126543636D01*
X76194200Y-126305037D01*
X76194200Y-126061763D01*
X76146740Y-125823164D01*
X76053643Y-125598408D01*
X75918487Y-125396133D01*
X75746467Y-125224113D01*
X75544192Y-125088957D01*
X75319436Y-124995860D01*
X75080837Y-124948400D01*
X74837563Y-124948400D01*
X74598964Y-124995860D01*
X74374208Y-125088957D01*
X74171933Y-125224113D01*
X73999913Y-125396133D01*
X73864757Y-125598408D01*
X73771660Y-125823164D01*
X73724200Y-126061763D01*
X73694200Y-126061763D01*
X73646740Y-125823164D01*
X73553643Y-125598408D01*
X73418487Y-125396133D01*
X73246467Y-125224113D01*
X73044192Y-125088957D01*
X72819436Y-124995860D01*
X72580837Y-124948400D01*
X72337563Y-124948400D01*
X72098964Y-124995860D01*
X71874208Y-125088957D01*
X71671933Y-125224113D01*
X71499913Y-125396133D01*
X71364757Y-125598408D01*
X71271660Y-125823164D01*
X71224200Y-126061763D01*
X70710000Y-126061763D01*
X70710000Y-122433400D01*
X73421128Y-122433400D01*
X73433388Y-122557882D01*
X73469698Y-122677580D01*
X73528663Y-122787894D01*
X73608015Y-122884585D01*
X73704706Y-122963937D01*
X73815020Y-123022902D01*
X73934718Y-123059212D01*
X74059200Y-123071472D01*
X74673450Y-123068400D01*
X74832200Y-122909650D01*
X74832200Y-121310400D01*
X75086200Y-121310400D01*
X75086200Y-122909650D01*
X75244950Y-123068400D01*
X75859200Y-123071472D01*
X75983682Y-123059212D01*
X76103380Y-123022902D01*
X76213694Y-122963937D01*
X76310385Y-122884585D01*
X76389737Y-122787894D01*
X76448702Y-122677580D01*
X76485012Y-122557882D01*
X76497272Y-122433400D01*
X76494200Y-121469150D01*
X76335450Y-121310400D01*
X75086200Y-121310400D01*
X74832200Y-121310400D01*
X73582950Y-121310400D01*
X73424200Y-121469150D01*
X73421128Y-122433400D01*
X70710000Y-122433400D01*
X70710000Y-119933400D01*
X73421128Y-119933400D01*
X73424200Y-120897650D01*
X73582950Y-121056400D01*
X74832200Y-121056400D01*
X74832200Y-119457150D01*
X75086200Y-119457150D01*
X75086200Y-121056400D01*
X76335450Y-121056400D01*
X76494200Y-120897650D01*
X76497272Y-119933400D01*
X76485012Y-119808918D01*
X76448702Y-119689220D01*
X76389737Y-119578906D01*
X76310385Y-119482215D01*
X76213694Y-119402863D01*
X76103380Y-119343898D01*
X75983682Y-119307588D01*
X75859200Y-119295328D01*
X75244950Y-119298400D01*
X75086200Y-119457150D01*
X74832200Y-119457150D01*
X74673450Y-119298400D01*
X74059200Y-119295328D01*
X73934718Y-119307588D01*
X73815020Y-119343898D01*
X73704706Y-119402863D01*
X73608015Y-119482215D01*
X73528663Y-119578906D01*
X73469698Y-119689220D01*
X73433388Y-119808918D01*
X73421128Y-119933400D01*
X70710000Y-119933400D01*
X70710000Y-116061763D01*
X71224200Y-116061763D01*
X71224200Y-116305037D01*
X71271660Y-116543636D01*
X71364757Y-116768392D01*
X71499913Y-116970667D01*
X71671933Y-117142687D01*
X71874208Y-117277843D01*
X72098964Y-117370940D01*
X72337563Y-117418400D01*
X72580837Y-117418400D01*
X72819436Y-117370940D01*
X73044192Y-117277843D01*
X73246467Y-117142687D01*
X73418487Y-116970667D01*
X73553643Y-116768392D01*
X73646740Y-116543636D01*
X73694200Y-116305037D01*
X73694200Y-116061763D01*
X73724200Y-116061763D01*
X73724200Y-116305037D01*
X73771660Y-116543636D01*
X73864757Y-116768392D01*
X73999913Y-116970667D01*
X74171933Y-117142687D01*
X74374208Y-117277843D01*
X74598964Y-117370940D01*
X74837563Y-117418400D01*
X75080837Y-117418400D01*
X75319436Y-117370940D01*
X75544192Y-117277843D01*
X75746467Y-117142687D01*
X75918487Y-116970667D01*
X76053643Y-116768392D01*
X76146740Y-116543636D01*
X76194200Y-116305037D01*
X76194200Y-116061763D01*
X76146740Y-115823164D01*
X76053643Y-115598408D01*
X75918487Y-115396133D01*
X75805754Y-115283400D01*
X78071128Y-115283400D01*
X78071128Y-117083400D01*
X78083388Y-117207882D01*
X78119698Y-117327580D01*
X78176261Y-117433400D01*
X78119698Y-117539220D01*
X78083388Y-117658918D01*
X78071128Y-117783400D01*
X78071128Y-119583400D01*
X78083388Y-119707882D01*
X78119698Y-119827580D01*
X78178663Y-119937894D01*
X78258015Y-120034585D01*
X78354706Y-120113937D01*
X78465020Y-120172902D01*
X78584718Y-120209212D01*
X78709200Y-120221472D01*
X79175886Y-120221472D01*
X79171933Y-120224113D01*
X78999913Y-120396133D01*
X78864757Y-120598408D01*
X78771660Y-120823164D01*
X78724200Y-121061763D01*
X78724200Y-121305037D01*
X78771660Y-121543636D01*
X78864757Y-121768392D01*
X78999913Y-121970667D01*
X79171933Y-122142687D01*
X79175886Y-122145328D01*
X78709200Y-122145328D01*
X78584718Y-122157588D01*
X78465020Y-122193898D01*
X78354706Y-122252863D01*
X78258015Y-122332215D01*
X78178663Y-122428906D01*
X78119698Y-122539220D01*
X78083388Y-122658918D01*
X78071128Y-122783400D01*
X78071128Y-124583400D01*
X78083388Y-124707882D01*
X78119698Y-124827580D01*
X78176261Y-124933400D01*
X78119698Y-125039220D01*
X78083388Y-125158918D01*
X78071128Y-125283400D01*
X78071128Y-127083400D01*
X78083388Y-127207882D01*
X78119698Y-127327580D01*
X78178663Y-127437894D01*
X78258015Y-127534585D01*
X78354706Y-127613937D01*
X78465020Y-127672902D01*
X78584718Y-127709212D01*
X78709200Y-127721472D01*
X81209200Y-127721472D01*
X81333682Y-127709212D01*
X81453380Y-127672902D01*
X81563694Y-127613937D01*
X81660385Y-127534585D01*
X81739737Y-127437894D01*
X81798702Y-127327580D01*
X81835012Y-127207882D01*
X81847272Y-127083400D01*
X81847272Y-126478602D01*
X89601003Y-126478602D01*
X89717275Y-126760389D01*
X90035860Y-126918257D01*
X90379122Y-127010938D01*
X90733869Y-127034873D01*
X91086470Y-126989139D01*
X91423373Y-126875495D01*
X91638725Y-126760389D01*
X91754997Y-126478602D01*
X90678000Y-125401605D01*
X89601003Y-126478602D01*
X81847272Y-126478602D01*
X81847272Y-125283400D01*
X81846728Y-125277869D01*
X88865127Y-125277869D01*
X88910861Y-125630470D01*
X89024505Y-125967373D01*
X89139611Y-126182725D01*
X89421398Y-126298997D01*
X90498395Y-125222000D01*
X90857605Y-125222000D01*
X91934602Y-126298997D01*
X92216389Y-126182725D01*
X92374257Y-125864140D01*
X92466938Y-125520878D01*
X92490873Y-125166131D01*
X92445139Y-124813530D01*
X92331495Y-124476627D01*
X92216389Y-124261275D01*
X91934602Y-124145003D01*
X90857605Y-125222000D01*
X90498395Y-125222000D01*
X89421398Y-124145003D01*
X89139611Y-124261275D01*
X88981743Y-124579860D01*
X88889062Y-124923122D01*
X88865127Y-125277869D01*
X81846728Y-125277869D01*
X81835012Y-125158918D01*
X81798702Y-125039220D01*
X81742139Y-124933400D01*
X81798702Y-124827580D01*
X81835012Y-124707882D01*
X81847272Y-124583400D01*
X81847272Y-123965398D01*
X89601003Y-123965398D01*
X90678000Y-125042395D01*
X91754997Y-123965398D01*
X91638725Y-123683611D01*
X91320140Y-123525743D01*
X90976878Y-123433062D01*
X90622131Y-123409127D01*
X90269530Y-123454861D01*
X89932627Y-123568505D01*
X89717275Y-123683611D01*
X89601003Y-123965398D01*
X81847272Y-123965398D01*
X81847272Y-122783400D01*
X81835012Y-122658918D01*
X81798702Y-122539220D01*
X81739737Y-122428906D01*
X81660385Y-122332215D01*
X81563694Y-122252863D01*
X81453380Y-122193898D01*
X81333682Y-122157588D01*
X81209200Y-122145328D01*
X80742514Y-122145328D01*
X80746467Y-122142687D01*
X80918487Y-121970667D01*
X81053643Y-121768392D01*
X81146740Y-121543636D01*
X81159675Y-121478602D01*
X89601003Y-121478602D01*
X89717275Y-121760389D01*
X90035860Y-121918257D01*
X90379122Y-122010938D01*
X90733869Y-122034873D01*
X91086470Y-121989139D01*
X91423373Y-121875495D01*
X91638725Y-121760389D01*
X91754997Y-121478602D01*
X90678000Y-120401605D01*
X89601003Y-121478602D01*
X81159675Y-121478602D01*
X81194200Y-121305037D01*
X81194200Y-121061763D01*
X81146740Y-120823164D01*
X81053643Y-120598408D01*
X80918487Y-120396133D01*
X80800223Y-120277869D01*
X88865127Y-120277869D01*
X88910861Y-120630470D01*
X89024505Y-120967373D01*
X89139611Y-121182725D01*
X89421398Y-121298997D01*
X90498395Y-120222000D01*
X89421398Y-119145003D01*
X89139611Y-119261275D01*
X88981743Y-119579860D01*
X88889062Y-119923122D01*
X88865127Y-120277869D01*
X80800223Y-120277869D01*
X80746467Y-120224113D01*
X80742514Y-120221472D01*
X81209200Y-120221472D01*
X81333682Y-120209212D01*
X81453380Y-120172902D01*
X81563694Y-120113937D01*
X81660385Y-120034585D01*
X81739737Y-119937894D01*
X81798702Y-119827580D01*
X81835012Y-119707882D01*
X81847272Y-119583400D01*
X81847272Y-117783400D01*
X81835012Y-117658918D01*
X81798702Y-117539220D01*
X81742139Y-117433400D01*
X81798702Y-117327580D01*
X81835012Y-117207882D01*
X81847272Y-117083400D01*
X81847272Y-115283400D01*
X81835012Y-115158918D01*
X81798702Y-115039220D01*
X81739737Y-114928906D01*
X81660385Y-114832215D01*
X81563694Y-114752863D01*
X81453380Y-114693898D01*
X81333682Y-114657588D01*
X81209200Y-114645328D01*
X78709200Y-114645328D01*
X78584718Y-114657588D01*
X78465020Y-114693898D01*
X78354706Y-114752863D01*
X78258015Y-114832215D01*
X78178663Y-114928906D01*
X78119698Y-115039220D01*
X78083388Y-115158918D01*
X78071128Y-115283400D01*
X75805754Y-115283400D01*
X75746467Y-115224113D01*
X75544192Y-115088957D01*
X75319436Y-114995860D01*
X75080837Y-114948400D01*
X74837563Y-114948400D01*
X74598964Y-114995860D01*
X74374208Y-115088957D01*
X74171933Y-115224113D01*
X73999913Y-115396133D01*
X73864757Y-115598408D01*
X73771660Y-115823164D01*
X73724200Y-116061763D01*
X73694200Y-116061763D01*
X73646740Y-115823164D01*
X73553643Y-115598408D01*
X73418487Y-115396133D01*
X73246467Y-115224113D01*
X73044192Y-115088957D01*
X72819436Y-114995860D01*
X72580837Y-114948400D01*
X72337563Y-114948400D01*
X72098964Y-114995860D01*
X71874208Y-115088957D01*
X71671933Y-115224113D01*
X71499913Y-115396133D01*
X71364757Y-115598408D01*
X71271660Y-115823164D01*
X71224200Y-116061763D01*
X70710000Y-116061763D01*
X70710000Y-112106967D01*
X74365000Y-112106967D01*
X74365000Y-112429033D01*
X74427832Y-112744912D01*
X74551082Y-113042463D01*
X74730013Y-113310252D01*
X74957748Y-113537987D01*
X75225537Y-113716918D01*
X75523088Y-113840168D01*
X75838967Y-113903000D01*
X76161033Y-113903000D01*
X76476912Y-113840168D01*
X76774463Y-113716918D01*
X77042252Y-113537987D01*
X77177239Y-113403000D01*
X79861868Y-113403000D01*
X80472013Y-114013145D01*
X80507551Y-114056449D01*
X80550854Y-114091987D01*
X80550856Y-114091989D01*
X80680377Y-114198284D01*
X80877553Y-114303676D01*
X81091501Y-114368577D01*
X81314000Y-114390491D01*
X81369752Y-114385000D01*
X87279869Y-114385000D01*
X91519300Y-118624432D01*
X91320140Y-118525743D01*
X90976878Y-118433062D01*
X90622131Y-118409127D01*
X90269530Y-118454861D01*
X89932627Y-118568505D01*
X89717275Y-118683611D01*
X89601003Y-118965398D01*
X90678000Y-120042395D01*
X90692143Y-120028253D01*
X90871748Y-120207858D01*
X90857605Y-120222000D01*
X91934602Y-121298997D01*
X92115001Y-121224560D01*
X92115001Y-122738239D01*
X92109509Y-122794000D01*
X92131423Y-123016498D01*
X92196324Y-123230446D01*
X92226686Y-123287249D01*
X92301717Y-123427623D01*
X92443552Y-123600449D01*
X92486860Y-123635991D01*
X93876665Y-125025797D01*
X93873000Y-125044223D01*
X93873000Y-125399777D01*
X93942365Y-125748499D01*
X94078429Y-126076988D01*
X94275965Y-126372621D01*
X94527379Y-126624035D01*
X94823012Y-126821571D01*
X95151501Y-126957635D01*
X95500223Y-127027000D01*
X95855777Y-127027000D01*
X96204499Y-126957635D01*
X96532988Y-126821571D01*
X96828621Y-126624035D01*
X97080035Y-126372621D01*
X97277571Y-126076988D01*
X97413635Y-125748499D01*
X97483000Y-125399777D01*
X97483000Y-125044223D01*
X98873000Y-125044223D01*
X98873000Y-125399777D01*
X98942365Y-125748499D01*
X99078429Y-126076988D01*
X99275965Y-126372621D01*
X99527379Y-126624035D01*
X99823012Y-126821571D01*
X100151501Y-126957635D01*
X100500223Y-127027000D01*
X100855777Y-127027000D01*
X101204499Y-126957635D01*
X101532988Y-126821571D01*
X101828621Y-126624035D01*
X102080035Y-126372621D01*
X102277571Y-126076988D01*
X102413635Y-125748499D01*
X102483000Y-125399777D01*
X102483000Y-125044223D01*
X102413635Y-124695501D01*
X102277571Y-124367012D01*
X102080035Y-124071379D01*
X101828621Y-123819965D01*
X101532988Y-123622429D01*
X101204499Y-123486365D01*
X100855777Y-123417000D01*
X100500223Y-123417000D01*
X100151501Y-123486365D01*
X99823012Y-123622429D01*
X99527379Y-123819965D01*
X99275965Y-124071379D01*
X99078429Y-124367012D01*
X98942365Y-124695501D01*
X98873000Y-125044223D01*
X97483000Y-125044223D01*
X97413635Y-124695501D01*
X97277571Y-124367012D01*
X97080035Y-124071379D01*
X96828621Y-123819965D01*
X96532988Y-123622429D01*
X96204499Y-123486365D01*
X95855777Y-123417000D01*
X95500223Y-123417000D01*
X95481797Y-123420665D01*
X94385000Y-122323869D01*
X94385000Y-121481656D01*
X94527379Y-121624035D01*
X94823012Y-121821571D01*
X95151501Y-121957635D01*
X95500223Y-122027000D01*
X95855777Y-122027000D01*
X96204499Y-121957635D01*
X96532988Y-121821571D01*
X96828621Y-121624035D01*
X97080035Y-121372621D01*
X97277571Y-121076988D01*
X97413635Y-120748499D01*
X97483000Y-120399777D01*
X97483000Y-120044223D01*
X98873000Y-120044223D01*
X98873000Y-120399777D01*
X98942365Y-120748499D01*
X99078429Y-121076988D01*
X99275965Y-121372621D01*
X99527379Y-121624035D01*
X99823012Y-121821571D01*
X100151501Y-121957635D01*
X100500223Y-122027000D01*
X100855777Y-122027000D01*
X101204499Y-121957635D01*
X101532988Y-121821571D01*
X101828621Y-121624035D01*
X102080035Y-121372621D01*
X102277571Y-121076988D01*
X102413635Y-120748499D01*
X102483000Y-120399777D01*
X102483000Y-120044223D01*
X102413635Y-119695501D01*
X102277571Y-119367012D01*
X102080035Y-119071379D01*
X101828621Y-118819965D01*
X101532988Y-118622429D01*
X101204499Y-118486365D01*
X100855777Y-118417000D01*
X100500223Y-118417000D01*
X100151501Y-118486365D01*
X99823012Y-118622429D01*
X99527379Y-118819965D01*
X99275965Y-119071379D01*
X99078429Y-119367012D01*
X98942365Y-119695501D01*
X98873000Y-120044223D01*
X97483000Y-120044223D01*
X97413635Y-119695501D01*
X97277571Y-119367012D01*
X97080035Y-119071379D01*
X96828621Y-118819965D01*
X96813000Y-118809527D01*
X96813000Y-118051918D01*
X101439340Y-113425579D01*
X101457748Y-113443987D01*
X101725537Y-113622918D01*
X102023088Y-113746168D01*
X102338967Y-113809000D01*
X102661033Y-113809000D01*
X102976912Y-113746168D01*
X103274463Y-113622918D01*
X103542252Y-113443987D01*
X103769987Y-113216252D01*
X103948918Y-112948463D01*
X104072168Y-112650912D01*
X104135000Y-112335033D01*
X104135000Y-112012967D01*
X104072168Y-111697088D01*
X103948918Y-111399537D01*
X103769987Y-111131748D01*
X103542252Y-110904013D01*
X103274463Y-110725082D01*
X102976912Y-110601832D01*
X102661033Y-110539000D01*
X102338967Y-110539000D01*
X102023088Y-110601832D01*
X101725537Y-110725082D01*
X101457748Y-110904013D01*
X101322761Y-111039000D01*
X101141539Y-111039000D01*
X101085787Y-111033509D01*
X100863288Y-111055423D01*
X100649340Y-111120324D01*
X100452164Y-111225716D01*
X100322643Y-111332011D01*
X100322641Y-111332013D01*
X100279338Y-111367551D01*
X100243800Y-111410854D01*
X94914865Y-116739791D01*
X94871551Y-116775338D01*
X94729716Y-116948164D01*
X94638104Y-117119560D01*
X94624324Y-117145341D01*
X94559423Y-117359289D01*
X94537509Y-117581787D01*
X94543000Y-117637538D01*
X94543000Y-118809527D01*
X94527379Y-118819965D01*
X94385000Y-118962344D01*
X94385000Y-118805752D01*
X94390491Y-118750000D01*
X94377927Y-118622429D01*
X94368577Y-118527501D01*
X94303676Y-118313553D01*
X94198284Y-118116377D01*
X94117739Y-118018233D01*
X94091989Y-117986856D01*
X94091987Y-117986854D01*
X94056449Y-117943551D01*
X94013146Y-117908013D01*
X88591996Y-112486865D01*
X88556449Y-112443551D01*
X88383623Y-112301716D01*
X88186447Y-112196324D01*
X87972499Y-112131423D01*
X87805752Y-112115000D01*
X87805751Y-112115000D01*
X87750000Y-112109509D01*
X87694249Y-112115000D01*
X81784132Y-112115000D01*
X81173995Y-111504864D01*
X81138449Y-111461551D01*
X80965623Y-111319716D01*
X80768447Y-111214324D01*
X80554499Y-111149423D01*
X80387752Y-111133000D01*
X80387751Y-111133000D01*
X80332000Y-111127509D01*
X80276249Y-111133000D01*
X77177239Y-111133000D01*
X77042252Y-110998013D01*
X76774463Y-110819082D01*
X76688351Y-110783413D01*
X84044192Y-110783413D01*
X84139956Y-111047814D01*
X84429571Y-111188704D01*
X84741108Y-111270384D01*
X85062595Y-111289718D01*
X85381675Y-111245961D01*
X85686088Y-111140795D01*
X85860044Y-111047814D01*
X85955808Y-110783413D01*
X93044192Y-110783413D01*
X93139956Y-111047814D01*
X93429571Y-111188704D01*
X93741108Y-111270384D01*
X94062595Y-111289718D01*
X94381675Y-111245961D01*
X94686088Y-111140795D01*
X94860044Y-111047814D01*
X94955808Y-110783413D01*
X94000000Y-109827605D01*
X93044192Y-110783413D01*
X85955808Y-110783413D01*
X85000000Y-109827605D01*
X84044192Y-110783413D01*
X76688351Y-110783413D01*
X76476912Y-110695832D01*
X76161033Y-110633000D01*
X75838967Y-110633000D01*
X75523088Y-110695832D01*
X75225537Y-110819082D01*
X74957748Y-110998013D01*
X74730013Y-111225748D01*
X74551082Y-111493537D01*
X74427832Y-111791088D01*
X74365000Y-112106967D01*
X70710000Y-112106967D01*
X70710000Y-109710595D01*
X83358282Y-109710595D01*
X83402039Y-110029675D01*
X83507205Y-110334088D01*
X83600186Y-110508044D01*
X83864587Y-110603808D01*
X84820395Y-109648000D01*
X85179605Y-109648000D01*
X86135413Y-110603808D01*
X86399814Y-110508044D01*
X86540704Y-110218429D01*
X86622384Y-109906892D01*
X86634189Y-109710595D01*
X92358282Y-109710595D01*
X92402039Y-110029675D01*
X92507205Y-110334088D01*
X92600186Y-110508044D01*
X92864587Y-110603808D01*
X93820395Y-109648000D01*
X94179605Y-109648000D01*
X95135413Y-110603808D01*
X95399814Y-110508044D01*
X95540704Y-110218429D01*
X95622384Y-109906892D01*
X95641718Y-109585405D01*
X95597961Y-109266325D01*
X95492795Y-108961912D01*
X95399814Y-108787956D01*
X95135413Y-108692192D01*
X94179605Y-109648000D01*
X93820395Y-109648000D01*
X92864587Y-108692192D01*
X92600186Y-108787956D01*
X92459296Y-109077571D01*
X92377616Y-109389108D01*
X92358282Y-109710595D01*
X86634189Y-109710595D01*
X86641718Y-109585405D01*
X86597961Y-109266325D01*
X86492795Y-108961912D01*
X86399814Y-108787956D01*
X86135413Y-108692192D01*
X85179605Y-109648000D01*
X84820395Y-109648000D01*
X83864587Y-108692192D01*
X83600186Y-108787956D01*
X83459296Y-109077571D01*
X83377616Y-109389108D01*
X83358282Y-109710595D01*
X70710000Y-109710595D01*
X70710000Y-108512587D01*
X84044192Y-108512587D01*
X85000000Y-109468395D01*
X85955808Y-108512587D01*
X93044192Y-108512587D01*
X94000000Y-109468395D01*
X94955808Y-108512587D01*
X94860044Y-108248186D01*
X94570429Y-108107296D01*
X94258892Y-108025616D01*
X93937405Y-108006282D01*
X93618325Y-108050039D01*
X93313912Y-108155205D01*
X93139956Y-108248186D01*
X93044192Y-108512587D01*
X85955808Y-108512587D01*
X85860044Y-108248186D01*
X85570429Y-108107296D01*
X85258892Y-108025616D01*
X84937405Y-108006282D01*
X84618325Y-108050039D01*
X84313912Y-108155205D01*
X84139956Y-108248186D01*
X84044192Y-108512587D01*
X70710000Y-108512587D01*
X70710000Y-75250000D01*
X72359509Y-75250000D01*
X72365000Y-75305752D01*
X72365001Y-84394237D01*
X72359509Y-84449998D01*
X72381423Y-84672496D01*
X72446324Y-84886444D01*
X72485903Y-84960491D01*
X72551717Y-85083621D01*
X72693552Y-85256447D01*
X72736860Y-85291989D01*
X76765002Y-89320132D01*
X76765001Y-99897867D01*
X76029869Y-100633000D01*
X75838967Y-100633000D01*
X75523088Y-100695832D01*
X75225537Y-100819082D01*
X74957748Y-100998013D01*
X74730013Y-101225748D01*
X74551082Y-101493537D01*
X74427832Y-101791088D01*
X74365000Y-102106967D01*
X74365000Y-102429033D01*
X74427832Y-102744912D01*
X74551082Y-103042463D01*
X74730013Y-103310252D01*
X74957748Y-103537987D01*
X75225537Y-103716918D01*
X75523088Y-103840168D01*
X75838967Y-103903000D01*
X76029869Y-103903000D01*
X77538009Y-105411141D01*
X77573551Y-105454449D01*
X77746377Y-105596284D01*
X77943553Y-105701676D01*
X78157501Y-105766577D01*
X78324248Y-105783000D01*
X78324257Y-105783000D01*
X78379999Y-105788490D01*
X78435741Y-105783000D01*
X83822761Y-105783000D01*
X83957748Y-105917987D01*
X84225537Y-106096918D01*
X84523088Y-106220168D01*
X84838967Y-106283000D01*
X85161033Y-106283000D01*
X85476912Y-106220168D01*
X85774463Y-106096918D01*
X86042252Y-105917987D01*
X86269987Y-105690252D01*
X86448918Y-105422463D01*
X86572168Y-105124912D01*
X86635000Y-104809033D01*
X86635000Y-104486967D01*
X86572168Y-104171088D01*
X86448918Y-103873537D01*
X86269987Y-103605748D01*
X86042252Y-103378013D01*
X85774463Y-103199082D01*
X85476912Y-103075832D01*
X85161033Y-103013000D01*
X84838967Y-103013000D01*
X84523088Y-103075832D01*
X84225537Y-103199082D01*
X83957748Y-103378013D01*
X83822761Y-103513000D01*
X78850132Y-103513000D01*
X77635000Y-102297869D01*
X77635000Y-102238131D01*
X78663142Y-101209990D01*
X78706450Y-101174448D01*
X78848285Y-101001622D01*
X78953677Y-100804446D01*
X79018578Y-100590498D01*
X79035001Y-100423751D01*
X79035001Y-100423744D01*
X79040491Y-100368000D01*
X79035001Y-100312256D01*
X79035001Y-91885413D01*
X81674192Y-91885413D01*
X81769956Y-92149814D01*
X82059571Y-92290704D01*
X82371108Y-92372384D01*
X82692595Y-92391718D01*
X83011675Y-92347961D01*
X83316088Y-92242795D01*
X83490044Y-92149814D01*
X83585808Y-91885413D01*
X82630000Y-90929605D01*
X81674192Y-91885413D01*
X79035001Y-91885413D01*
X79035001Y-90812595D01*
X80988282Y-90812595D01*
X81032039Y-91131675D01*
X81137205Y-91436088D01*
X81230186Y-91610044D01*
X81494587Y-91705808D01*
X82450395Y-90750000D01*
X82809605Y-90750000D01*
X83765413Y-91705808D01*
X84029814Y-91610044D01*
X84170704Y-91320429D01*
X84252384Y-91008892D01*
X84271718Y-90687405D01*
X84227961Y-90368325D01*
X84122795Y-90063912D01*
X84029814Y-89889956D01*
X83765413Y-89794192D01*
X82809605Y-90750000D01*
X82450395Y-90750000D01*
X81494587Y-89794192D01*
X81230186Y-89889956D01*
X81089296Y-90179571D01*
X81007616Y-90491108D01*
X80988282Y-90812595D01*
X79035001Y-90812595D01*
X79035001Y-89614587D01*
X81674192Y-89614587D01*
X82630000Y-90570395D01*
X83585808Y-89614587D01*
X83490044Y-89350186D01*
X83200429Y-89209296D01*
X82888892Y-89127616D01*
X82567405Y-89108282D01*
X82248325Y-89152039D01*
X81943912Y-89257205D01*
X81769956Y-89350186D01*
X81674192Y-89614587D01*
X79035001Y-89614587D01*
X79035001Y-88905750D01*
X79040492Y-88849998D01*
X79018578Y-88627500D01*
X78953677Y-88413552D01*
X78900227Y-88313554D01*
X78848285Y-88216376D01*
X78706450Y-88043550D01*
X78663142Y-88008008D01*
X74635000Y-83979867D01*
X74635000Y-83859413D01*
X75244192Y-83859413D01*
X75339956Y-84123814D01*
X75629571Y-84264704D01*
X75941108Y-84346384D01*
X76262595Y-84365718D01*
X76581675Y-84321961D01*
X76886088Y-84216795D01*
X77060044Y-84123814D01*
X77155808Y-83859413D01*
X76200000Y-82903605D01*
X75244192Y-83859413D01*
X74635000Y-83859413D01*
X74635000Y-83201084D01*
X74707205Y-83410088D01*
X74800186Y-83584044D01*
X75064587Y-83679808D01*
X76020395Y-82724000D01*
X76379605Y-82724000D01*
X77335413Y-83679808D01*
X77599814Y-83584044D01*
X77740704Y-83294429D01*
X77822384Y-82982892D01*
X77841718Y-82661405D01*
X77797961Y-82342325D01*
X77692795Y-82037912D01*
X77599814Y-81863956D01*
X77335413Y-81768192D01*
X76379605Y-82724000D01*
X76020395Y-82724000D01*
X75064587Y-81768192D01*
X74800186Y-81863956D01*
X74659296Y-82153571D01*
X74635000Y-82246239D01*
X74635000Y-81588587D01*
X75244192Y-81588587D01*
X76200000Y-82544395D01*
X77155808Y-81588587D01*
X77060044Y-81324186D01*
X76770429Y-81183296D01*
X76458892Y-81101616D01*
X76137405Y-81082282D01*
X75818325Y-81126039D01*
X75513912Y-81231205D01*
X75339956Y-81324186D01*
X75244192Y-81588587D01*
X74635000Y-81588587D01*
X74635000Y-79014019D01*
X74669463Y-79078494D01*
X74748815Y-79175185D01*
X74845506Y-79254537D01*
X74955820Y-79313502D01*
X75075518Y-79349812D01*
X75200000Y-79362072D01*
X77200000Y-79362072D01*
X77324482Y-79349812D01*
X77444180Y-79313502D01*
X77554494Y-79254537D01*
X77651185Y-79175185D01*
X77730537Y-79078494D01*
X77789502Y-78968180D01*
X77825812Y-78848482D01*
X77838072Y-78724000D01*
X77838072Y-76827000D01*
X79954249Y-76827000D01*
X80010000Y-76832491D01*
X80065751Y-76827000D01*
X80065752Y-76827000D01*
X80146978Y-76819000D01*
X84010249Y-76819000D01*
X84066000Y-76824491D01*
X84121751Y-76819000D01*
X84121752Y-76819000D01*
X84288499Y-76802577D01*
X84502447Y-76737676D01*
X84699623Y-76632284D01*
X84872449Y-76490449D01*
X84907995Y-76447136D01*
X85763140Y-75591992D01*
X85806449Y-75556449D01*
X85865000Y-75485104D01*
X85865000Y-76359868D01*
X83384983Y-78839886D01*
X83284691Y-78849764D01*
X83014192Y-78931818D01*
X82764899Y-79065068D01*
X82546392Y-79244392D01*
X82367068Y-79462899D01*
X82233818Y-79712192D01*
X82151764Y-79982691D01*
X82124057Y-80264000D01*
X82151764Y-80545309D01*
X82233818Y-80815808D01*
X82367068Y-81065101D01*
X82546392Y-81283608D01*
X82764899Y-81462932D01*
X83014192Y-81596182D01*
X83284691Y-81678236D01*
X83495508Y-81699000D01*
X83636492Y-81699000D01*
X83847309Y-81678236D01*
X84117808Y-81596182D01*
X84367101Y-81462932D01*
X84585608Y-81283608D01*
X84764932Y-81065101D01*
X84898182Y-80815808D01*
X84980236Y-80545309D01*
X84990114Y-80445017D01*
X87763141Y-77671991D01*
X87806449Y-77636449D01*
X87948284Y-77463623D01*
X88053676Y-77266447D01*
X88118577Y-77052499D01*
X88135000Y-76885752D01*
X88135000Y-76885743D01*
X88140490Y-76830001D01*
X88135000Y-76774259D01*
X88135000Y-73323624D01*
X88154766Y-73379429D01*
X88440120Y-73517820D01*
X88746990Y-73597883D01*
X89063584Y-73616540D01*
X89377733Y-73573074D01*
X89677367Y-73469156D01*
X89845234Y-73379429D01*
X89865001Y-73323622D01*
X89865000Y-84909867D01*
X86866860Y-87908009D01*
X86823552Y-87943551D01*
X86681717Y-88116377D01*
X86628267Y-88216376D01*
X86576324Y-88313554D01*
X86511423Y-88527502D01*
X86489509Y-88750000D01*
X86495001Y-88805761D01*
X86495001Y-89127378D01*
X86385820Y-89160498D01*
X86275506Y-89219463D01*
X86178815Y-89298815D01*
X86099463Y-89395506D01*
X86040498Y-89505820D01*
X86004188Y-89625518D01*
X85991928Y-89750000D01*
X85991928Y-91750000D01*
X86004188Y-91874482D01*
X86040498Y-91994180D01*
X86099463Y-92104494D01*
X86178815Y-92201185D01*
X86275506Y-92280537D01*
X86385820Y-92339502D01*
X86505518Y-92375812D01*
X86630000Y-92388072D01*
X88630000Y-92388072D01*
X88754482Y-92375812D01*
X88874180Y-92339502D01*
X88984494Y-92280537D01*
X89081185Y-92201185D01*
X89160537Y-92104494D01*
X89219502Y-91994180D01*
X89255812Y-91874482D01*
X89268072Y-91750000D01*
X89268072Y-89750000D01*
X89255812Y-89625518D01*
X89219502Y-89505820D01*
X89160537Y-89395506D01*
X89081185Y-89298815D01*
X88984494Y-89219463D01*
X88874180Y-89160498D01*
X88836165Y-89148966D01*
X91763146Y-86221987D01*
X91806449Y-86186449D01*
X91865001Y-86115104D01*
X91865001Y-96694238D01*
X91859509Y-96750000D01*
X91881423Y-96972498D01*
X91946324Y-97186446D01*
X91946325Y-97186447D01*
X92051717Y-97383623D01*
X92193552Y-97556449D01*
X92236860Y-97591991D01*
X97582009Y-102937141D01*
X97617551Y-102980449D01*
X97790377Y-103122284D01*
X97987553Y-103227676D01*
X98201501Y-103292577D01*
X98368248Y-103309000D01*
X98368257Y-103309000D01*
X98423999Y-103314490D01*
X98479741Y-103309000D01*
X99759869Y-103309000D01*
X99555869Y-103513000D01*
X95177239Y-103513000D01*
X95042252Y-103378013D01*
X94774463Y-103199082D01*
X94476912Y-103075832D01*
X94161033Y-103013000D01*
X93838967Y-103013000D01*
X93523088Y-103075832D01*
X93225537Y-103199082D01*
X92957748Y-103378013D01*
X92730013Y-103605748D01*
X92551082Y-103873537D01*
X92427832Y-104171088D01*
X92365000Y-104486967D01*
X92365000Y-104809033D01*
X92427832Y-105124912D01*
X92551082Y-105422463D01*
X92730013Y-105690252D01*
X92957748Y-105917987D01*
X93225537Y-106096918D01*
X93523088Y-106220168D01*
X93838967Y-106283000D01*
X94161033Y-106283000D01*
X94476912Y-106220168D01*
X94774463Y-106096918D01*
X95042252Y-105917987D01*
X95177239Y-105783000D01*
X99970249Y-105783000D01*
X100026000Y-105788491D01*
X100081751Y-105783000D01*
X100081752Y-105783000D01*
X100248499Y-105766577D01*
X100462447Y-105701676D01*
X100659623Y-105596284D01*
X100832449Y-105454449D01*
X100867996Y-105411135D01*
X102425092Y-103854039D01*
X106558096Y-103854039D01*
X106598754Y-103988087D01*
X106718963Y-104242420D01*
X106886481Y-104468414D01*
X107094869Y-104657385D01*
X107336119Y-104802070D01*
X107600960Y-104896909D01*
X107823000Y-104775624D01*
X107823000Y-103632000D01*
X108077000Y-103632000D01*
X108077000Y-104775624D01*
X108299040Y-104896909D01*
X108563881Y-104802070D01*
X108805131Y-104657385D01*
X109013519Y-104468414D01*
X109181037Y-104242420D01*
X109301246Y-103988087D01*
X109341904Y-103854039D01*
X109219915Y-103632000D01*
X108077000Y-103632000D01*
X107823000Y-103632000D01*
X106680085Y-103632000D01*
X106558096Y-103854039D01*
X102425092Y-103854039D01*
X102470132Y-103809000D01*
X102661033Y-103809000D01*
X102976912Y-103746168D01*
X103274463Y-103622918D01*
X103542252Y-103443987D01*
X103769987Y-103216252D01*
X103810272Y-103155961D01*
X106558096Y-103155961D01*
X106680085Y-103378000D01*
X107823000Y-103378000D01*
X107823000Y-102234376D01*
X108077000Y-102234376D01*
X108077000Y-103378000D01*
X109219915Y-103378000D01*
X109341904Y-103155961D01*
X109301246Y-103021913D01*
X109181037Y-102767580D01*
X109013519Y-102541586D01*
X108805131Y-102352615D01*
X108563881Y-102207930D01*
X108299040Y-102113091D01*
X108077000Y-102234376D01*
X107823000Y-102234376D01*
X107600960Y-102113091D01*
X107336119Y-102207930D01*
X107094869Y-102352615D01*
X106886481Y-102541586D01*
X106718963Y-102767580D01*
X106598754Y-103021913D01*
X106558096Y-103155961D01*
X103810272Y-103155961D01*
X103948918Y-102948463D01*
X104072168Y-102650912D01*
X104135000Y-102335033D01*
X104135000Y-102012967D01*
X104072168Y-101697088D01*
X103948918Y-101399537D01*
X103769987Y-101131748D01*
X103542252Y-100904013D01*
X103274463Y-100725082D01*
X102976912Y-100601832D01*
X102661033Y-100539000D01*
X102338967Y-100539000D01*
X102023088Y-100601832D01*
X101725537Y-100725082D01*
X101457748Y-100904013D01*
X101322761Y-101039000D01*
X98894132Y-101039000D01*
X94135000Y-96279869D01*
X94135000Y-91885413D01*
X95544192Y-91885413D01*
X95639956Y-92149814D01*
X95929571Y-92290704D01*
X96241108Y-92372384D01*
X96562595Y-92391718D01*
X96881675Y-92347961D01*
X97186088Y-92242795D01*
X97360044Y-92149814D01*
X97455808Y-91885413D01*
X96500000Y-90929605D01*
X95544192Y-91885413D01*
X94135000Y-91885413D01*
X94135000Y-90812595D01*
X94858282Y-90812595D01*
X94902039Y-91131675D01*
X95007205Y-91436088D01*
X95100186Y-91610044D01*
X95364587Y-91705808D01*
X96320395Y-90750000D01*
X96679605Y-90750000D01*
X97635413Y-91705808D01*
X97899814Y-91610044D01*
X98040704Y-91320429D01*
X98122384Y-91008892D01*
X98141718Y-90687405D01*
X98097961Y-90368325D01*
X97992795Y-90063912D01*
X97899814Y-89889956D01*
X97635413Y-89794192D01*
X96679605Y-90750000D01*
X96320395Y-90750000D01*
X95364587Y-89794192D01*
X95100186Y-89889956D01*
X94959296Y-90179571D01*
X94877616Y-90491108D01*
X94858282Y-90812595D01*
X94135000Y-90812595D01*
X94135000Y-89614587D01*
X95544192Y-89614587D01*
X96500000Y-90570395D01*
X97455808Y-89614587D01*
X97360044Y-89350186D01*
X97070429Y-89209296D01*
X96758892Y-89127616D01*
X96437405Y-89108282D01*
X96118325Y-89152039D01*
X95813912Y-89257205D01*
X95639956Y-89350186D01*
X95544192Y-89614587D01*
X94135000Y-89614587D01*
X94135000Y-82485105D01*
X94193551Y-82556449D01*
X94236865Y-82591996D01*
X100365001Y-88720133D01*
X100365001Y-89127378D01*
X100255820Y-89160498D01*
X100145506Y-89219463D01*
X100048815Y-89298815D01*
X99969463Y-89395506D01*
X99910498Y-89505820D01*
X99874188Y-89625518D01*
X99861928Y-89750000D01*
X99861928Y-91750000D01*
X99874188Y-91874482D01*
X99910498Y-91994180D01*
X99969463Y-92104494D01*
X100048815Y-92201185D01*
X100145506Y-92280537D01*
X100255820Y-92339502D01*
X100375518Y-92375812D01*
X100500000Y-92388072D01*
X102500000Y-92388072D01*
X102624482Y-92375812D01*
X102744180Y-92339502D01*
X102854494Y-92280537D01*
X102951185Y-92201185D01*
X103030537Y-92104494D01*
X103089502Y-91994180D01*
X103125812Y-91874482D01*
X103138072Y-91750000D01*
X103138072Y-89750000D01*
X103125812Y-89625518D01*
X103089502Y-89505820D01*
X103030537Y-89395506D01*
X102951185Y-89298815D01*
X102854494Y-89219463D01*
X102744180Y-89160498D01*
X102635000Y-89127379D01*
X102635000Y-88305751D01*
X102640491Y-88249999D01*
X102618577Y-88027500D01*
X102593111Y-87943551D01*
X102553676Y-87813553D01*
X102448284Y-87616377D01*
X102306449Y-87443551D01*
X102263141Y-87408009D01*
X96135000Y-81279869D01*
X96135000Y-73358356D01*
X96237379Y-73426763D01*
X96530380Y-73548129D01*
X96841429Y-73610000D01*
X97004868Y-73610000D01*
X97671001Y-74276133D01*
X97671000Y-75823716D01*
X97534320Y-76028273D01*
X97426147Y-76289426D01*
X97371000Y-76566665D01*
X97371000Y-76849335D01*
X97426147Y-77126574D01*
X97534320Y-77387727D01*
X97671000Y-77592284D01*
X97671001Y-79379715D01*
X97534320Y-79584273D01*
X97426147Y-79845426D01*
X97371000Y-80122665D01*
X97371000Y-80405335D01*
X97426147Y-80682574D01*
X97534320Y-80943727D01*
X97691363Y-81178759D01*
X97891241Y-81378637D01*
X98126273Y-81535680D01*
X98387426Y-81643853D01*
X98664665Y-81699000D01*
X98947335Y-81699000D01*
X99224574Y-81643853D01*
X99485727Y-81535680D01*
X99720759Y-81378637D01*
X99865000Y-81234396D01*
X99865000Y-81444248D01*
X99859509Y-81500000D01*
X99865000Y-81555751D01*
X99881423Y-81722498D01*
X99946324Y-81936446D01*
X100051716Y-82133623D01*
X100193551Y-82306449D01*
X100236865Y-82341996D01*
X112657001Y-94762133D01*
X112657000Y-105647100D01*
X112611324Y-105732554D01*
X112546423Y-105946502D01*
X112524509Y-106169000D01*
X112530001Y-106224761D01*
X112530000Y-107407761D01*
X112395013Y-107542748D01*
X112216082Y-107810537D01*
X112092832Y-108108088D01*
X112030000Y-108423967D01*
X112030000Y-108746033D01*
X112092832Y-109061912D01*
X112216082Y-109359463D01*
X112395013Y-109627252D01*
X112530001Y-109762240D01*
X112530000Y-115895248D01*
X112524509Y-115951000D01*
X112530000Y-116006751D01*
X112546423Y-116173498D01*
X112611324Y-116387446D01*
X112702893Y-116558761D01*
X109631850Y-113487719D01*
X109583853Y-113246426D01*
X109475680Y-112985273D01*
X109318637Y-112750241D01*
X109118759Y-112550363D01*
X108883727Y-112393320D01*
X108622574Y-112285147D01*
X108345335Y-112230000D01*
X108062665Y-112230000D01*
X107785426Y-112285147D01*
X107524273Y-112393320D01*
X107289241Y-112550363D01*
X107089363Y-112750241D01*
X106932320Y-112985273D01*
X106824147Y-113246426D01*
X106769000Y-113523665D01*
X106769000Y-113806335D01*
X106824147Y-114083574D01*
X106932320Y-114344727D01*
X107089363Y-114579759D01*
X107289241Y-114779637D01*
X107524273Y-114936680D01*
X107785426Y-115044853D01*
X108026719Y-115092850D01*
X112184890Y-119251022D01*
X112296082Y-119519463D01*
X112475013Y-119787252D01*
X112702748Y-120014987D01*
X112970537Y-120193918D01*
X113268088Y-120317168D01*
X113583967Y-120380000D01*
X113906033Y-120380000D01*
X114221912Y-120317168D01*
X114364992Y-120257902D01*
X114364992Y-121229877D01*
X114236865Y-121358004D01*
X114193551Y-121393551D01*
X114051716Y-121566377D01*
X113958741Y-121740324D01*
X113946324Y-121763554D01*
X113881423Y-121977502D01*
X113859509Y-122200000D01*
X113865000Y-122255752D01*
X113865000Y-122577379D01*
X113755820Y-122610498D01*
X113645506Y-122669463D01*
X113548815Y-122748815D01*
X113469463Y-122845506D01*
X113410498Y-122955820D01*
X113374188Y-123075518D01*
X113361928Y-123200000D01*
X113361928Y-126800000D01*
X113374188Y-126924482D01*
X113410498Y-127044180D01*
X113469463Y-127154494D01*
X113548815Y-127251185D01*
X113645506Y-127330537D01*
X113755820Y-127389502D01*
X113875518Y-127425812D01*
X114000000Y-127438072D01*
X116000000Y-127438072D01*
X116124482Y-127425812D01*
X116244180Y-127389502D01*
X116354494Y-127330537D01*
X116451185Y-127251185D01*
X116530537Y-127154494D01*
X116589502Y-127044180D01*
X116625812Y-126924482D01*
X116638072Y-126800000D01*
X116638072Y-123200000D01*
X116625812Y-123075518D01*
X116589502Y-122955820D01*
X116530537Y-122845506D01*
X116451185Y-122748815D01*
X116354494Y-122669463D01*
X116244180Y-122610498D01*
X116206165Y-122598966D01*
X116263126Y-122542005D01*
X116306440Y-122506458D01*
X116448275Y-122333632D01*
X116553667Y-122136456D01*
X116618568Y-121922508D01*
X116633747Y-121768392D01*
X116640482Y-121700010D01*
X116634991Y-121644258D01*
X116634991Y-118240123D01*
X117110000Y-118715132D01*
X117110000Y-118906033D01*
X117172832Y-119221912D01*
X117296082Y-119519463D01*
X117475013Y-119787252D01*
X117702748Y-120014987D01*
X117970537Y-120193918D01*
X118268088Y-120317168D01*
X118583967Y-120380000D01*
X118774868Y-120380000D01*
X118865001Y-120470133D01*
X118865000Y-123016362D01*
X118838286Y-123038286D01*
X118633969Y-123287249D01*
X118482148Y-123571286D01*
X118388657Y-123879485D01*
X118365000Y-124119679D01*
X118365000Y-125880322D01*
X118388658Y-126120516D01*
X118482149Y-126428715D01*
X118633970Y-126712752D01*
X118838287Y-126961714D01*
X119087249Y-127166031D01*
X119371286Y-127317852D01*
X119679485Y-127411343D01*
X120000000Y-127442911D01*
X120320516Y-127411343D01*
X120628715Y-127317852D01*
X120912752Y-127166031D01*
X121161714Y-126961714D01*
X121366031Y-126712752D01*
X121517852Y-126428715D01*
X121611343Y-126120516D01*
X121635000Y-125880322D01*
X121635000Y-124119678D01*
X121611343Y-123879484D01*
X121517852Y-123571285D01*
X121366031Y-123287248D01*
X121161714Y-123038286D01*
X121135000Y-123016363D01*
X121135000Y-120055751D01*
X121140491Y-119999999D01*
X121118577Y-119777501D01*
X121053676Y-119563553D01*
X121047206Y-119551448D01*
X120948284Y-119366377D01*
X120806449Y-119193551D01*
X120763140Y-119158008D01*
X120380000Y-118774868D01*
X120380000Y-118583967D01*
X120317168Y-118268088D01*
X120193918Y-117970537D01*
X120014987Y-117702748D01*
X119787252Y-117475013D01*
X119519463Y-117296082D01*
X119221912Y-117172832D01*
X118906033Y-117110000D01*
X118715132Y-117110000D01*
X116705000Y-115099869D01*
X116705000Y-114014039D01*
X122052096Y-114014039D01*
X122092754Y-114148087D01*
X122212963Y-114402420D01*
X122380481Y-114628414D01*
X122588869Y-114817385D01*
X122830119Y-114962070D01*
X123094960Y-115056909D01*
X123317000Y-114935624D01*
X123317000Y-113792000D01*
X123571000Y-113792000D01*
X123571000Y-114935624D01*
X123793040Y-115056909D01*
X124057881Y-114962070D01*
X124299131Y-114817385D01*
X124507519Y-114628414D01*
X124675037Y-114402420D01*
X124795246Y-114148087D01*
X124835904Y-114014039D01*
X124713915Y-113792000D01*
X123571000Y-113792000D01*
X123317000Y-113792000D01*
X122174085Y-113792000D01*
X122052096Y-114014039D01*
X116705000Y-114014039D01*
X116705000Y-113315961D01*
X122052096Y-113315961D01*
X122174085Y-113538000D01*
X123317000Y-113538000D01*
X123317000Y-112394376D01*
X123571000Y-112394376D01*
X123571000Y-113538000D01*
X124713915Y-113538000D01*
X124835904Y-113315961D01*
X124795246Y-113181913D01*
X124675037Y-112927580D01*
X124507519Y-112701586D01*
X124299131Y-112512615D01*
X124057881Y-112367930D01*
X123793040Y-112273091D01*
X123571000Y-112394376D01*
X123317000Y-112394376D01*
X123094960Y-112273091D01*
X122830119Y-112367930D01*
X122588869Y-112512615D01*
X122380481Y-112701586D01*
X122212963Y-112927580D01*
X122092754Y-113181913D01*
X122052096Y-113315961D01*
X116705000Y-113315961D01*
X116705000Y-108423967D01*
X117030000Y-108423967D01*
X117030000Y-108746033D01*
X117092832Y-109061912D01*
X117216082Y-109359463D01*
X117395013Y-109627252D01*
X117622748Y-109854987D01*
X117890537Y-110033918D01*
X118188088Y-110157168D01*
X118503967Y-110220000D01*
X118826033Y-110220000D01*
X119141912Y-110157168D01*
X119439463Y-110033918D01*
X119707252Y-109854987D01*
X119934987Y-109627252D01*
X120113918Y-109359463D01*
X120237168Y-109061912D01*
X120300000Y-108746033D01*
X120300000Y-108423967D01*
X120237168Y-108108088D01*
X120223951Y-108076180D01*
X123367282Y-104932850D01*
X123608574Y-104884853D01*
X123869727Y-104776680D01*
X124104759Y-104619637D01*
X124304637Y-104419759D01*
X124461680Y-104184727D01*
X124569853Y-103923574D01*
X124583684Y-103854039D01*
X125608096Y-103854039D01*
X125648754Y-103988087D01*
X125768963Y-104242420D01*
X125936481Y-104468414D01*
X126144869Y-104657385D01*
X126386119Y-104802070D01*
X126650960Y-104896909D01*
X126873000Y-104775624D01*
X126873000Y-103632000D01*
X127127000Y-103632000D01*
X127127000Y-104775624D01*
X127349040Y-104896909D01*
X127613881Y-104802070D01*
X127855131Y-104657385D01*
X128063519Y-104468414D01*
X128231037Y-104242420D01*
X128351246Y-103988087D01*
X128391904Y-103854039D01*
X128269915Y-103632000D01*
X127127000Y-103632000D01*
X126873000Y-103632000D01*
X125730085Y-103632000D01*
X125608096Y-103854039D01*
X124583684Y-103854039D01*
X124625000Y-103646335D01*
X124625000Y-103363665D01*
X124583685Y-103155961D01*
X125608096Y-103155961D01*
X125730085Y-103378000D01*
X126873000Y-103378000D01*
X126873000Y-102234376D01*
X127127000Y-102234376D01*
X127127000Y-103378000D01*
X128269915Y-103378000D01*
X128391904Y-103155961D01*
X128351246Y-103021913D01*
X128231037Y-102767580D01*
X128063519Y-102541586D01*
X127855131Y-102352615D01*
X127613881Y-102207930D01*
X127349040Y-102113091D01*
X127127000Y-102234376D01*
X126873000Y-102234376D01*
X126650960Y-102113091D01*
X126386119Y-102207930D01*
X126144869Y-102352615D01*
X125936481Y-102541586D01*
X125768963Y-102767580D01*
X125648754Y-103021913D01*
X125608096Y-103155961D01*
X124583685Y-103155961D01*
X124569853Y-103086426D01*
X124461680Y-102825273D01*
X124304637Y-102590241D01*
X124104759Y-102390363D01*
X123869727Y-102233320D01*
X123608574Y-102125147D01*
X123331335Y-102070000D01*
X123048665Y-102070000D01*
X122771426Y-102125147D01*
X122510273Y-102233320D01*
X122275241Y-102390363D01*
X122075363Y-102590241D01*
X121918320Y-102825273D01*
X121810147Y-103086426D01*
X121762150Y-103327718D01*
X117998512Y-107091357D01*
X117890537Y-107136082D01*
X117622748Y-107315013D01*
X117395013Y-107542748D01*
X117216082Y-107810537D01*
X117092832Y-108108088D01*
X117030000Y-108423967D01*
X116705000Y-108423967D01*
X116705000Y-93781741D01*
X116710490Y-93725999D01*
X116705000Y-93670257D01*
X116705000Y-93670248D01*
X116691331Y-93531463D01*
X124634013Y-101474146D01*
X124669551Y-101517449D01*
X124712854Y-101552987D01*
X124712856Y-101552989D01*
X124842377Y-101659284D01*
X125039553Y-101764676D01*
X125253501Y-101829577D01*
X125476000Y-101851491D01*
X125531752Y-101846000D01*
X127418869Y-101846000D01*
X129929001Y-104356133D01*
X129929000Y-106772761D01*
X129794013Y-106907748D01*
X129615082Y-107175537D01*
X129491832Y-107473088D01*
X129429000Y-107788967D01*
X129429000Y-108111033D01*
X129491832Y-108426912D01*
X129615082Y-108724463D01*
X129794013Y-108992252D01*
X129929000Y-109127239D01*
X129929001Y-114988869D01*
X128427850Y-113487719D01*
X128379853Y-113246426D01*
X128271680Y-112985273D01*
X128114637Y-112750241D01*
X127914759Y-112550363D01*
X127679727Y-112393320D01*
X127418574Y-112285147D01*
X127141335Y-112230000D01*
X126858665Y-112230000D01*
X126581426Y-112285147D01*
X126320273Y-112393320D01*
X126085241Y-112550363D01*
X125885363Y-112750241D01*
X125728320Y-112985273D01*
X125620147Y-113246426D01*
X125565000Y-113523665D01*
X125565000Y-113806335D01*
X125620147Y-114083574D01*
X125728320Y-114344727D01*
X125885363Y-114579759D01*
X126085241Y-114779637D01*
X126320273Y-114936680D01*
X126581426Y-115044853D01*
X126822719Y-115092850D01*
X129544952Y-117815084D01*
X129441082Y-117970537D01*
X129317832Y-118268088D01*
X129255000Y-118583967D01*
X129255000Y-118906033D01*
X129317832Y-119221912D01*
X129441082Y-119519463D01*
X129620013Y-119787252D01*
X129847748Y-120014987D01*
X130115537Y-120193918D01*
X130413088Y-120317168D01*
X130728967Y-120380000D01*
X131051033Y-120380000D01*
X131366912Y-120317168D01*
X131426300Y-120292569D01*
X131103869Y-120615000D01*
X130055752Y-120615000D01*
X130000000Y-120609509D01*
X129944249Y-120615000D01*
X129944248Y-120615000D01*
X129777501Y-120631423D01*
X129563553Y-120696324D01*
X129366377Y-120801716D01*
X129193551Y-120943551D01*
X129051716Y-121116377D01*
X128946324Y-121313553D01*
X128881423Y-121527501D01*
X128859509Y-121750000D01*
X128865001Y-121805761D01*
X128865001Y-122577378D01*
X128755820Y-122610498D01*
X128645506Y-122669463D01*
X128548815Y-122748815D01*
X128469463Y-122845506D01*
X128410498Y-122955820D01*
X128374188Y-123075518D01*
X128361928Y-123200000D01*
X128361928Y-126800000D01*
X128374188Y-126924482D01*
X128410498Y-127044180D01*
X128469463Y-127154494D01*
X128548815Y-127251185D01*
X128645506Y-127330537D01*
X128755820Y-127389502D01*
X128875518Y-127425812D01*
X129000000Y-127438072D01*
X131000000Y-127438072D01*
X131124482Y-127425812D01*
X131244180Y-127389502D01*
X131354494Y-127330537D01*
X131451185Y-127251185D01*
X131530537Y-127154494D01*
X131589502Y-127044180D01*
X131625812Y-126924482D01*
X131638072Y-126800000D01*
X131638072Y-123200000D01*
X131625812Y-123075518D01*
X131589502Y-122955820D01*
X131553503Y-122888472D01*
X131574000Y-122890491D01*
X131629751Y-122885000D01*
X131629752Y-122885000D01*
X131796499Y-122868577D01*
X132010447Y-122803676D01*
X132207623Y-122698284D01*
X132380449Y-122556449D01*
X132415996Y-122513135D01*
X133521140Y-121407992D01*
X133564449Y-121372449D01*
X133706284Y-121199623D01*
X133811676Y-121002447D01*
X133876577Y-120788499D01*
X133893000Y-120621752D01*
X133898491Y-120566000D01*
X133893000Y-120510248D01*
X133893000Y-118353132D01*
X134255000Y-118715132D01*
X134255000Y-118906033D01*
X134317832Y-119221912D01*
X134441082Y-119519463D01*
X134620013Y-119787252D01*
X134755000Y-119922239D01*
X134755001Y-122581219D01*
X134679484Y-122588657D01*
X134371285Y-122682148D01*
X134087248Y-122833969D01*
X133838286Y-123038286D01*
X133633969Y-123287249D01*
X133482148Y-123571286D01*
X133388657Y-123879485D01*
X133365000Y-124119679D01*
X133365000Y-125880322D01*
X133388658Y-126120516D01*
X133482149Y-126428715D01*
X133633970Y-126712752D01*
X133838287Y-126961714D01*
X134087249Y-127166031D01*
X134371286Y-127317852D01*
X134679485Y-127411343D01*
X135000000Y-127442911D01*
X135320516Y-127411343D01*
X135628715Y-127317852D01*
X135912752Y-127166031D01*
X136161714Y-126961714D01*
X136366031Y-126712752D01*
X136517852Y-126428715D01*
X136611343Y-126120516D01*
X136635000Y-125880322D01*
X136635000Y-124970132D01*
X136653140Y-124951992D01*
X136696449Y-124916449D01*
X136838284Y-124743623D01*
X136943676Y-124546447D01*
X137008577Y-124332499D01*
X137025000Y-124165752D01*
X137030491Y-124110001D01*
X137025000Y-124054249D01*
X137025000Y-119922239D01*
X137159987Y-119787252D01*
X137338918Y-119519463D01*
X137462168Y-119221912D01*
X137525000Y-118906033D01*
X137525000Y-118583967D01*
X137462168Y-118268088D01*
X137338918Y-117970537D01*
X137159987Y-117702748D01*
X136932252Y-117475013D01*
X136664463Y-117296082D01*
X136366912Y-117172832D01*
X136051033Y-117110000D01*
X135860132Y-117110000D01*
X133899001Y-115148870D01*
X133899001Y-114014039D01*
X140848096Y-114014039D01*
X140888754Y-114148087D01*
X141008963Y-114402420D01*
X141176481Y-114628414D01*
X141384869Y-114817385D01*
X141626119Y-114962070D01*
X141890960Y-115056909D01*
X142113000Y-114935624D01*
X142113000Y-113792000D01*
X142367000Y-113792000D01*
X142367000Y-114935624D01*
X142589040Y-115056909D01*
X142853881Y-114962070D01*
X143095131Y-114817385D01*
X143303519Y-114628414D01*
X143471037Y-114402420D01*
X143591246Y-114148087D01*
X143631904Y-114014039D01*
X143509915Y-113792000D01*
X142367000Y-113792000D01*
X142113000Y-113792000D01*
X140970085Y-113792000D01*
X140848096Y-114014039D01*
X133899001Y-114014039D01*
X133899001Y-113315961D01*
X140848096Y-113315961D01*
X140970085Y-113538000D01*
X142113000Y-113538000D01*
X142113000Y-112394376D01*
X142367000Y-112394376D01*
X142367000Y-113538000D01*
X143509915Y-113538000D01*
X143631904Y-113315961D01*
X143591246Y-113181913D01*
X143471037Y-112927580D01*
X143303519Y-112701586D01*
X143095131Y-112512615D01*
X142853881Y-112367930D01*
X142589040Y-112273091D01*
X142367000Y-112394376D01*
X142113000Y-112394376D01*
X141890960Y-112273091D01*
X141626119Y-112367930D01*
X141384869Y-112512615D01*
X141176481Y-112701586D01*
X141008963Y-112927580D01*
X140888754Y-113181913D01*
X140848096Y-113315961D01*
X133899001Y-113315961D01*
X133899001Y-107788967D01*
X134429000Y-107788967D01*
X134429000Y-108111033D01*
X134491832Y-108426912D01*
X134615082Y-108724463D01*
X134794013Y-108992252D01*
X135021748Y-109219987D01*
X135289537Y-109398918D01*
X135587088Y-109522168D01*
X135902967Y-109585000D01*
X136225033Y-109585000D01*
X136540912Y-109522168D01*
X136838463Y-109398918D01*
X137106252Y-109219987D01*
X137241239Y-109085000D01*
X137739249Y-109085000D01*
X137795000Y-109090491D01*
X137850751Y-109085000D01*
X137850752Y-109085000D01*
X138017499Y-109068577D01*
X138231447Y-109003676D01*
X138428623Y-108898284D01*
X138601449Y-108756449D01*
X138636996Y-108713135D01*
X142417282Y-104932850D01*
X142658574Y-104884853D01*
X142919727Y-104776680D01*
X143154759Y-104619637D01*
X143354637Y-104419759D01*
X143511680Y-104184727D01*
X143619853Y-103923574D01*
X143675000Y-103646335D01*
X143675000Y-103363665D01*
X143619853Y-103086426D01*
X143511680Y-102825273D01*
X143354637Y-102590241D01*
X143154759Y-102390363D01*
X142919727Y-102233320D01*
X142658574Y-102125147D01*
X142381335Y-102070000D01*
X142098665Y-102070000D01*
X141821426Y-102125147D01*
X141560273Y-102233320D01*
X141325241Y-102390363D01*
X141125363Y-102590241D01*
X140968320Y-102825273D01*
X140860147Y-103086426D01*
X140812150Y-103327718D01*
X137324869Y-106815000D01*
X137241239Y-106815000D01*
X137106252Y-106680013D01*
X136838463Y-106501082D01*
X136540912Y-106377832D01*
X136225033Y-106315000D01*
X135902967Y-106315000D01*
X135587088Y-106377832D01*
X135289537Y-106501082D01*
X135021748Y-106680013D01*
X134794013Y-106907748D01*
X134615082Y-107175537D01*
X134491832Y-107473088D01*
X134429000Y-107788967D01*
X133899001Y-107788967D01*
X133899001Y-103355752D01*
X133904492Y-103300001D01*
X133886989Y-103122283D01*
X133882578Y-103077502D01*
X133817677Y-102863554D01*
X133712285Y-102666378D01*
X133570450Y-102493552D01*
X133527142Y-102458010D01*
X129365996Y-98296865D01*
X129330449Y-98253551D01*
X129157623Y-98111716D01*
X128960447Y-98006324D01*
X128746499Y-97941423D01*
X128579752Y-97925000D01*
X128579751Y-97925000D01*
X128524000Y-97919509D01*
X128468249Y-97925000D01*
X126454132Y-97925000D01*
X112135000Y-83605869D01*
X112135000Y-76397103D01*
X112193552Y-76468449D01*
X112236860Y-76503991D01*
X112621886Y-76889017D01*
X112631764Y-76989309D01*
X112713818Y-77259808D01*
X112847068Y-77509101D01*
X113026392Y-77727608D01*
X113244899Y-77906932D01*
X113494192Y-78040182D01*
X113764691Y-78122236D01*
X113864983Y-78132114D01*
X114746009Y-79013140D01*
X114781551Y-79056449D01*
X114954377Y-79198284D01*
X115151553Y-79303676D01*
X115365501Y-79368577D01*
X115532248Y-79385000D01*
X115532257Y-79385000D01*
X115587999Y-79390490D01*
X115643741Y-79385000D01*
X120149869Y-79385000D01*
X121946796Y-81181928D01*
X121190000Y-81181928D01*
X121065518Y-81194188D01*
X120945820Y-81230498D01*
X120835506Y-81289463D01*
X120738815Y-81368815D01*
X120659463Y-81465506D01*
X120600498Y-81575820D01*
X120564188Y-81695518D01*
X120551928Y-81820000D01*
X120551928Y-85820000D01*
X120564188Y-85944482D01*
X120600498Y-86064180D01*
X120659463Y-86174494D01*
X120738815Y-86271185D01*
X120835506Y-86350537D01*
X120945820Y-86409502D01*
X121065518Y-86445812D01*
X121190000Y-86458072D01*
X125190000Y-86458072D01*
X125314482Y-86445812D01*
X125434180Y-86409502D01*
X125544494Y-86350537D01*
X125641185Y-86271185D01*
X125720537Y-86174494D01*
X125779502Y-86064180D01*
X125815812Y-85944482D01*
X125828072Y-85820000D01*
X125828072Y-85667499D01*
X131522106Y-85667499D01*
X131738228Y-86034258D01*
X132198105Y-86274938D01*
X132696098Y-86421275D01*
X133213071Y-86467648D01*
X133729159Y-86412273D01*
X134224526Y-86257279D01*
X134641772Y-86034258D01*
X134857894Y-85667499D01*
X133190000Y-83999605D01*
X131522106Y-85667499D01*
X125828072Y-85667499D01*
X125828072Y-83843071D01*
X130542352Y-83843071D01*
X130597727Y-84359159D01*
X130752721Y-84854526D01*
X130975742Y-85271772D01*
X131342501Y-85487894D01*
X133010395Y-83820000D01*
X133369605Y-83820000D01*
X135037499Y-85487894D01*
X135404258Y-85271772D01*
X135644938Y-84811895D01*
X135791275Y-84313902D01*
X135837648Y-83796929D01*
X135782273Y-83280841D01*
X135627279Y-82785474D01*
X135404258Y-82368228D01*
X135037499Y-82152106D01*
X133369605Y-83820000D01*
X133010395Y-83820000D01*
X131342501Y-82152106D01*
X130975742Y-82368228D01*
X130735062Y-82828105D01*
X130588725Y-83326098D01*
X130542352Y-83843071D01*
X125828072Y-83843071D01*
X125828072Y-81972501D01*
X131522106Y-81972501D01*
X133190000Y-83640395D01*
X134857894Y-81972501D01*
X134641772Y-81605742D01*
X134181895Y-81365062D01*
X133683902Y-81218725D01*
X133166929Y-81172352D01*
X132650841Y-81227727D01*
X132155474Y-81382721D01*
X131738228Y-81605742D01*
X131522106Y-81972501D01*
X125828072Y-81972501D01*
X125828072Y-81820000D01*
X125815812Y-81695518D01*
X125779502Y-81575820D01*
X125720537Y-81465506D01*
X125641185Y-81368815D01*
X125544494Y-81289463D01*
X125434180Y-81230498D01*
X125314482Y-81194188D01*
X125190000Y-81181928D01*
X124325000Y-81181928D01*
X124325000Y-80875752D01*
X124330491Y-80820000D01*
X124308577Y-80597501D01*
X124243676Y-80383553D01*
X124138284Y-80186377D01*
X123996449Y-80013551D01*
X123953141Y-79978009D01*
X122358131Y-78383000D01*
X127843141Y-72897991D01*
X127886449Y-72862449D01*
X128028284Y-72689623D01*
X128133676Y-72492447D01*
X128198577Y-72278499D01*
X128215000Y-72111752D01*
X128215000Y-72111751D01*
X128220491Y-72056000D01*
X128215000Y-72000248D01*
X128215000Y-66753637D01*
X128241714Y-66731714D01*
X128374428Y-66570000D01*
X130441928Y-66570000D01*
X130454188Y-66694482D01*
X130490498Y-66814180D01*
X130549463Y-66924494D01*
X130628815Y-67021185D01*
X130725506Y-67100537D01*
X130835820Y-67159502D01*
X130955518Y-67195812D01*
X131080000Y-67208072D01*
X131794250Y-67205000D01*
X131953000Y-67046250D01*
X131953000Y-64897000D01*
X132207000Y-64897000D01*
X132207000Y-67046250D01*
X132365750Y-67205000D01*
X133080000Y-67208072D01*
X133204482Y-67195812D01*
X133324180Y-67159502D01*
X133434494Y-67100537D01*
X133531185Y-67021185D01*
X133610537Y-66924494D01*
X133669502Y-66814180D01*
X133705812Y-66694482D01*
X133718072Y-66570000D01*
X133715000Y-65055750D01*
X133556250Y-64897000D01*
X132207000Y-64897000D01*
X131953000Y-64897000D01*
X130603750Y-64897000D01*
X130445000Y-65055750D01*
X130441928Y-66570000D01*
X128374428Y-66570000D01*
X128446031Y-66482752D01*
X128597852Y-66198715D01*
X128691343Y-65890516D01*
X128715000Y-65650322D01*
X128715000Y-63889678D01*
X128691343Y-63649484D01*
X128597852Y-63341285D01*
X128446031Y-63057248D01*
X128374429Y-62970000D01*
X130441928Y-62970000D01*
X130445000Y-64484250D01*
X130603750Y-64643000D01*
X131953000Y-64643000D01*
X131953000Y-62493750D01*
X132207000Y-62493750D01*
X132207000Y-64643000D01*
X133556250Y-64643000D01*
X133715000Y-64484250D01*
X133718072Y-62970000D01*
X133705812Y-62845518D01*
X133688887Y-62789721D01*
X139865000Y-62789721D01*
X139865000Y-63210279D01*
X139947047Y-63622756D01*
X140107988Y-64011302D01*
X140341637Y-64360983D01*
X140639017Y-64658363D01*
X140988698Y-64892012D01*
X141377244Y-65052953D01*
X141789721Y-65135000D01*
X142210279Y-65135000D01*
X142622756Y-65052953D01*
X143011302Y-64892012D01*
X143360983Y-64658363D01*
X143658363Y-64360983D01*
X143892012Y-64011302D01*
X144052953Y-63622756D01*
X144135000Y-63210279D01*
X144135000Y-62789721D01*
X144052953Y-62377244D01*
X143892012Y-61988698D01*
X143658363Y-61639017D01*
X143360983Y-61341637D01*
X143011302Y-61107988D01*
X142622756Y-60947047D01*
X142210279Y-60865000D01*
X141789721Y-60865000D01*
X141377244Y-60947047D01*
X140988698Y-61107988D01*
X140639017Y-61341637D01*
X140341637Y-61639017D01*
X140107988Y-61988698D01*
X139947047Y-62377244D01*
X139865000Y-62789721D01*
X133688887Y-62789721D01*
X133669502Y-62725820D01*
X133610537Y-62615506D01*
X133531185Y-62518815D01*
X133434494Y-62439463D01*
X133324180Y-62380498D01*
X133204482Y-62344188D01*
X133080000Y-62331928D01*
X132365750Y-62335000D01*
X132207000Y-62493750D01*
X131953000Y-62493750D01*
X131794250Y-62335000D01*
X131080000Y-62331928D01*
X130955518Y-62344188D01*
X130835820Y-62380498D01*
X130725506Y-62439463D01*
X130628815Y-62518815D01*
X130549463Y-62615506D01*
X130490498Y-62725820D01*
X130454188Y-62845518D01*
X130441928Y-62970000D01*
X128374429Y-62970000D01*
X128241714Y-62808286D01*
X127992752Y-62603969D01*
X127708715Y-62452148D01*
X127400516Y-62358657D01*
X127080000Y-62327089D01*
X126759485Y-62358657D01*
X126451286Y-62452148D01*
X126167249Y-62603969D01*
X125918287Y-62808286D01*
X125713970Y-63057248D01*
X125562149Y-63341285D01*
X125468658Y-63649484D01*
X125445000Y-63889678D01*
X125445000Y-65650321D01*
X125468657Y-65890515D01*
X125562148Y-66198714D01*
X125713969Y-66482751D01*
X125918286Y-66731714D01*
X125945001Y-66753638D01*
X125945000Y-71585868D01*
X120415869Y-77115000D01*
X116058132Y-77115000D01*
X115470114Y-76526983D01*
X115460236Y-76426691D01*
X115378182Y-76156192D01*
X115244932Y-75906899D01*
X115065608Y-75688392D01*
X114847101Y-75509068D01*
X114597808Y-75375818D01*
X114327309Y-75293764D01*
X114227017Y-75283886D01*
X114135000Y-75191869D01*
X114135000Y-73141884D01*
X114250569Y-73026315D01*
X114426763Y-72762621D01*
X114548129Y-72469620D01*
X114610000Y-72158571D01*
X114610000Y-71841429D01*
X114548129Y-71530380D01*
X114426763Y-71237379D01*
X114250569Y-70973685D01*
X114026315Y-70749431D01*
X113762621Y-70573237D01*
X113469620Y-70451871D01*
X113158571Y-70390000D01*
X112841429Y-70390000D01*
X112552536Y-70447464D01*
X112610000Y-70158571D01*
X112610000Y-69841429D01*
X112548129Y-69530380D01*
X112426763Y-69237379D01*
X112250569Y-68973685D01*
X112026315Y-68749431D01*
X111762621Y-68573237D01*
X111469620Y-68451871D01*
X111158571Y-68390000D01*
X110841429Y-68390000D01*
X110530380Y-68451871D01*
X110237379Y-68573237D01*
X109973685Y-68749431D01*
X109749431Y-68973685D01*
X109573237Y-69237379D01*
X109451871Y-69530380D01*
X109390000Y-69841429D01*
X109390000Y-70158571D01*
X109447464Y-70447464D01*
X109158571Y-70390000D01*
X108841429Y-70390000D01*
X108546855Y-70448594D01*
X108597883Y-70253010D01*
X108616540Y-69936416D01*
X108573074Y-69622267D01*
X108469156Y-69322633D01*
X108379429Y-69154766D01*
X108117584Y-69062021D01*
X107179605Y-70000000D01*
X107193748Y-70014143D01*
X107014143Y-70193748D01*
X107000000Y-70179605D01*
X105179605Y-72000000D01*
X106117584Y-72937979D01*
X106379429Y-72845234D01*
X106517820Y-72559880D01*
X106597883Y-72253010D01*
X106616540Y-71936416D01*
X106573074Y-71622267D01*
X106546473Y-71545568D01*
X106746990Y-71597883D01*
X107063584Y-71616540D01*
X107377733Y-71573074D01*
X107448243Y-71548620D01*
X107390000Y-71841429D01*
X107390000Y-72158571D01*
X107451871Y-72469620D01*
X107573237Y-72762621D01*
X107749431Y-73026315D01*
X107865001Y-73141885D01*
X107865000Y-84179248D01*
X107859509Y-84235000D01*
X107865000Y-84290751D01*
X107878669Y-84429538D01*
X104135000Y-80685869D01*
X104135000Y-73323624D01*
X104154766Y-73379429D01*
X104440120Y-73517820D01*
X104746990Y-73597883D01*
X105063584Y-73616540D01*
X105377733Y-73573074D01*
X105677367Y-73469156D01*
X105845234Y-73379429D01*
X105937979Y-73117584D01*
X105000000Y-72179605D01*
X104985858Y-72193748D01*
X104806253Y-72014143D01*
X104820395Y-72000000D01*
X104806253Y-71985858D01*
X104985858Y-71806253D01*
X105000000Y-71820395D01*
X106820395Y-70000000D01*
X105882416Y-69062021D01*
X105620571Y-69154766D01*
X105482180Y-69440120D01*
X105402117Y-69746990D01*
X105383460Y-70063584D01*
X105426926Y-70377733D01*
X105453527Y-70454432D01*
X105253010Y-70402117D01*
X104936416Y-70383460D01*
X104622267Y-70426926D01*
X104551757Y-70451380D01*
X104610000Y-70158571D01*
X104610000Y-69841429D01*
X104548129Y-69530380D01*
X104426763Y-69237379D01*
X104250569Y-68973685D01*
X104159300Y-68882416D01*
X106062021Y-68882416D01*
X107000000Y-69820395D01*
X107937979Y-68882416D01*
X107845234Y-68620571D01*
X107559880Y-68482180D01*
X107253010Y-68402117D01*
X106936416Y-68383460D01*
X106622267Y-68426926D01*
X106322633Y-68530844D01*
X106154766Y-68620571D01*
X106062021Y-68882416D01*
X104159300Y-68882416D01*
X104026315Y-68749431D01*
X103762621Y-68573237D01*
X103469620Y-68451871D01*
X103158571Y-68390000D01*
X102841429Y-68390000D01*
X102530380Y-68451871D01*
X102237379Y-68573237D01*
X101973685Y-68749431D01*
X101749431Y-68973685D01*
X101573237Y-69237379D01*
X101451871Y-69530380D01*
X101390000Y-69841429D01*
X101390000Y-70158571D01*
X101447464Y-70447464D01*
X101158571Y-70390000D01*
X100841429Y-70390000D01*
X100552536Y-70447464D01*
X100610000Y-70158571D01*
X100610000Y-69841429D01*
X100548129Y-69530380D01*
X100426763Y-69237379D01*
X100250569Y-68973685D01*
X100026315Y-68749431D01*
X99762621Y-68573237D01*
X99469620Y-68451871D01*
X99158571Y-68390000D01*
X98841429Y-68390000D01*
X98530380Y-68451871D01*
X98237379Y-68573237D01*
X97973685Y-68749431D01*
X97749431Y-68973685D01*
X97573237Y-69237379D01*
X97451871Y-69530380D01*
X97390000Y-69841429D01*
X97390000Y-70004868D01*
X97004869Y-70390000D01*
X96841429Y-70390000D01*
X96552536Y-70447464D01*
X96610000Y-70158571D01*
X96610000Y-69841429D01*
X96548129Y-69530380D01*
X96426763Y-69237379D01*
X96250569Y-68973685D01*
X96026315Y-68749431D01*
X95762621Y-68573237D01*
X95469620Y-68451871D01*
X95158571Y-68390000D01*
X94841429Y-68390000D01*
X94530380Y-68451871D01*
X94237379Y-68573237D01*
X93973685Y-68749431D01*
X93749431Y-68973685D01*
X93573237Y-69237379D01*
X93451871Y-69530380D01*
X93390000Y-69841429D01*
X93390000Y-70158571D01*
X93447464Y-70447464D01*
X93158571Y-70390000D01*
X92841429Y-70390000D01*
X92552536Y-70447464D01*
X92610000Y-70158571D01*
X92610000Y-69841429D01*
X92548129Y-69530380D01*
X92426763Y-69237379D01*
X92250569Y-68973685D01*
X92026315Y-68749431D01*
X91762621Y-68573237D01*
X91469620Y-68451871D01*
X91158571Y-68390000D01*
X90841429Y-68390000D01*
X90530380Y-68451871D01*
X90237379Y-68573237D01*
X89973685Y-68749431D01*
X89749431Y-68973685D01*
X89573237Y-69237379D01*
X89451871Y-69530380D01*
X89390000Y-69841429D01*
X89390000Y-70158571D01*
X89448594Y-70453145D01*
X89253010Y-70402117D01*
X88936416Y-70383460D01*
X88622267Y-70426926D01*
X88551757Y-70451380D01*
X88610000Y-70158571D01*
X88610000Y-69841429D01*
X88548129Y-69530380D01*
X88426763Y-69237379D01*
X88250569Y-68973685D01*
X88026315Y-68749431D01*
X87762621Y-68573237D01*
X87469620Y-68451871D01*
X87158571Y-68390000D01*
X86841429Y-68390000D01*
X86530380Y-68451871D01*
X86237379Y-68573237D01*
X85973685Y-68749431D01*
X85749431Y-68973685D01*
X85573237Y-69237379D01*
X85451871Y-69530380D01*
X85390000Y-69841429D01*
X85390000Y-70158571D01*
X85447464Y-70447464D01*
X85158571Y-70390000D01*
X84841429Y-70390000D01*
X84552536Y-70447464D01*
X84610000Y-70158571D01*
X84610000Y-69841429D01*
X84548129Y-69530380D01*
X84426763Y-69237379D01*
X84250569Y-68973685D01*
X84026315Y-68749431D01*
X83762621Y-68573237D01*
X83469620Y-68451871D01*
X83158571Y-68390000D01*
X82841429Y-68390000D01*
X82530380Y-68451871D01*
X82237379Y-68573237D01*
X81973685Y-68749431D01*
X81749431Y-68973685D01*
X81573237Y-69237379D01*
X81451871Y-69530380D01*
X81390000Y-69841429D01*
X81390000Y-70158571D01*
X81447464Y-70447464D01*
X81158571Y-70390000D01*
X80841429Y-70390000D01*
X80530380Y-70451871D01*
X80237379Y-70573237D01*
X79973685Y-70749431D01*
X79749431Y-70973685D01*
X79573237Y-71237379D01*
X79451871Y-71530380D01*
X79390000Y-71841429D01*
X79390000Y-72158571D01*
X79451871Y-72469620D01*
X79573237Y-72762621D01*
X79749431Y-73026315D01*
X79838116Y-73115000D01*
X74555752Y-73115000D01*
X74500000Y-73109509D01*
X74277501Y-73131423D01*
X74063553Y-73196324D01*
X73866377Y-73301716D01*
X73736856Y-73408011D01*
X73736854Y-73408013D01*
X73693551Y-73443551D01*
X73658013Y-73486855D01*
X72736864Y-74408005D01*
X72693551Y-74443551D01*
X72551716Y-74616377D01*
X72466549Y-74775716D01*
X72446324Y-74813554D01*
X72381423Y-75027502D01*
X72359509Y-75250000D01*
X70710000Y-75250000D01*
X70710000Y-62789721D01*
X70865000Y-62789721D01*
X70865000Y-63210279D01*
X70947047Y-63622756D01*
X71107988Y-64011302D01*
X71341637Y-64360983D01*
X71639017Y-64658363D01*
X71988698Y-64892012D01*
X72377244Y-65052953D01*
X72789721Y-65135000D01*
X73210279Y-65135000D01*
X73622756Y-65052953D01*
X74011302Y-64892012D01*
X74360983Y-64658363D01*
X74527693Y-64491653D01*
X87937952Y-64491653D01*
X88093962Y-64807214D01*
X88468745Y-64998020D01*
X88873551Y-65112044D01*
X89292824Y-65144902D01*
X89710451Y-65095334D01*
X90110383Y-64965243D01*
X90406038Y-64807214D01*
X90562048Y-64491653D01*
X103437952Y-64491653D01*
X103593962Y-64807214D01*
X103968745Y-64998020D01*
X104373551Y-65112044D01*
X104792824Y-65144902D01*
X105210451Y-65095334D01*
X105610383Y-64965243D01*
X105906038Y-64807214D01*
X106062048Y-64491653D01*
X104750000Y-63179605D01*
X103437952Y-64491653D01*
X90562048Y-64491653D01*
X89250000Y-63179605D01*
X87937952Y-64491653D01*
X74527693Y-64491653D01*
X74658363Y-64360983D01*
X74892012Y-64011302D01*
X75052953Y-63622756D01*
X75135000Y-63210279D01*
X75135000Y-63042824D01*
X87105098Y-63042824D01*
X87154666Y-63460451D01*
X87284757Y-63860383D01*
X87442786Y-64156038D01*
X87758347Y-64312048D01*
X89070395Y-63000000D01*
X89429605Y-63000000D01*
X90741653Y-64312048D01*
X91057214Y-64156038D01*
X91248020Y-63781255D01*
X91362044Y-63376449D01*
X91388189Y-63042824D01*
X102605098Y-63042824D01*
X102654666Y-63460451D01*
X102784757Y-63860383D01*
X102942786Y-64156038D01*
X103258347Y-64312048D01*
X104570395Y-63000000D01*
X104929605Y-63000000D01*
X106241653Y-64312048D01*
X106557214Y-64156038D01*
X106748020Y-63781255D01*
X106862044Y-63376449D01*
X106894902Y-62957176D01*
X106845334Y-62539549D01*
X106715243Y-62139617D01*
X106557214Y-61843962D01*
X106241653Y-61687952D01*
X104929605Y-63000000D01*
X104570395Y-63000000D01*
X103258347Y-61687952D01*
X102942786Y-61843962D01*
X102751980Y-62218745D01*
X102637956Y-62623551D01*
X102605098Y-63042824D01*
X91388189Y-63042824D01*
X91394902Y-62957176D01*
X91345334Y-62539549D01*
X91215243Y-62139617D01*
X91057214Y-61843962D01*
X90741653Y-61687952D01*
X89429605Y-63000000D01*
X89070395Y-63000000D01*
X87758347Y-61687952D01*
X87442786Y-61843962D01*
X87251980Y-62218745D01*
X87137956Y-62623551D01*
X87105098Y-63042824D01*
X75135000Y-63042824D01*
X75135000Y-62789721D01*
X75052953Y-62377244D01*
X74892012Y-61988698D01*
X74658363Y-61639017D01*
X74527693Y-61508347D01*
X87937952Y-61508347D01*
X89250000Y-62820395D01*
X90562048Y-61508347D01*
X103437952Y-61508347D01*
X104750000Y-62820395D01*
X106062048Y-61508347D01*
X105906038Y-61192786D01*
X105531255Y-61001980D01*
X105126449Y-60887956D01*
X104707176Y-60855098D01*
X104289549Y-60904666D01*
X103889617Y-61034757D01*
X103593962Y-61192786D01*
X103437952Y-61508347D01*
X90562048Y-61508347D01*
X90406038Y-61192786D01*
X90031255Y-61001980D01*
X89626449Y-60887956D01*
X89207176Y-60855098D01*
X88789549Y-60904666D01*
X88389617Y-61034757D01*
X88093962Y-61192786D01*
X87937952Y-61508347D01*
X74527693Y-61508347D01*
X74360983Y-61341637D01*
X74011302Y-61107988D01*
X73622756Y-60947047D01*
X73210279Y-60865000D01*
X72789721Y-60865000D01*
X72377244Y-60947047D01*
X71988698Y-61107988D01*
X71639017Y-61341637D01*
X71341637Y-61639017D01*
X71107988Y-61988698D01*
X70947047Y-62377244D01*
X70865000Y-62789721D01*
X70710000Y-62789721D01*
X70710000Y-60710000D01*
X144290001Y-60710000D01*
X144290000Y-134290000D01*
X144290000Y-134290000D01*
G37*
X144290000Y-134290000D02*
X70710000Y-134290000D01*
X70710000Y-131789721D01*
X70865000Y-131789721D01*
X70865000Y-132210279D01*
X70947047Y-132622756D01*
X71107988Y-133011302D01*
X71341637Y-133360983D01*
X71639017Y-133658363D01*
X71988698Y-133892012D01*
X72377244Y-134052953D01*
X72789721Y-134135000D01*
X73210279Y-134135000D01*
X73622756Y-134052953D01*
X74011302Y-133892012D01*
X74360983Y-133658363D01*
X74658363Y-133360983D01*
X74892012Y-133011302D01*
X75052953Y-132622756D01*
X75135000Y-132210279D01*
X75135000Y-131789721D01*
X139865000Y-131789721D01*
X139865000Y-132210279D01*
X139947047Y-132622756D01*
X140107988Y-133011302D01*
X140341637Y-133360983D01*
X140639017Y-133658363D01*
X140988698Y-133892012D01*
X141377244Y-134052953D01*
X141789721Y-134135000D01*
X142210279Y-134135000D01*
X142622756Y-134052953D01*
X143011302Y-133892012D01*
X143360983Y-133658363D01*
X143658363Y-133360983D01*
X143892012Y-133011302D01*
X144052953Y-132622756D01*
X144135000Y-132210279D01*
X144135000Y-131789721D01*
X144052953Y-131377244D01*
X143892012Y-130988698D01*
X143658363Y-130639017D01*
X143360983Y-130341637D01*
X143011302Y-130107988D01*
X142622756Y-129947047D01*
X142210279Y-129865000D01*
X141789721Y-129865000D01*
X141377244Y-129947047D01*
X140988698Y-130107988D01*
X140639017Y-130341637D01*
X140341637Y-130639017D01*
X140107988Y-130988698D01*
X139947047Y-131377244D01*
X139865000Y-131789721D01*
X75135000Y-131789721D01*
X75052953Y-131377244D01*
X74892012Y-130988698D01*
X74658363Y-130639017D01*
X74360983Y-130341637D01*
X74011302Y-130107988D01*
X73622756Y-129947047D01*
X73210279Y-129865000D01*
X72789721Y-129865000D01*
X72377244Y-129947047D01*
X71988698Y-130107988D01*
X71639017Y-130341637D01*
X71341637Y-130639017D01*
X71107988Y-130988698D01*
X70947047Y-131377244D01*
X70865000Y-131789721D01*
X70710000Y-131789721D01*
X70710000Y-126061763D01*
X71224200Y-126061763D01*
X71224200Y-126305037D01*
X71271660Y-126543636D01*
X71364757Y-126768392D01*
X71499913Y-126970667D01*
X71671933Y-127142687D01*
X71874208Y-127277843D01*
X72098964Y-127370940D01*
X72337563Y-127418400D01*
X72580837Y-127418400D01*
X72819436Y-127370940D01*
X73044192Y-127277843D01*
X73246467Y-127142687D01*
X73418487Y-126970667D01*
X73553643Y-126768392D01*
X73646740Y-126543636D01*
X73694200Y-126305037D01*
X73694200Y-126061763D01*
X73724200Y-126061763D01*
X73724200Y-126305037D01*
X73771660Y-126543636D01*
X73864757Y-126768392D01*
X73999913Y-126970667D01*
X74171933Y-127142687D01*
X74374208Y-127277843D01*
X74598964Y-127370940D01*
X74837563Y-127418400D01*
X75080837Y-127418400D01*
X75319436Y-127370940D01*
X75544192Y-127277843D01*
X75746467Y-127142687D01*
X75918487Y-126970667D01*
X76053643Y-126768392D01*
X76146740Y-126543636D01*
X76194200Y-126305037D01*
X76194200Y-126061763D01*
X76146740Y-125823164D01*
X76053643Y-125598408D01*
X75918487Y-125396133D01*
X75746467Y-125224113D01*
X75544192Y-125088957D01*
X75319436Y-124995860D01*
X75080837Y-124948400D01*
X74837563Y-124948400D01*
X74598964Y-124995860D01*
X74374208Y-125088957D01*
X74171933Y-125224113D01*
X73999913Y-125396133D01*
X73864757Y-125598408D01*
X73771660Y-125823164D01*
X73724200Y-126061763D01*
X73694200Y-126061763D01*
X73646740Y-125823164D01*
X73553643Y-125598408D01*
X73418487Y-125396133D01*
X73246467Y-125224113D01*
X73044192Y-125088957D01*
X72819436Y-124995860D01*
X72580837Y-124948400D01*
X72337563Y-124948400D01*
X72098964Y-124995860D01*
X71874208Y-125088957D01*
X71671933Y-125224113D01*
X71499913Y-125396133D01*
X71364757Y-125598408D01*
X71271660Y-125823164D01*
X71224200Y-126061763D01*
X70710000Y-126061763D01*
X70710000Y-122433400D01*
X73421128Y-122433400D01*
X73433388Y-122557882D01*
X73469698Y-122677580D01*
X73528663Y-122787894D01*
X73608015Y-122884585D01*
X73704706Y-122963937D01*
X73815020Y-123022902D01*
X73934718Y-123059212D01*
X74059200Y-123071472D01*
X74673450Y-123068400D01*
X74832200Y-122909650D01*
X74832200Y-121310400D01*
X75086200Y-121310400D01*
X75086200Y-122909650D01*
X75244950Y-123068400D01*
X75859200Y-123071472D01*
X75983682Y-123059212D01*
X76103380Y-123022902D01*
X76213694Y-122963937D01*
X76310385Y-122884585D01*
X76389737Y-122787894D01*
X76448702Y-122677580D01*
X76485012Y-122557882D01*
X76497272Y-122433400D01*
X76494200Y-121469150D01*
X76335450Y-121310400D01*
X75086200Y-121310400D01*
X74832200Y-121310400D01*
X73582950Y-121310400D01*
X73424200Y-121469150D01*
X73421128Y-122433400D01*
X70710000Y-122433400D01*
X70710000Y-119933400D01*
X73421128Y-119933400D01*
X73424200Y-120897650D01*
X73582950Y-121056400D01*
X74832200Y-121056400D01*
X74832200Y-119457150D01*
X75086200Y-119457150D01*
X75086200Y-121056400D01*
X76335450Y-121056400D01*
X76494200Y-120897650D01*
X76497272Y-119933400D01*
X76485012Y-119808918D01*
X76448702Y-119689220D01*
X76389737Y-119578906D01*
X76310385Y-119482215D01*
X76213694Y-119402863D01*
X76103380Y-119343898D01*
X75983682Y-119307588D01*
X75859200Y-119295328D01*
X75244950Y-119298400D01*
X75086200Y-119457150D01*
X74832200Y-119457150D01*
X74673450Y-119298400D01*
X74059200Y-119295328D01*
X73934718Y-119307588D01*
X73815020Y-119343898D01*
X73704706Y-119402863D01*
X73608015Y-119482215D01*
X73528663Y-119578906D01*
X73469698Y-119689220D01*
X73433388Y-119808918D01*
X73421128Y-119933400D01*
X70710000Y-119933400D01*
X70710000Y-116061763D01*
X71224200Y-116061763D01*
X71224200Y-116305037D01*
X71271660Y-116543636D01*
X71364757Y-116768392D01*
X71499913Y-116970667D01*
X71671933Y-117142687D01*
X71874208Y-117277843D01*
X72098964Y-117370940D01*
X72337563Y-117418400D01*
X72580837Y-117418400D01*
X72819436Y-117370940D01*
X73044192Y-117277843D01*
X73246467Y-117142687D01*
X73418487Y-116970667D01*
X73553643Y-116768392D01*
X73646740Y-116543636D01*
X73694200Y-116305037D01*
X73694200Y-116061763D01*
X73724200Y-116061763D01*
X73724200Y-116305037D01*
X73771660Y-116543636D01*
X73864757Y-116768392D01*
X73999913Y-116970667D01*
X74171933Y-117142687D01*
X74374208Y-117277843D01*
X74598964Y-117370940D01*
X74837563Y-117418400D01*
X75080837Y-117418400D01*
X75319436Y-117370940D01*
X75544192Y-117277843D01*
X75746467Y-117142687D01*
X75918487Y-116970667D01*
X76053643Y-116768392D01*
X76146740Y-116543636D01*
X76194200Y-116305037D01*
X76194200Y-116061763D01*
X76146740Y-115823164D01*
X76053643Y-115598408D01*
X75918487Y-115396133D01*
X75805754Y-115283400D01*
X78071128Y-115283400D01*
X78071128Y-117083400D01*
X78083388Y-117207882D01*
X78119698Y-117327580D01*
X78176261Y-117433400D01*
X78119698Y-117539220D01*
X78083388Y-117658918D01*
X78071128Y-117783400D01*
X78071128Y-119583400D01*
X78083388Y-119707882D01*
X78119698Y-119827580D01*
X78178663Y-119937894D01*
X78258015Y-120034585D01*
X78354706Y-120113937D01*
X78465020Y-120172902D01*
X78584718Y-120209212D01*
X78709200Y-120221472D01*
X79175886Y-120221472D01*
X79171933Y-120224113D01*
X78999913Y-120396133D01*
X78864757Y-120598408D01*
X78771660Y-120823164D01*
X78724200Y-121061763D01*
X78724200Y-121305037D01*
X78771660Y-121543636D01*
X78864757Y-121768392D01*
X78999913Y-121970667D01*
X79171933Y-122142687D01*
X79175886Y-122145328D01*
X78709200Y-122145328D01*
X78584718Y-122157588D01*
X78465020Y-122193898D01*
X78354706Y-122252863D01*
X78258015Y-122332215D01*
X78178663Y-122428906D01*
X78119698Y-122539220D01*
X78083388Y-122658918D01*
X78071128Y-122783400D01*
X78071128Y-124583400D01*
X78083388Y-124707882D01*
X78119698Y-124827580D01*
X78176261Y-124933400D01*
X78119698Y-125039220D01*
X78083388Y-125158918D01*
X78071128Y-125283400D01*
X78071128Y-127083400D01*
X78083388Y-127207882D01*
X78119698Y-127327580D01*
X78178663Y-127437894D01*
X78258015Y-127534585D01*
X78354706Y-127613937D01*
X78465020Y-127672902D01*
X78584718Y-127709212D01*
X78709200Y-127721472D01*
X81209200Y-127721472D01*
X81333682Y-127709212D01*
X81453380Y-127672902D01*
X81563694Y-127613937D01*
X81660385Y-127534585D01*
X81739737Y-127437894D01*
X81798702Y-127327580D01*
X81835012Y-127207882D01*
X81847272Y-127083400D01*
X81847272Y-126478602D01*
X89601003Y-126478602D01*
X89717275Y-126760389D01*
X90035860Y-126918257D01*
X90379122Y-127010938D01*
X90733869Y-127034873D01*
X91086470Y-126989139D01*
X91423373Y-126875495D01*
X91638725Y-126760389D01*
X91754997Y-126478602D01*
X90678000Y-125401605D01*
X89601003Y-126478602D01*
X81847272Y-126478602D01*
X81847272Y-125283400D01*
X81846728Y-125277869D01*
X88865127Y-125277869D01*
X88910861Y-125630470D01*
X89024505Y-125967373D01*
X89139611Y-126182725D01*
X89421398Y-126298997D01*
X90498395Y-125222000D01*
X90857605Y-125222000D01*
X91934602Y-126298997D01*
X92216389Y-126182725D01*
X92374257Y-125864140D01*
X92466938Y-125520878D01*
X92490873Y-125166131D01*
X92445139Y-124813530D01*
X92331495Y-124476627D01*
X92216389Y-124261275D01*
X91934602Y-124145003D01*
X90857605Y-125222000D01*
X90498395Y-125222000D01*
X89421398Y-124145003D01*
X89139611Y-124261275D01*
X88981743Y-124579860D01*
X88889062Y-124923122D01*
X88865127Y-125277869D01*
X81846728Y-125277869D01*
X81835012Y-125158918D01*
X81798702Y-125039220D01*
X81742139Y-124933400D01*
X81798702Y-124827580D01*
X81835012Y-124707882D01*
X81847272Y-124583400D01*
X81847272Y-123965398D01*
X89601003Y-123965398D01*
X90678000Y-125042395D01*
X91754997Y-123965398D01*
X91638725Y-123683611D01*
X91320140Y-123525743D01*
X90976878Y-123433062D01*
X90622131Y-123409127D01*
X90269530Y-123454861D01*
X89932627Y-123568505D01*
X89717275Y-123683611D01*
X89601003Y-123965398D01*
X81847272Y-123965398D01*
X81847272Y-122783400D01*
X81835012Y-122658918D01*
X81798702Y-122539220D01*
X81739737Y-122428906D01*
X81660385Y-122332215D01*
X81563694Y-122252863D01*
X81453380Y-122193898D01*
X81333682Y-122157588D01*
X81209200Y-122145328D01*
X80742514Y-122145328D01*
X80746467Y-122142687D01*
X80918487Y-121970667D01*
X81053643Y-121768392D01*
X81146740Y-121543636D01*
X81159675Y-121478602D01*
X89601003Y-121478602D01*
X89717275Y-121760389D01*
X90035860Y-121918257D01*
X90379122Y-122010938D01*
X90733869Y-122034873D01*
X91086470Y-121989139D01*
X91423373Y-121875495D01*
X91638725Y-121760389D01*
X91754997Y-121478602D01*
X90678000Y-120401605D01*
X89601003Y-121478602D01*
X81159675Y-121478602D01*
X81194200Y-121305037D01*
X81194200Y-121061763D01*
X81146740Y-120823164D01*
X81053643Y-120598408D01*
X80918487Y-120396133D01*
X80800223Y-120277869D01*
X88865127Y-120277869D01*
X88910861Y-120630470D01*
X89024505Y-120967373D01*
X89139611Y-121182725D01*
X89421398Y-121298997D01*
X90498395Y-120222000D01*
X89421398Y-119145003D01*
X89139611Y-119261275D01*
X88981743Y-119579860D01*
X88889062Y-119923122D01*
X88865127Y-120277869D01*
X80800223Y-120277869D01*
X80746467Y-120224113D01*
X80742514Y-120221472D01*
X81209200Y-120221472D01*
X81333682Y-120209212D01*
X81453380Y-120172902D01*
X81563694Y-120113937D01*
X81660385Y-120034585D01*
X81739737Y-119937894D01*
X81798702Y-119827580D01*
X81835012Y-119707882D01*
X81847272Y-119583400D01*
X81847272Y-117783400D01*
X81835012Y-117658918D01*
X81798702Y-117539220D01*
X81742139Y-117433400D01*
X81798702Y-117327580D01*
X81835012Y-117207882D01*
X81847272Y-117083400D01*
X81847272Y-115283400D01*
X81835012Y-115158918D01*
X81798702Y-115039220D01*
X81739737Y-114928906D01*
X81660385Y-114832215D01*
X81563694Y-114752863D01*
X81453380Y-114693898D01*
X81333682Y-114657588D01*
X81209200Y-114645328D01*
X78709200Y-114645328D01*
X78584718Y-114657588D01*
X78465020Y-114693898D01*
X78354706Y-114752863D01*
X78258015Y-114832215D01*
X78178663Y-114928906D01*
X78119698Y-115039220D01*
X78083388Y-115158918D01*
X78071128Y-115283400D01*
X75805754Y-115283400D01*
X75746467Y-115224113D01*
X75544192Y-115088957D01*
X75319436Y-114995860D01*
X75080837Y-114948400D01*
X74837563Y-114948400D01*
X74598964Y-114995860D01*
X74374208Y-115088957D01*
X74171933Y-115224113D01*
X73999913Y-115396133D01*
X73864757Y-115598408D01*
X73771660Y-115823164D01*
X73724200Y-116061763D01*
X73694200Y-116061763D01*
X73646740Y-115823164D01*
X73553643Y-115598408D01*
X73418487Y-115396133D01*
X73246467Y-115224113D01*
X73044192Y-115088957D01*
X72819436Y-114995860D01*
X72580837Y-114948400D01*
X72337563Y-114948400D01*
X72098964Y-114995860D01*
X71874208Y-115088957D01*
X71671933Y-115224113D01*
X71499913Y-115396133D01*
X71364757Y-115598408D01*
X71271660Y-115823164D01*
X71224200Y-116061763D01*
X70710000Y-116061763D01*
X70710000Y-112106967D01*
X74365000Y-112106967D01*
X74365000Y-112429033D01*
X74427832Y-112744912D01*
X74551082Y-113042463D01*
X74730013Y-113310252D01*
X74957748Y-113537987D01*
X75225537Y-113716918D01*
X75523088Y-113840168D01*
X75838967Y-113903000D01*
X76161033Y-113903000D01*
X76476912Y-113840168D01*
X76774463Y-113716918D01*
X77042252Y-113537987D01*
X77177239Y-113403000D01*
X79861868Y-113403000D01*
X80472013Y-114013145D01*
X80507551Y-114056449D01*
X80550854Y-114091987D01*
X80550856Y-114091989D01*
X80680377Y-114198284D01*
X80877553Y-114303676D01*
X81091501Y-114368577D01*
X81314000Y-114390491D01*
X81369752Y-114385000D01*
X87279869Y-114385000D01*
X91519300Y-118624432D01*
X91320140Y-118525743D01*
X90976878Y-118433062D01*
X90622131Y-118409127D01*
X90269530Y-118454861D01*
X89932627Y-118568505D01*
X89717275Y-118683611D01*
X89601003Y-118965398D01*
X90678000Y-120042395D01*
X90692143Y-120028253D01*
X90871748Y-120207858D01*
X90857605Y-120222000D01*
X91934602Y-121298997D01*
X92115001Y-121224560D01*
X92115001Y-122738239D01*
X92109509Y-122794000D01*
X92131423Y-123016498D01*
X92196324Y-123230446D01*
X92226686Y-123287249D01*
X92301717Y-123427623D01*
X92443552Y-123600449D01*
X92486860Y-123635991D01*
X93876665Y-125025797D01*
X93873000Y-125044223D01*
X93873000Y-125399777D01*
X93942365Y-125748499D01*
X94078429Y-126076988D01*
X94275965Y-126372621D01*
X94527379Y-126624035D01*
X94823012Y-126821571D01*
X95151501Y-126957635D01*
X95500223Y-127027000D01*
X95855777Y-127027000D01*
X96204499Y-126957635D01*
X96532988Y-126821571D01*
X96828621Y-126624035D01*
X97080035Y-126372621D01*
X97277571Y-126076988D01*
X97413635Y-125748499D01*
X97483000Y-125399777D01*
X97483000Y-125044223D01*
X98873000Y-125044223D01*
X98873000Y-125399777D01*
X98942365Y-125748499D01*
X99078429Y-126076988D01*
X99275965Y-126372621D01*
X99527379Y-126624035D01*
X99823012Y-126821571D01*
X100151501Y-126957635D01*
X100500223Y-127027000D01*
X100855777Y-127027000D01*
X101204499Y-126957635D01*
X101532988Y-126821571D01*
X101828621Y-126624035D01*
X102080035Y-126372621D01*
X102277571Y-126076988D01*
X102413635Y-125748499D01*
X102483000Y-125399777D01*
X102483000Y-125044223D01*
X102413635Y-124695501D01*
X102277571Y-124367012D01*
X102080035Y-124071379D01*
X101828621Y-123819965D01*
X101532988Y-123622429D01*
X101204499Y-123486365D01*
X100855777Y-123417000D01*
X100500223Y-123417000D01*
X100151501Y-123486365D01*
X99823012Y-123622429D01*
X99527379Y-123819965D01*
X99275965Y-124071379D01*
X99078429Y-124367012D01*
X98942365Y-124695501D01*
X98873000Y-125044223D01*
X97483000Y-125044223D01*
X97413635Y-124695501D01*
X97277571Y-124367012D01*
X97080035Y-124071379D01*
X96828621Y-123819965D01*
X96532988Y-123622429D01*
X96204499Y-123486365D01*
X95855777Y-123417000D01*
X95500223Y-123417000D01*
X95481797Y-123420665D01*
X94385000Y-122323869D01*
X94385000Y-121481656D01*
X94527379Y-121624035D01*
X94823012Y-121821571D01*
X95151501Y-121957635D01*
X95500223Y-122027000D01*
X95855777Y-122027000D01*
X96204499Y-121957635D01*
X96532988Y-121821571D01*
X96828621Y-121624035D01*
X97080035Y-121372621D01*
X97277571Y-121076988D01*
X97413635Y-120748499D01*
X97483000Y-120399777D01*
X97483000Y-120044223D01*
X98873000Y-120044223D01*
X98873000Y-120399777D01*
X98942365Y-120748499D01*
X99078429Y-121076988D01*
X99275965Y-121372621D01*
X99527379Y-121624035D01*
X99823012Y-121821571D01*
X100151501Y-121957635D01*
X100500223Y-122027000D01*
X100855777Y-122027000D01*
X101204499Y-121957635D01*
X101532988Y-121821571D01*
X101828621Y-121624035D01*
X102080035Y-121372621D01*
X102277571Y-121076988D01*
X102413635Y-120748499D01*
X102483000Y-120399777D01*
X102483000Y-120044223D01*
X102413635Y-119695501D01*
X102277571Y-119367012D01*
X102080035Y-119071379D01*
X101828621Y-118819965D01*
X101532988Y-118622429D01*
X101204499Y-118486365D01*
X100855777Y-118417000D01*
X100500223Y-118417000D01*
X100151501Y-118486365D01*
X99823012Y-118622429D01*
X99527379Y-118819965D01*
X99275965Y-119071379D01*
X99078429Y-119367012D01*
X98942365Y-119695501D01*
X98873000Y-120044223D01*
X97483000Y-120044223D01*
X97413635Y-119695501D01*
X97277571Y-119367012D01*
X97080035Y-119071379D01*
X96828621Y-118819965D01*
X96813000Y-118809527D01*
X96813000Y-118051918D01*
X101439340Y-113425579D01*
X101457748Y-113443987D01*
X101725537Y-113622918D01*
X102023088Y-113746168D01*
X102338967Y-113809000D01*
X102661033Y-113809000D01*
X102976912Y-113746168D01*
X103274463Y-113622918D01*
X103542252Y-113443987D01*
X103769987Y-113216252D01*
X103948918Y-112948463D01*
X104072168Y-112650912D01*
X104135000Y-112335033D01*
X104135000Y-112012967D01*
X104072168Y-111697088D01*
X103948918Y-111399537D01*
X103769987Y-111131748D01*
X103542252Y-110904013D01*
X103274463Y-110725082D01*
X102976912Y-110601832D01*
X102661033Y-110539000D01*
X102338967Y-110539000D01*
X102023088Y-110601832D01*
X101725537Y-110725082D01*
X101457748Y-110904013D01*
X101322761Y-111039000D01*
X101141539Y-111039000D01*
X101085787Y-111033509D01*
X100863288Y-111055423D01*
X100649340Y-111120324D01*
X100452164Y-111225716D01*
X100322643Y-111332011D01*
X100322641Y-111332013D01*
X100279338Y-111367551D01*
X100243800Y-111410854D01*
X94914865Y-116739791D01*
X94871551Y-116775338D01*
X94729716Y-116948164D01*
X94638104Y-117119560D01*
X94624324Y-117145341D01*
X94559423Y-117359289D01*
X94537509Y-117581787D01*
X94543000Y-117637538D01*
X94543000Y-118809527D01*
X94527379Y-118819965D01*
X94385000Y-118962344D01*
X94385000Y-118805752D01*
X94390491Y-118750000D01*
X94377927Y-118622429D01*
X94368577Y-118527501D01*
X94303676Y-118313553D01*
X94198284Y-118116377D01*
X94117739Y-118018233D01*
X94091989Y-117986856D01*
X94091987Y-117986854D01*
X94056449Y-117943551D01*
X94013146Y-117908013D01*
X88591996Y-112486865D01*
X88556449Y-112443551D01*
X88383623Y-112301716D01*
X88186447Y-112196324D01*
X87972499Y-112131423D01*
X87805752Y-112115000D01*
X87805751Y-112115000D01*
X87750000Y-112109509D01*
X87694249Y-112115000D01*
X81784132Y-112115000D01*
X81173995Y-111504864D01*
X81138449Y-111461551D01*
X80965623Y-111319716D01*
X80768447Y-111214324D01*
X80554499Y-111149423D01*
X80387752Y-111133000D01*
X80387751Y-111133000D01*
X80332000Y-111127509D01*
X80276249Y-111133000D01*
X77177239Y-111133000D01*
X77042252Y-110998013D01*
X76774463Y-110819082D01*
X76688351Y-110783413D01*
X84044192Y-110783413D01*
X84139956Y-111047814D01*
X84429571Y-111188704D01*
X84741108Y-111270384D01*
X85062595Y-111289718D01*
X85381675Y-111245961D01*
X85686088Y-111140795D01*
X85860044Y-111047814D01*
X85955808Y-110783413D01*
X93044192Y-110783413D01*
X93139956Y-111047814D01*
X93429571Y-111188704D01*
X93741108Y-111270384D01*
X94062595Y-111289718D01*
X94381675Y-111245961D01*
X94686088Y-111140795D01*
X94860044Y-111047814D01*
X94955808Y-110783413D01*
X94000000Y-109827605D01*
X93044192Y-110783413D01*
X85955808Y-110783413D01*
X85000000Y-109827605D01*
X84044192Y-110783413D01*
X76688351Y-110783413D01*
X76476912Y-110695832D01*
X76161033Y-110633000D01*
X75838967Y-110633000D01*
X75523088Y-110695832D01*
X75225537Y-110819082D01*
X74957748Y-110998013D01*
X74730013Y-111225748D01*
X74551082Y-111493537D01*
X74427832Y-111791088D01*
X74365000Y-112106967D01*
X70710000Y-112106967D01*
X70710000Y-109710595D01*
X83358282Y-109710595D01*
X83402039Y-110029675D01*
X83507205Y-110334088D01*
X83600186Y-110508044D01*
X83864587Y-110603808D01*
X84820395Y-109648000D01*
X85179605Y-109648000D01*
X86135413Y-110603808D01*
X86399814Y-110508044D01*
X86540704Y-110218429D01*
X86622384Y-109906892D01*
X86634189Y-109710595D01*
X92358282Y-109710595D01*
X92402039Y-110029675D01*
X92507205Y-110334088D01*
X92600186Y-110508044D01*
X92864587Y-110603808D01*
X93820395Y-109648000D01*
X94179605Y-109648000D01*
X95135413Y-110603808D01*
X95399814Y-110508044D01*
X95540704Y-110218429D01*
X95622384Y-109906892D01*
X95641718Y-109585405D01*
X95597961Y-109266325D01*
X95492795Y-108961912D01*
X95399814Y-108787956D01*
X95135413Y-108692192D01*
X94179605Y-109648000D01*
X93820395Y-109648000D01*
X92864587Y-108692192D01*
X92600186Y-108787956D01*
X92459296Y-109077571D01*
X92377616Y-109389108D01*
X92358282Y-109710595D01*
X86634189Y-109710595D01*
X86641718Y-109585405D01*
X86597961Y-109266325D01*
X86492795Y-108961912D01*
X86399814Y-108787956D01*
X86135413Y-108692192D01*
X85179605Y-109648000D01*
X84820395Y-109648000D01*
X83864587Y-108692192D01*
X83600186Y-108787956D01*
X83459296Y-109077571D01*
X83377616Y-109389108D01*
X83358282Y-109710595D01*
X70710000Y-109710595D01*
X70710000Y-108512587D01*
X84044192Y-108512587D01*
X85000000Y-109468395D01*
X85955808Y-108512587D01*
X93044192Y-108512587D01*
X94000000Y-109468395D01*
X94955808Y-108512587D01*
X94860044Y-108248186D01*
X94570429Y-108107296D01*
X94258892Y-108025616D01*
X93937405Y-108006282D01*
X93618325Y-108050039D01*
X93313912Y-108155205D01*
X93139956Y-108248186D01*
X93044192Y-108512587D01*
X85955808Y-108512587D01*
X85860044Y-108248186D01*
X85570429Y-108107296D01*
X85258892Y-108025616D01*
X84937405Y-108006282D01*
X84618325Y-108050039D01*
X84313912Y-108155205D01*
X84139956Y-108248186D01*
X84044192Y-108512587D01*
X70710000Y-108512587D01*
X70710000Y-75250000D01*
X72359509Y-75250000D01*
X72365000Y-75305752D01*
X72365001Y-84394237D01*
X72359509Y-84449998D01*
X72381423Y-84672496D01*
X72446324Y-84886444D01*
X72485903Y-84960491D01*
X72551717Y-85083621D01*
X72693552Y-85256447D01*
X72736860Y-85291989D01*
X76765002Y-89320132D01*
X76765001Y-99897867D01*
X76029869Y-100633000D01*
X75838967Y-100633000D01*
X75523088Y-100695832D01*
X75225537Y-100819082D01*
X74957748Y-100998013D01*
X74730013Y-101225748D01*
X74551082Y-101493537D01*
X74427832Y-101791088D01*
X74365000Y-102106967D01*
X74365000Y-102429033D01*
X74427832Y-102744912D01*
X74551082Y-103042463D01*
X74730013Y-103310252D01*
X74957748Y-103537987D01*
X75225537Y-103716918D01*
X75523088Y-103840168D01*
X75838967Y-103903000D01*
X76029869Y-103903000D01*
X77538009Y-105411141D01*
X77573551Y-105454449D01*
X77746377Y-105596284D01*
X77943553Y-105701676D01*
X78157501Y-105766577D01*
X78324248Y-105783000D01*
X78324257Y-105783000D01*
X78379999Y-105788490D01*
X78435741Y-105783000D01*
X83822761Y-105783000D01*
X83957748Y-105917987D01*
X84225537Y-106096918D01*
X84523088Y-106220168D01*
X84838967Y-106283000D01*
X85161033Y-106283000D01*
X85476912Y-106220168D01*
X85774463Y-106096918D01*
X86042252Y-105917987D01*
X86269987Y-105690252D01*
X86448918Y-105422463D01*
X86572168Y-105124912D01*
X86635000Y-104809033D01*
X86635000Y-104486967D01*
X86572168Y-104171088D01*
X86448918Y-103873537D01*
X86269987Y-103605748D01*
X86042252Y-103378013D01*
X85774463Y-103199082D01*
X85476912Y-103075832D01*
X85161033Y-103013000D01*
X84838967Y-103013000D01*
X84523088Y-103075832D01*
X84225537Y-103199082D01*
X83957748Y-103378013D01*
X83822761Y-103513000D01*
X78850132Y-103513000D01*
X77635000Y-102297869D01*
X77635000Y-102238131D01*
X78663142Y-101209990D01*
X78706450Y-101174448D01*
X78848285Y-101001622D01*
X78953677Y-100804446D01*
X79018578Y-100590498D01*
X79035001Y-100423751D01*
X79035001Y-100423744D01*
X79040491Y-100368000D01*
X79035001Y-100312256D01*
X79035001Y-91885413D01*
X81674192Y-91885413D01*
X81769956Y-92149814D01*
X82059571Y-92290704D01*
X82371108Y-92372384D01*
X82692595Y-92391718D01*
X83011675Y-92347961D01*
X83316088Y-92242795D01*
X83490044Y-92149814D01*
X83585808Y-91885413D01*
X82630000Y-90929605D01*
X81674192Y-91885413D01*
X79035001Y-91885413D01*
X79035001Y-90812595D01*
X80988282Y-90812595D01*
X81032039Y-91131675D01*
X81137205Y-91436088D01*
X81230186Y-91610044D01*
X81494587Y-91705808D01*
X82450395Y-90750000D01*
X82809605Y-90750000D01*
X83765413Y-91705808D01*
X84029814Y-91610044D01*
X84170704Y-91320429D01*
X84252384Y-91008892D01*
X84271718Y-90687405D01*
X84227961Y-90368325D01*
X84122795Y-90063912D01*
X84029814Y-89889956D01*
X83765413Y-89794192D01*
X82809605Y-90750000D01*
X82450395Y-90750000D01*
X81494587Y-89794192D01*
X81230186Y-89889956D01*
X81089296Y-90179571D01*
X81007616Y-90491108D01*
X80988282Y-90812595D01*
X79035001Y-90812595D01*
X79035001Y-89614587D01*
X81674192Y-89614587D01*
X82630000Y-90570395D01*
X83585808Y-89614587D01*
X83490044Y-89350186D01*
X83200429Y-89209296D01*
X82888892Y-89127616D01*
X82567405Y-89108282D01*
X82248325Y-89152039D01*
X81943912Y-89257205D01*
X81769956Y-89350186D01*
X81674192Y-89614587D01*
X79035001Y-89614587D01*
X79035001Y-88905750D01*
X79040492Y-88849998D01*
X79018578Y-88627500D01*
X78953677Y-88413552D01*
X78900227Y-88313554D01*
X78848285Y-88216376D01*
X78706450Y-88043550D01*
X78663142Y-88008008D01*
X74635000Y-83979867D01*
X74635000Y-83859413D01*
X75244192Y-83859413D01*
X75339956Y-84123814D01*
X75629571Y-84264704D01*
X75941108Y-84346384D01*
X76262595Y-84365718D01*
X76581675Y-84321961D01*
X76886088Y-84216795D01*
X77060044Y-84123814D01*
X77155808Y-83859413D01*
X76200000Y-82903605D01*
X75244192Y-83859413D01*
X74635000Y-83859413D01*
X74635000Y-83201084D01*
X74707205Y-83410088D01*
X74800186Y-83584044D01*
X75064587Y-83679808D01*
X76020395Y-82724000D01*
X76379605Y-82724000D01*
X77335413Y-83679808D01*
X77599814Y-83584044D01*
X77740704Y-83294429D01*
X77822384Y-82982892D01*
X77841718Y-82661405D01*
X77797961Y-82342325D01*
X77692795Y-82037912D01*
X77599814Y-81863956D01*
X77335413Y-81768192D01*
X76379605Y-82724000D01*
X76020395Y-82724000D01*
X75064587Y-81768192D01*
X74800186Y-81863956D01*
X74659296Y-82153571D01*
X74635000Y-82246239D01*
X74635000Y-81588587D01*
X75244192Y-81588587D01*
X76200000Y-82544395D01*
X77155808Y-81588587D01*
X77060044Y-81324186D01*
X76770429Y-81183296D01*
X76458892Y-81101616D01*
X76137405Y-81082282D01*
X75818325Y-81126039D01*
X75513912Y-81231205D01*
X75339956Y-81324186D01*
X75244192Y-81588587D01*
X74635000Y-81588587D01*
X74635000Y-79014019D01*
X74669463Y-79078494D01*
X74748815Y-79175185D01*
X74845506Y-79254537D01*
X74955820Y-79313502D01*
X75075518Y-79349812D01*
X75200000Y-79362072D01*
X77200000Y-79362072D01*
X77324482Y-79349812D01*
X77444180Y-79313502D01*
X77554494Y-79254537D01*
X77651185Y-79175185D01*
X77730537Y-79078494D01*
X77789502Y-78968180D01*
X77825812Y-78848482D01*
X77838072Y-78724000D01*
X77838072Y-76827000D01*
X79954249Y-76827000D01*
X80010000Y-76832491D01*
X80065751Y-76827000D01*
X80065752Y-76827000D01*
X80146978Y-76819000D01*
X84010249Y-76819000D01*
X84066000Y-76824491D01*
X84121751Y-76819000D01*
X84121752Y-76819000D01*
X84288499Y-76802577D01*
X84502447Y-76737676D01*
X84699623Y-76632284D01*
X84872449Y-76490449D01*
X84907995Y-76447136D01*
X85763140Y-75591992D01*
X85806449Y-75556449D01*
X85865000Y-75485104D01*
X85865000Y-76359868D01*
X83384983Y-78839886D01*
X83284691Y-78849764D01*
X83014192Y-78931818D01*
X82764899Y-79065068D01*
X82546392Y-79244392D01*
X82367068Y-79462899D01*
X82233818Y-79712192D01*
X82151764Y-79982691D01*
X82124057Y-80264000D01*
X82151764Y-80545309D01*
X82233818Y-80815808D01*
X82367068Y-81065101D01*
X82546392Y-81283608D01*
X82764899Y-81462932D01*
X83014192Y-81596182D01*
X83284691Y-81678236D01*
X83495508Y-81699000D01*
X83636492Y-81699000D01*
X83847309Y-81678236D01*
X84117808Y-81596182D01*
X84367101Y-81462932D01*
X84585608Y-81283608D01*
X84764932Y-81065101D01*
X84898182Y-80815808D01*
X84980236Y-80545309D01*
X84990114Y-80445017D01*
X87763141Y-77671991D01*
X87806449Y-77636449D01*
X87948284Y-77463623D01*
X88053676Y-77266447D01*
X88118577Y-77052499D01*
X88135000Y-76885752D01*
X88135000Y-76885743D01*
X88140490Y-76830001D01*
X88135000Y-76774259D01*
X88135000Y-73323624D01*
X88154766Y-73379429D01*
X88440120Y-73517820D01*
X88746990Y-73597883D01*
X89063584Y-73616540D01*
X89377733Y-73573074D01*
X89677367Y-73469156D01*
X89845234Y-73379429D01*
X89865001Y-73323622D01*
X89865000Y-84909867D01*
X86866860Y-87908009D01*
X86823552Y-87943551D01*
X86681717Y-88116377D01*
X86628267Y-88216376D01*
X86576324Y-88313554D01*
X86511423Y-88527502D01*
X86489509Y-88750000D01*
X86495001Y-88805761D01*
X86495001Y-89127378D01*
X86385820Y-89160498D01*
X86275506Y-89219463D01*
X86178815Y-89298815D01*
X86099463Y-89395506D01*
X86040498Y-89505820D01*
X86004188Y-89625518D01*
X85991928Y-89750000D01*
X85991928Y-91750000D01*
X86004188Y-91874482D01*
X86040498Y-91994180D01*
X86099463Y-92104494D01*
X86178815Y-92201185D01*
X86275506Y-92280537D01*
X86385820Y-92339502D01*
X86505518Y-92375812D01*
X86630000Y-92388072D01*
X88630000Y-92388072D01*
X88754482Y-92375812D01*
X88874180Y-92339502D01*
X88984494Y-92280537D01*
X89081185Y-92201185D01*
X89160537Y-92104494D01*
X89219502Y-91994180D01*
X89255812Y-91874482D01*
X89268072Y-91750000D01*
X89268072Y-89750000D01*
X89255812Y-89625518D01*
X89219502Y-89505820D01*
X89160537Y-89395506D01*
X89081185Y-89298815D01*
X88984494Y-89219463D01*
X88874180Y-89160498D01*
X88836165Y-89148966D01*
X91763146Y-86221987D01*
X91806449Y-86186449D01*
X91865001Y-86115104D01*
X91865001Y-96694238D01*
X91859509Y-96750000D01*
X91881423Y-96972498D01*
X91946324Y-97186446D01*
X91946325Y-97186447D01*
X92051717Y-97383623D01*
X92193552Y-97556449D01*
X92236860Y-97591991D01*
X97582009Y-102937141D01*
X97617551Y-102980449D01*
X97790377Y-103122284D01*
X97987553Y-103227676D01*
X98201501Y-103292577D01*
X98368248Y-103309000D01*
X98368257Y-103309000D01*
X98423999Y-103314490D01*
X98479741Y-103309000D01*
X99759869Y-103309000D01*
X99555869Y-103513000D01*
X95177239Y-103513000D01*
X95042252Y-103378013D01*
X94774463Y-103199082D01*
X94476912Y-103075832D01*
X94161033Y-103013000D01*
X93838967Y-103013000D01*
X93523088Y-103075832D01*
X93225537Y-103199082D01*
X92957748Y-103378013D01*
X92730013Y-103605748D01*
X92551082Y-103873537D01*
X92427832Y-104171088D01*
X92365000Y-104486967D01*
X92365000Y-104809033D01*
X92427832Y-105124912D01*
X92551082Y-105422463D01*
X92730013Y-105690252D01*
X92957748Y-105917987D01*
X93225537Y-106096918D01*
X93523088Y-106220168D01*
X93838967Y-106283000D01*
X94161033Y-106283000D01*
X94476912Y-106220168D01*
X94774463Y-106096918D01*
X95042252Y-105917987D01*
X95177239Y-105783000D01*
X99970249Y-105783000D01*
X100026000Y-105788491D01*
X100081751Y-105783000D01*
X100081752Y-105783000D01*
X100248499Y-105766577D01*
X100462447Y-105701676D01*
X100659623Y-105596284D01*
X100832449Y-105454449D01*
X100867996Y-105411135D01*
X102425092Y-103854039D01*
X106558096Y-103854039D01*
X106598754Y-103988087D01*
X106718963Y-104242420D01*
X106886481Y-104468414D01*
X107094869Y-104657385D01*
X107336119Y-104802070D01*
X107600960Y-104896909D01*
X107823000Y-104775624D01*
X107823000Y-103632000D01*
X108077000Y-103632000D01*
X108077000Y-104775624D01*
X108299040Y-104896909D01*
X108563881Y-104802070D01*
X108805131Y-104657385D01*
X109013519Y-104468414D01*
X109181037Y-104242420D01*
X109301246Y-103988087D01*
X109341904Y-103854039D01*
X109219915Y-103632000D01*
X108077000Y-103632000D01*
X107823000Y-103632000D01*
X106680085Y-103632000D01*
X106558096Y-103854039D01*
X102425092Y-103854039D01*
X102470132Y-103809000D01*
X102661033Y-103809000D01*
X102976912Y-103746168D01*
X103274463Y-103622918D01*
X103542252Y-103443987D01*
X103769987Y-103216252D01*
X103810272Y-103155961D01*
X106558096Y-103155961D01*
X106680085Y-103378000D01*
X107823000Y-103378000D01*
X107823000Y-102234376D01*
X108077000Y-102234376D01*
X108077000Y-103378000D01*
X109219915Y-103378000D01*
X109341904Y-103155961D01*
X109301246Y-103021913D01*
X109181037Y-102767580D01*
X109013519Y-102541586D01*
X108805131Y-102352615D01*
X108563881Y-102207930D01*
X108299040Y-102113091D01*
X108077000Y-102234376D01*
X107823000Y-102234376D01*
X107600960Y-102113091D01*
X107336119Y-102207930D01*
X107094869Y-102352615D01*
X106886481Y-102541586D01*
X106718963Y-102767580D01*
X106598754Y-103021913D01*
X106558096Y-103155961D01*
X103810272Y-103155961D01*
X103948918Y-102948463D01*
X104072168Y-102650912D01*
X104135000Y-102335033D01*
X104135000Y-102012967D01*
X104072168Y-101697088D01*
X103948918Y-101399537D01*
X103769987Y-101131748D01*
X103542252Y-100904013D01*
X103274463Y-100725082D01*
X102976912Y-100601832D01*
X102661033Y-100539000D01*
X102338967Y-100539000D01*
X102023088Y-100601832D01*
X101725537Y-100725082D01*
X101457748Y-100904013D01*
X101322761Y-101039000D01*
X98894132Y-101039000D01*
X94135000Y-96279869D01*
X94135000Y-91885413D01*
X95544192Y-91885413D01*
X95639956Y-92149814D01*
X95929571Y-92290704D01*
X96241108Y-92372384D01*
X96562595Y-92391718D01*
X96881675Y-92347961D01*
X97186088Y-92242795D01*
X97360044Y-92149814D01*
X97455808Y-91885413D01*
X96500000Y-90929605D01*
X95544192Y-91885413D01*
X94135000Y-91885413D01*
X94135000Y-90812595D01*
X94858282Y-90812595D01*
X94902039Y-91131675D01*
X95007205Y-91436088D01*
X95100186Y-91610044D01*
X95364587Y-91705808D01*
X96320395Y-90750000D01*
X96679605Y-90750000D01*
X97635413Y-91705808D01*
X97899814Y-91610044D01*
X98040704Y-91320429D01*
X98122384Y-91008892D01*
X98141718Y-90687405D01*
X98097961Y-90368325D01*
X97992795Y-90063912D01*
X97899814Y-89889956D01*
X97635413Y-89794192D01*
X96679605Y-90750000D01*
X96320395Y-90750000D01*
X95364587Y-89794192D01*
X95100186Y-89889956D01*
X94959296Y-90179571D01*
X94877616Y-90491108D01*
X94858282Y-90812595D01*
X94135000Y-90812595D01*
X94135000Y-89614587D01*
X95544192Y-89614587D01*
X96500000Y-90570395D01*
X97455808Y-89614587D01*
X97360044Y-89350186D01*
X97070429Y-89209296D01*
X96758892Y-89127616D01*
X96437405Y-89108282D01*
X96118325Y-89152039D01*
X95813912Y-89257205D01*
X95639956Y-89350186D01*
X95544192Y-89614587D01*
X94135000Y-89614587D01*
X94135000Y-82485105D01*
X94193551Y-82556449D01*
X94236865Y-82591996D01*
X100365001Y-88720133D01*
X100365001Y-89127378D01*
X100255820Y-89160498D01*
X100145506Y-89219463D01*
X100048815Y-89298815D01*
X99969463Y-89395506D01*
X99910498Y-89505820D01*
X99874188Y-89625518D01*
X99861928Y-89750000D01*
X99861928Y-91750000D01*
X99874188Y-91874482D01*
X99910498Y-91994180D01*
X99969463Y-92104494D01*
X100048815Y-92201185D01*
X100145506Y-92280537D01*
X100255820Y-92339502D01*
X100375518Y-92375812D01*
X100500000Y-92388072D01*
X102500000Y-92388072D01*
X102624482Y-92375812D01*
X102744180Y-92339502D01*
X102854494Y-92280537D01*
X102951185Y-92201185D01*
X103030537Y-92104494D01*
X103089502Y-91994180D01*
X103125812Y-91874482D01*
X103138072Y-91750000D01*
X103138072Y-89750000D01*
X103125812Y-89625518D01*
X103089502Y-89505820D01*
X103030537Y-89395506D01*
X102951185Y-89298815D01*
X102854494Y-89219463D01*
X102744180Y-89160498D01*
X102635000Y-89127379D01*
X102635000Y-88305751D01*
X102640491Y-88249999D01*
X102618577Y-88027500D01*
X102593111Y-87943551D01*
X102553676Y-87813553D01*
X102448284Y-87616377D01*
X102306449Y-87443551D01*
X102263141Y-87408009D01*
X96135000Y-81279869D01*
X96135000Y-73358356D01*
X96237379Y-73426763D01*
X96530380Y-73548129D01*
X96841429Y-73610000D01*
X97004868Y-73610000D01*
X97671001Y-74276133D01*
X97671000Y-75823716D01*
X97534320Y-76028273D01*
X97426147Y-76289426D01*
X97371000Y-76566665D01*
X97371000Y-76849335D01*
X97426147Y-77126574D01*
X97534320Y-77387727D01*
X97671000Y-77592284D01*
X97671001Y-79379715D01*
X97534320Y-79584273D01*
X97426147Y-79845426D01*
X97371000Y-80122665D01*
X97371000Y-80405335D01*
X97426147Y-80682574D01*
X97534320Y-80943727D01*
X97691363Y-81178759D01*
X97891241Y-81378637D01*
X98126273Y-81535680D01*
X98387426Y-81643853D01*
X98664665Y-81699000D01*
X98947335Y-81699000D01*
X99224574Y-81643853D01*
X99485727Y-81535680D01*
X99720759Y-81378637D01*
X99865000Y-81234396D01*
X99865000Y-81444248D01*
X99859509Y-81500000D01*
X99865000Y-81555751D01*
X99881423Y-81722498D01*
X99946324Y-81936446D01*
X100051716Y-82133623D01*
X100193551Y-82306449D01*
X100236865Y-82341996D01*
X112657001Y-94762133D01*
X112657000Y-105647100D01*
X112611324Y-105732554D01*
X112546423Y-105946502D01*
X112524509Y-106169000D01*
X112530001Y-106224761D01*
X112530000Y-107407761D01*
X112395013Y-107542748D01*
X112216082Y-107810537D01*
X112092832Y-108108088D01*
X112030000Y-108423967D01*
X112030000Y-108746033D01*
X112092832Y-109061912D01*
X112216082Y-109359463D01*
X112395013Y-109627252D01*
X112530001Y-109762240D01*
X112530000Y-115895248D01*
X112524509Y-115951000D01*
X112530000Y-116006751D01*
X112546423Y-116173498D01*
X112611324Y-116387446D01*
X112702893Y-116558761D01*
X109631850Y-113487719D01*
X109583853Y-113246426D01*
X109475680Y-112985273D01*
X109318637Y-112750241D01*
X109118759Y-112550363D01*
X108883727Y-112393320D01*
X108622574Y-112285147D01*
X108345335Y-112230000D01*
X108062665Y-112230000D01*
X107785426Y-112285147D01*
X107524273Y-112393320D01*
X107289241Y-112550363D01*
X107089363Y-112750241D01*
X106932320Y-112985273D01*
X106824147Y-113246426D01*
X106769000Y-113523665D01*
X106769000Y-113806335D01*
X106824147Y-114083574D01*
X106932320Y-114344727D01*
X107089363Y-114579759D01*
X107289241Y-114779637D01*
X107524273Y-114936680D01*
X107785426Y-115044853D01*
X108026719Y-115092850D01*
X112184890Y-119251022D01*
X112296082Y-119519463D01*
X112475013Y-119787252D01*
X112702748Y-120014987D01*
X112970537Y-120193918D01*
X113268088Y-120317168D01*
X113583967Y-120380000D01*
X113906033Y-120380000D01*
X114221912Y-120317168D01*
X114364992Y-120257902D01*
X114364992Y-121229877D01*
X114236865Y-121358004D01*
X114193551Y-121393551D01*
X114051716Y-121566377D01*
X113958741Y-121740324D01*
X113946324Y-121763554D01*
X113881423Y-121977502D01*
X113859509Y-122200000D01*
X113865000Y-122255752D01*
X113865000Y-122577379D01*
X113755820Y-122610498D01*
X113645506Y-122669463D01*
X113548815Y-122748815D01*
X113469463Y-122845506D01*
X113410498Y-122955820D01*
X113374188Y-123075518D01*
X113361928Y-123200000D01*
X113361928Y-126800000D01*
X113374188Y-126924482D01*
X113410498Y-127044180D01*
X113469463Y-127154494D01*
X113548815Y-127251185D01*
X113645506Y-127330537D01*
X113755820Y-127389502D01*
X113875518Y-127425812D01*
X114000000Y-127438072D01*
X116000000Y-127438072D01*
X116124482Y-127425812D01*
X116244180Y-127389502D01*
X116354494Y-127330537D01*
X116451185Y-127251185D01*
X116530537Y-127154494D01*
X116589502Y-127044180D01*
X116625812Y-126924482D01*
X116638072Y-126800000D01*
X116638072Y-123200000D01*
X116625812Y-123075518D01*
X116589502Y-122955820D01*
X116530537Y-122845506D01*
X116451185Y-122748815D01*
X116354494Y-122669463D01*
X116244180Y-122610498D01*
X116206165Y-122598966D01*
X116263126Y-122542005D01*
X116306440Y-122506458D01*
X116448275Y-122333632D01*
X116553667Y-122136456D01*
X116618568Y-121922508D01*
X116633747Y-121768392D01*
X116640482Y-121700010D01*
X116634991Y-121644258D01*
X116634991Y-118240123D01*
X117110000Y-118715132D01*
X117110000Y-118906033D01*
X117172832Y-119221912D01*
X117296082Y-119519463D01*
X117475013Y-119787252D01*
X117702748Y-120014987D01*
X117970537Y-120193918D01*
X118268088Y-120317168D01*
X118583967Y-120380000D01*
X118774868Y-120380000D01*
X118865001Y-120470133D01*
X118865000Y-123016362D01*
X118838286Y-123038286D01*
X118633969Y-123287249D01*
X118482148Y-123571286D01*
X118388657Y-123879485D01*
X118365000Y-124119679D01*
X118365000Y-125880322D01*
X118388658Y-126120516D01*
X118482149Y-126428715D01*
X118633970Y-126712752D01*
X118838287Y-126961714D01*
X119087249Y-127166031D01*
X119371286Y-127317852D01*
X119679485Y-127411343D01*
X120000000Y-127442911D01*
X120320516Y-127411343D01*
X120628715Y-127317852D01*
X120912752Y-127166031D01*
X121161714Y-126961714D01*
X121366031Y-126712752D01*
X121517852Y-126428715D01*
X121611343Y-126120516D01*
X121635000Y-125880322D01*
X121635000Y-124119678D01*
X121611343Y-123879484D01*
X121517852Y-123571285D01*
X121366031Y-123287248D01*
X121161714Y-123038286D01*
X121135000Y-123016363D01*
X121135000Y-120055751D01*
X121140491Y-119999999D01*
X121118577Y-119777501D01*
X121053676Y-119563553D01*
X121047206Y-119551448D01*
X120948284Y-119366377D01*
X120806449Y-119193551D01*
X120763140Y-119158008D01*
X120380000Y-118774868D01*
X120380000Y-118583967D01*
X120317168Y-118268088D01*
X120193918Y-117970537D01*
X120014987Y-117702748D01*
X119787252Y-117475013D01*
X119519463Y-117296082D01*
X119221912Y-117172832D01*
X118906033Y-117110000D01*
X118715132Y-117110000D01*
X116705000Y-115099869D01*
X116705000Y-114014039D01*
X122052096Y-114014039D01*
X122092754Y-114148087D01*
X122212963Y-114402420D01*
X122380481Y-114628414D01*
X122588869Y-114817385D01*
X122830119Y-114962070D01*
X123094960Y-115056909D01*
X123317000Y-114935624D01*
X123317000Y-113792000D01*
X123571000Y-113792000D01*
X123571000Y-114935624D01*
X123793040Y-115056909D01*
X124057881Y-114962070D01*
X124299131Y-114817385D01*
X124507519Y-114628414D01*
X124675037Y-114402420D01*
X124795246Y-114148087D01*
X124835904Y-114014039D01*
X124713915Y-113792000D01*
X123571000Y-113792000D01*
X123317000Y-113792000D01*
X122174085Y-113792000D01*
X122052096Y-114014039D01*
X116705000Y-114014039D01*
X116705000Y-113315961D01*
X122052096Y-113315961D01*
X122174085Y-113538000D01*
X123317000Y-113538000D01*
X123317000Y-112394376D01*
X123571000Y-112394376D01*
X123571000Y-113538000D01*
X124713915Y-113538000D01*
X124835904Y-113315961D01*
X124795246Y-113181913D01*
X124675037Y-112927580D01*
X124507519Y-112701586D01*
X124299131Y-112512615D01*
X124057881Y-112367930D01*
X123793040Y-112273091D01*
X123571000Y-112394376D01*
X123317000Y-112394376D01*
X123094960Y-112273091D01*
X122830119Y-112367930D01*
X122588869Y-112512615D01*
X122380481Y-112701586D01*
X122212963Y-112927580D01*
X122092754Y-113181913D01*
X122052096Y-113315961D01*
X116705000Y-113315961D01*
X116705000Y-108423967D01*
X117030000Y-108423967D01*
X117030000Y-108746033D01*
X117092832Y-109061912D01*
X117216082Y-109359463D01*
X117395013Y-109627252D01*
X117622748Y-109854987D01*
X117890537Y-110033918D01*
X118188088Y-110157168D01*
X118503967Y-110220000D01*
X118826033Y-110220000D01*
X119141912Y-110157168D01*
X119439463Y-110033918D01*
X119707252Y-109854987D01*
X119934987Y-109627252D01*
X120113918Y-109359463D01*
X120237168Y-109061912D01*
X120300000Y-108746033D01*
X120300000Y-108423967D01*
X120237168Y-108108088D01*
X120223951Y-108076180D01*
X123367282Y-104932850D01*
X123608574Y-104884853D01*
X123869727Y-104776680D01*
X124104759Y-104619637D01*
X124304637Y-104419759D01*
X124461680Y-104184727D01*
X124569853Y-103923574D01*
X124583684Y-103854039D01*
X125608096Y-103854039D01*
X125648754Y-103988087D01*
X125768963Y-104242420D01*
X125936481Y-104468414D01*
X126144869Y-104657385D01*
X126386119Y-104802070D01*
X126650960Y-104896909D01*
X126873000Y-104775624D01*
X126873000Y-103632000D01*
X127127000Y-103632000D01*
X127127000Y-104775624D01*
X127349040Y-104896909D01*
X127613881Y-104802070D01*
X127855131Y-104657385D01*
X128063519Y-104468414D01*
X128231037Y-104242420D01*
X128351246Y-103988087D01*
X128391904Y-103854039D01*
X128269915Y-103632000D01*
X127127000Y-103632000D01*
X126873000Y-103632000D01*
X125730085Y-103632000D01*
X125608096Y-103854039D01*
X124583684Y-103854039D01*
X124625000Y-103646335D01*
X124625000Y-103363665D01*
X124583685Y-103155961D01*
X125608096Y-103155961D01*
X125730085Y-103378000D01*
X126873000Y-103378000D01*
X126873000Y-102234376D01*
X127127000Y-102234376D01*
X127127000Y-103378000D01*
X128269915Y-103378000D01*
X128391904Y-103155961D01*
X128351246Y-103021913D01*
X128231037Y-102767580D01*
X128063519Y-102541586D01*
X127855131Y-102352615D01*
X127613881Y-102207930D01*
X127349040Y-102113091D01*
X127127000Y-102234376D01*
X126873000Y-102234376D01*
X126650960Y-102113091D01*
X126386119Y-102207930D01*
X126144869Y-102352615D01*
X125936481Y-102541586D01*
X125768963Y-102767580D01*
X125648754Y-103021913D01*
X125608096Y-103155961D01*
X124583685Y-103155961D01*
X124569853Y-103086426D01*
X124461680Y-102825273D01*
X124304637Y-102590241D01*
X124104759Y-102390363D01*
X123869727Y-102233320D01*
X123608574Y-102125147D01*
X123331335Y-102070000D01*
X123048665Y-102070000D01*
X122771426Y-102125147D01*
X122510273Y-102233320D01*
X122275241Y-102390363D01*
X122075363Y-102590241D01*
X121918320Y-102825273D01*
X121810147Y-103086426D01*
X121762150Y-103327718D01*
X117998512Y-107091357D01*
X117890537Y-107136082D01*
X117622748Y-107315013D01*
X117395013Y-107542748D01*
X117216082Y-107810537D01*
X117092832Y-108108088D01*
X117030000Y-108423967D01*
X116705000Y-108423967D01*
X116705000Y-93781741D01*
X116710490Y-93725999D01*
X116705000Y-93670257D01*
X116705000Y-93670248D01*
X116691331Y-93531463D01*
X124634013Y-101474146D01*
X124669551Y-101517449D01*
X124712854Y-101552987D01*
X124712856Y-101552989D01*
X124842377Y-101659284D01*
X125039553Y-101764676D01*
X125253501Y-101829577D01*
X125476000Y-101851491D01*
X125531752Y-101846000D01*
X127418869Y-101846000D01*
X129929001Y-104356133D01*
X129929000Y-106772761D01*
X129794013Y-106907748D01*
X129615082Y-107175537D01*
X129491832Y-107473088D01*
X129429000Y-107788967D01*
X129429000Y-108111033D01*
X129491832Y-108426912D01*
X129615082Y-108724463D01*
X129794013Y-108992252D01*
X129929000Y-109127239D01*
X129929001Y-114988869D01*
X128427850Y-113487719D01*
X128379853Y-113246426D01*
X128271680Y-112985273D01*
X128114637Y-112750241D01*
X127914759Y-112550363D01*
X127679727Y-112393320D01*
X127418574Y-112285147D01*
X127141335Y-112230000D01*
X126858665Y-112230000D01*
X126581426Y-112285147D01*
X126320273Y-112393320D01*
X126085241Y-112550363D01*
X125885363Y-112750241D01*
X125728320Y-112985273D01*
X125620147Y-113246426D01*
X125565000Y-113523665D01*
X125565000Y-113806335D01*
X125620147Y-114083574D01*
X125728320Y-114344727D01*
X125885363Y-114579759D01*
X126085241Y-114779637D01*
X126320273Y-114936680D01*
X126581426Y-115044853D01*
X126822719Y-115092850D01*
X129544952Y-117815084D01*
X129441082Y-117970537D01*
X129317832Y-118268088D01*
X129255000Y-118583967D01*
X129255000Y-118906033D01*
X129317832Y-119221912D01*
X129441082Y-119519463D01*
X129620013Y-119787252D01*
X129847748Y-120014987D01*
X130115537Y-120193918D01*
X130413088Y-120317168D01*
X130728967Y-120380000D01*
X131051033Y-120380000D01*
X131366912Y-120317168D01*
X131426300Y-120292569D01*
X131103869Y-120615000D01*
X130055752Y-120615000D01*
X130000000Y-120609509D01*
X129944249Y-120615000D01*
X129944248Y-120615000D01*
X129777501Y-120631423D01*
X129563553Y-120696324D01*
X129366377Y-120801716D01*
X129193551Y-120943551D01*
X129051716Y-121116377D01*
X128946324Y-121313553D01*
X128881423Y-121527501D01*
X128859509Y-121750000D01*
X128865001Y-121805761D01*
X128865001Y-122577378D01*
X128755820Y-122610498D01*
X128645506Y-122669463D01*
X128548815Y-122748815D01*
X128469463Y-122845506D01*
X128410498Y-122955820D01*
X128374188Y-123075518D01*
X128361928Y-123200000D01*
X128361928Y-126800000D01*
X128374188Y-126924482D01*
X128410498Y-127044180D01*
X128469463Y-127154494D01*
X128548815Y-127251185D01*
X128645506Y-127330537D01*
X128755820Y-127389502D01*
X128875518Y-127425812D01*
X129000000Y-127438072D01*
X131000000Y-127438072D01*
X131124482Y-127425812D01*
X131244180Y-127389502D01*
X131354494Y-127330537D01*
X131451185Y-127251185D01*
X131530537Y-127154494D01*
X131589502Y-127044180D01*
X131625812Y-126924482D01*
X131638072Y-126800000D01*
X131638072Y-123200000D01*
X131625812Y-123075518D01*
X131589502Y-122955820D01*
X131553503Y-122888472D01*
X131574000Y-122890491D01*
X131629751Y-122885000D01*
X131629752Y-122885000D01*
X131796499Y-122868577D01*
X132010447Y-122803676D01*
X132207623Y-122698284D01*
X132380449Y-122556449D01*
X132415996Y-122513135D01*
X133521140Y-121407992D01*
X133564449Y-121372449D01*
X133706284Y-121199623D01*
X133811676Y-121002447D01*
X133876577Y-120788499D01*
X133893000Y-120621752D01*
X133898491Y-120566000D01*
X133893000Y-120510248D01*
X133893000Y-118353132D01*
X134255000Y-118715132D01*
X134255000Y-118906033D01*
X134317832Y-119221912D01*
X134441082Y-119519463D01*
X134620013Y-119787252D01*
X134755000Y-119922239D01*
X134755001Y-122581219D01*
X134679484Y-122588657D01*
X134371285Y-122682148D01*
X134087248Y-122833969D01*
X133838286Y-123038286D01*
X133633969Y-123287249D01*
X133482148Y-123571286D01*
X133388657Y-123879485D01*
X133365000Y-124119679D01*
X133365000Y-125880322D01*
X133388658Y-126120516D01*
X133482149Y-126428715D01*
X133633970Y-126712752D01*
X133838287Y-126961714D01*
X134087249Y-127166031D01*
X134371286Y-127317852D01*
X134679485Y-127411343D01*
X135000000Y-127442911D01*
X135320516Y-127411343D01*
X135628715Y-127317852D01*
X135912752Y-127166031D01*
X136161714Y-126961714D01*
X136366031Y-126712752D01*
X136517852Y-126428715D01*
X136611343Y-126120516D01*
X136635000Y-125880322D01*
X136635000Y-124970132D01*
X136653140Y-124951992D01*
X136696449Y-124916449D01*
X136838284Y-124743623D01*
X136943676Y-124546447D01*
X137008577Y-124332499D01*
X137025000Y-124165752D01*
X137030491Y-124110001D01*
X137025000Y-124054249D01*
X137025000Y-119922239D01*
X137159987Y-119787252D01*
X137338918Y-119519463D01*
X137462168Y-119221912D01*
X137525000Y-118906033D01*
X137525000Y-118583967D01*
X137462168Y-118268088D01*
X137338918Y-117970537D01*
X137159987Y-117702748D01*
X136932252Y-117475013D01*
X136664463Y-117296082D01*
X136366912Y-117172832D01*
X136051033Y-117110000D01*
X135860132Y-117110000D01*
X133899001Y-115148870D01*
X133899001Y-114014039D01*
X140848096Y-114014039D01*
X140888754Y-114148087D01*
X141008963Y-114402420D01*
X141176481Y-114628414D01*
X141384869Y-114817385D01*
X141626119Y-114962070D01*
X141890960Y-115056909D01*
X142113000Y-114935624D01*
X142113000Y-113792000D01*
X142367000Y-113792000D01*
X142367000Y-114935624D01*
X142589040Y-115056909D01*
X142853881Y-114962070D01*
X143095131Y-114817385D01*
X143303519Y-114628414D01*
X143471037Y-114402420D01*
X143591246Y-114148087D01*
X143631904Y-114014039D01*
X143509915Y-113792000D01*
X142367000Y-113792000D01*
X142113000Y-113792000D01*
X140970085Y-113792000D01*
X140848096Y-114014039D01*
X133899001Y-114014039D01*
X133899001Y-113315961D01*
X140848096Y-113315961D01*
X140970085Y-113538000D01*
X142113000Y-113538000D01*
X142113000Y-112394376D01*
X142367000Y-112394376D01*
X142367000Y-113538000D01*
X143509915Y-113538000D01*
X143631904Y-113315961D01*
X143591246Y-113181913D01*
X143471037Y-112927580D01*
X143303519Y-112701586D01*
X143095131Y-112512615D01*
X142853881Y-112367930D01*
X142589040Y-112273091D01*
X142367000Y-112394376D01*
X142113000Y-112394376D01*
X141890960Y-112273091D01*
X141626119Y-112367930D01*
X141384869Y-112512615D01*
X141176481Y-112701586D01*
X141008963Y-112927580D01*
X140888754Y-113181913D01*
X140848096Y-113315961D01*
X133899001Y-113315961D01*
X133899001Y-107788967D01*
X134429000Y-107788967D01*
X134429000Y-108111033D01*
X134491832Y-108426912D01*
X134615082Y-108724463D01*
X134794013Y-108992252D01*
X135021748Y-109219987D01*
X135289537Y-109398918D01*
X135587088Y-109522168D01*
X135902967Y-109585000D01*
X136225033Y-109585000D01*
X136540912Y-109522168D01*
X136838463Y-109398918D01*
X137106252Y-109219987D01*
X137241239Y-109085000D01*
X137739249Y-109085000D01*
X137795000Y-109090491D01*
X137850751Y-109085000D01*
X137850752Y-109085000D01*
X138017499Y-109068577D01*
X138231447Y-109003676D01*
X138428623Y-108898284D01*
X138601449Y-108756449D01*
X138636996Y-108713135D01*
X142417282Y-104932850D01*
X142658574Y-104884853D01*
X142919727Y-104776680D01*
X143154759Y-104619637D01*
X143354637Y-104419759D01*
X143511680Y-104184727D01*
X143619853Y-103923574D01*
X143675000Y-103646335D01*
X143675000Y-103363665D01*
X143619853Y-103086426D01*
X143511680Y-102825273D01*
X143354637Y-102590241D01*
X143154759Y-102390363D01*
X142919727Y-102233320D01*
X142658574Y-102125147D01*
X142381335Y-102070000D01*
X142098665Y-102070000D01*
X141821426Y-102125147D01*
X141560273Y-102233320D01*
X141325241Y-102390363D01*
X141125363Y-102590241D01*
X140968320Y-102825273D01*
X140860147Y-103086426D01*
X140812150Y-103327718D01*
X137324869Y-106815000D01*
X137241239Y-106815000D01*
X137106252Y-106680013D01*
X136838463Y-106501082D01*
X136540912Y-106377832D01*
X136225033Y-106315000D01*
X135902967Y-106315000D01*
X135587088Y-106377832D01*
X135289537Y-106501082D01*
X135021748Y-106680013D01*
X134794013Y-106907748D01*
X134615082Y-107175537D01*
X134491832Y-107473088D01*
X134429000Y-107788967D01*
X133899001Y-107788967D01*
X133899001Y-103355752D01*
X133904492Y-103300001D01*
X133886989Y-103122283D01*
X133882578Y-103077502D01*
X133817677Y-102863554D01*
X133712285Y-102666378D01*
X133570450Y-102493552D01*
X133527142Y-102458010D01*
X129365996Y-98296865D01*
X129330449Y-98253551D01*
X129157623Y-98111716D01*
X128960447Y-98006324D01*
X128746499Y-97941423D01*
X128579752Y-97925000D01*
X128579751Y-97925000D01*
X128524000Y-97919509D01*
X128468249Y-97925000D01*
X126454132Y-97925000D01*
X112135000Y-83605869D01*
X112135000Y-76397103D01*
X112193552Y-76468449D01*
X112236860Y-76503991D01*
X112621886Y-76889017D01*
X112631764Y-76989309D01*
X112713818Y-77259808D01*
X112847068Y-77509101D01*
X113026392Y-77727608D01*
X113244899Y-77906932D01*
X113494192Y-78040182D01*
X113764691Y-78122236D01*
X113864983Y-78132114D01*
X114746009Y-79013140D01*
X114781551Y-79056449D01*
X114954377Y-79198284D01*
X115151553Y-79303676D01*
X115365501Y-79368577D01*
X115532248Y-79385000D01*
X115532257Y-79385000D01*
X115587999Y-79390490D01*
X115643741Y-79385000D01*
X120149869Y-79385000D01*
X121946796Y-81181928D01*
X121190000Y-81181928D01*
X121065518Y-81194188D01*
X120945820Y-81230498D01*
X120835506Y-81289463D01*
X120738815Y-81368815D01*
X120659463Y-81465506D01*
X120600498Y-81575820D01*
X120564188Y-81695518D01*
X120551928Y-81820000D01*
X120551928Y-85820000D01*
X120564188Y-85944482D01*
X120600498Y-86064180D01*
X120659463Y-86174494D01*
X120738815Y-86271185D01*
X120835506Y-86350537D01*
X120945820Y-86409502D01*
X121065518Y-86445812D01*
X121190000Y-86458072D01*
X125190000Y-86458072D01*
X125314482Y-86445812D01*
X125434180Y-86409502D01*
X125544494Y-86350537D01*
X125641185Y-86271185D01*
X125720537Y-86174494D01*
X125779502Y-86064180D01*
X125815812Y-85944482D01*
X125828072Y-85820000D01*
X125828072Y-85667499D01*
X131522106Y-85667499D01*
X131738228Y-86034258D01*
X132198105Y-86274938D01*
X132696098Y-86421275D01*
X133213071Y-86467648D01*
X133729159Y-86412273D01*
X134224526Y-86257279D01*
X134641772Y-86034258D01*
X134857894Y-85667499D01*
X133190000Y-83999605D01*
X131522106Y-85667499D01*
X125828072Y-85667499D01*
X125828072Y-83843071D01*
X130542352Y-83843071D01*
X130597727Y-84359159D01*
X130752721Y-84854526D01*
X130975742Y-85271772D01*
X131342501Y-85487894D01*
X133010395Y-83820000D01*
X133369605Y-83820000D01*
X135037499Y-85487894D01*
X135404258Y-85271772D01*
X135644938Y-84811895D01*
X135791275Y-84313902D01*
X135837648Y-83796929D01*
X135782273Y-83280841D01*
X135627279Y-82785474D01*
X135404258Y-82368228D01*
X135037499Y-82152106D01*
X133369605Y-83820000D01*
X133010395Y-83820000D01*
X131342501Y-82152106D01*
X130975742Y-82368228D01*
X130735062Y-82828105D01*
X130588725Y-83326098D01*
X130542352Y-83843071D01*
X125828072Y-83843071D01*
X125828072Y-81972501D01*
X131522106Y-81972501D01*
X133190000Y-83640395D01*
X134857894Y-81972501D01*
X134641772Y-81605742D01*
X134181895Y-81365062D01*
X133683902Y-81218725D01*
X133166929Y-81172352D01*
X132650841Y-81227727D01*
X132155474Y-81382721D01*
X131738228Y-81605742D01*
X131522106Y-81972501D01*
X125828072Y-81972501D01*
X125828072Y-81820000D01*
X125815812Y-81695518D01*
X125779502Y-81575820D01*
X125720537Y-81465506D01*
X125641185Y-81368815D01*
X125544494Y-81289463D01*
X125434180Y-81230498D01*
X125314482Y-81194188D01*
X125190000Y-81181928D01*
X124325000Y-81181928D01*
X124325000Y-80875752D01*
X124330491Y-80820000D01*
X124308577Y-80597501D01*
X124243676Y-80383553D01*
X124138284Y-80186377D01*
X123996449Y-80013551D01*
X123953141Y-79978009D01*
X122358131Y-78383000D01*
X127843141Y-72897991D01*
X127886449Y-72862449D01*
X128028284Y-72689623D01*
X128133676Y-72492447D01*
X128198577Y-72278499D01*
X128215000Y-72111752D01*
X128215000Y-72111751D01*
X128220491Y-72056000D01*
X128215000Y-72000248D01*
X128215000Y-66753637D01*
X128241714Y-66731714D01*
X128374428Y-66570000D01*
X130441928Y-66570000D01*
X130454188Y-66694482D01*
X130490498Y-66814180D01*
X130549463Y-66924494D01*
X130628815Y-67021185D01*
X130725506Y-67100537D01*
X130835820Y-67159502D01*
X130955518Y-67195812D01*
X131080000Y-67208072D01*
X131794250Y-67205000D01*
X131953000Y-67046250D01*
X131953000Y-64897000D01*
X132207000Y-64897000D01*
X132207000Y-67046250D01*
X132365750Y-67205000D01*
X133080000Y-67208072D01*
X133204482Y-67195812D01*
X133324180Y-67159502D01*
X133434494Y-67100537D01*
X133531185Y-67021185D01*
X133610537Y-66924494D01*
X133669502Y-66814180D01*
X133705812Y-66694482D01*
X133718072Y-66570000D01*
X133715000Y-65055750D01*
X133556250Y-64897000D01*
X132207000Y-64897000D01*
X131953000Y-64897000D01*
X130603750Y-64897000D01*
X130445000Y-65055750D01*
X130441928Y-66570000D01*
X128374428Y-66570000D01*
X128446031Y-66482752D01*
X128597852Y-66198715D01*
X128691343Y-65890516D01*
X128715000Y-65650322D01*
X128715000Y-63889678D01*
X128691343Y-63649484D01*
X128597852Y-63341285D01*
X128446031Y-63057248D01*
X128374429Y-62970000D01*
X130441928Y-62970000D01*
X130445000Y-64484250D01*
X130603750Y-64643000D01*
X131953000Y-64643000D01*
X131953000Y-62493750D01*
X132207000Y-62493750D01*
X132207000Y-64643000D01*
X133556250Y-64643000D01*
X133715000Y-64484250D01*
X133718072Y-62970000D01*
X133705812Y-62845518D01*
X133688887Y-62789721D01*
X139865000Y-62789721D01*
X139865000Y-63210279D01*
X139947047Y-63622756D01*
X140107988Y-64011302D01*
X140341637Y-64360983D01*
X140639017Y-64658363D01*
X140988698Y-64892012D01*
X141377244Y-65052953D01*
X141789721Y-65135000D01*
X142210279Y-65135000D01*
X142622756Y-65052953D01*
X143011302Y-64892012D01*
X143360983Y-64658363D01*
X143658363Y-64360983D01*
X143892012Y-64011302D01*
X144052953Y-63622756D01*
X144135000Y-63210279D01*
X144135000Y-62789721D01*
X144052953Y-62377244D01*
X143892012Y-61988698D01*
X143658363Y-61639017D01*
X143360983Y-61341637D01*
X143011302Y-61107988D01*
X142622756Y-60947047D01*
X142210279Y-60865000D01*
X141789721Y-60865000D01*
X141377244Y-60947047D01*
X140988698Y-61107988D01*
X140639017Y-61341637D01*
X140341637Y-61639017D01*
X140107988Y-61988698D01*
X139947047Y-62377244D01*
X139865000Y-62789721D01*
X133688887Y-62789721D01*
X133669502Y-62725820D01*
X133610537Y-62615506D01*
X133531185Y-62518815D01*
X133434494Y-62439463D01*
X133324180Y-62380498D01*
X133204482Y-62344188D01*
X133080000Y-62331928D01*
X132365750Y-62335000D01*
X132207000Y-62493750D01*
X131953000Y-62493750D01*
X131794250Y-62335000D01*
X131080000Y-62331928D01*
X130955518Y-62344188D01*
X130835820Y-62380498D01*
X130725506Y-62439463D01*
X130628815Y-62518815D01*
X130549463Y-62615506D01*
X130490498Y-62725820D01*
X130454188Y-62845518D01*
X130441928Y-62970000D01*
X128374429Y-62970000D01*
X128241714Y-62808286D01*
X127992752Y-62603969D01*
X127708715Y-62452148D01*
X127400516Y-62358657D01*
X127080000Y-62327089D01*
X126759485Y-62358657D01*
X126451286Y-62452148D01*
X126167249Y-62603969D01*
X125918287Y-62808286D01*
X125713970Y-63057248D01*
X125562149Y-63341285D01*
X125468658Y-63649484D01*
X125445000Y-63889678D01*
X125445000Y-65650321D01*
X125468657Y-65890515D01*
X125562148Y-66198714D01*
X125713969Y-66482751D01*
X125918286Y-66731714D01*
X125945001Y-66753638D01*
X125945000Y-71585868D01*
X120415869Y-77115000D01*
X116058132Y-77115000D01*
X115470114Y-76526983D01*
X115460236Y-76426691D01*
X115378182Y-76156192D01*
X115244932Y-75906899D01*
X115065608Y-75688392D01*
X114847101Y-75509068D01*
X114597808Y-75375818D01*
X114327309Y-75293764D01*
X114227017Y-75283886D01*
X114135000Y-75191869D01*
X114135000Y-73141884D01*
X114250569Y-73026315D01*
X114426763Y-72762621D01*
X114548129Y-72469620D01*
X114610000Y-72158571D01*
X114610000Y-71841429D01*
X114548129Y-71530380D01*
X114426763Y-71237379D01*
X114250569Y-70973685D01*
X114026315Y-70749431D01*
X113762621Y-70573237D01*
X113469620Y-70451871D01*
X113158571Y-70390000D01*
X112841429Y-70390000D01*
X112552536Y-70447464D01*
X112610000Y-70158571D01*
X112610000Y-69841429D01*
X112548129Y-69530380D01*
X112426763Y-69237379D01*
X112250569Y-68973685D01*
X112026315Y-68749431D01*
X111762621Y-68573237D01*
X111469620Y-68451871D01*
X111158571Y-68390000D01*
X110841429Y-68390000D01*
X110530380Y-68451871D01*
X110237379Y-68573237D01*
X109973685Y-68749431D01*
X109749431Y-68973685D01*
X109573237Y-69237379D01*
X109451871Y-69530380D01*
X109390000Y-69841429D01*
X109390000Y-70158571D01*
X109447464Y-70447464D01*
X109158571Y-70390000D01*
X108841429Y-70390000D01*
X108546855Y-70448594D01*
X108597883Y-70253010D01*
X108616540Y-69936416D01*
X108573074Y-69622267D01*
X108469156Y-69322633D01*
X108379429Y-69154766D01*
X108117584Y-69062021D01*
X107179605Y-70000000D01*
X107193748Y-70014143D01*
X107014143Y-70193748D01*
X107000000Y-70179605D01*
X105179605Y-72000000D01*
X106117584Y-72937979D01*
X106379429Y-72845234D01*
X106517820Y-72559880D01*
X106597883Y-72253010D01*
X106616540Y-71936416D01*
X106573074Y-71622267D01*
X106546473Y-71545568D01*
X106746990Y-71597883D01*
X107063584Y-71616540D01*
X107377733Y-71573074D01*
X107448243Y-71548620D01*
X107390000Y-71841429D01*
X107390000Y-72158571D01*
X107451871Y-72469620D01*
X107573237Y-72762621D01*
X107749431Y-73026315D01*
X107865001Y-73141885D01*
X107865000Y-84179248D01*
X107859509Y-84235000D01*
X107865000Y-84290751D01*
X107878669Y-84429538D01*
X104135000Y-80685869D01*
X104135000Y-73323624D01*
X104154766Y-73379429D01*
X104440120Y-73517820D01*
X104746990Y-73597883D01*
X105063584Y-73616540D01*
X105377733Y-73573074D01*
X105677367Y-73469156D01*
X105845234Y-73379429D01*
X105937979Y-73117584D01*
X105000000Y-72179605D01*
X104985858Y-72193748D01*
X104806253Y-72014143D01*
X104820395Y-72000000D01*
X104806253Y-71985858D01*
X104985858Y-71806253D01*
X105000000Y-71820395D01*
X106820395Y-70000000D01*
X105882416Y-69062021D01*
X105620571Y-69154766D01*
X105482180Y-69440120D01*
X105402117Y-69746990D01*
X105383460Y-70063584D01*
X105426926Y-70377733D01*
X105453527Y-70454432D01*
X105253010Y-70402117D01*
X104936416Y-70383460D01*
X104622267Y-70426926D01*
X104551757Y-70451380D01*
X104610000Y-70158571D01*
X104610000Y-69841429D01*
X104548129Y-69530380D01*
X104426763Y-69237379D01*
X104250569Y-68973685D01*
X104159300Y-68882416D01*
X106062021Y-68882416D01*
X107000000Y-69820395D01*
X107937979Y-68882416D01*
X107845234Y-68620571D01*
X107559880Y-68482180D01*
X107253010Y-68402117D01*
X106936416Y-68383460D01*
X106622267Y-68426926D01*
X106322633Y-68530844D01*
X106154766Y-68620571D01*
X106062021Y-68882416D01*
X104159300Y-68882416D01*
X104026315Y-68749431D01*
X103762621Y-68573237D01*
X103469620Y-68451871D01*
X103158571Y-68390000D01*
X102841429Y-68390000D01*
X102530380Y-68451871D01*
X102237379Y-68573237D01*
X101973685Y-68749431D01*
X101749431Y-68973685D01*
X101573237Y-69237379D01*
X101451871Y-69530380D01*
X101390000Y-69841429D01*
X101390000Y-70158571D01*
X101447464Y-70447464D01*
X101158571Y-70390000D01*
X100841429Y-70390000D01*
X100552536Y-70447464D01*
X100610000Y-70158571D01*
X100610000Y-69841429D01*
X100548129Y-69530380D01*
X100426763Y-69237379D01*
X100250569Y-68973685D01*
X100026315Y-68749431D01*
X99762621Y-68573237D01*
X99469620Y-68451871D01*
X99158571Y-68390000D01*
X98841429Y-68390000D01*
X98530380Y-68451871D01*
X98237379Y-68573237D01*
X97973685Y-68749431D01*
X97749431Y-68973685D01*
X97573237Y-69237379D01*
X97451871Y-69530380D01*
X97390000Y-69841429D01*
X97390000Y-70004868D01*
X97004869Y-70390000D01*
X96841429Y-70390000D01*
X96552536Y-70447464D01*
X96610000Y-70158571D01*
X96610000Y-69841429D01*
X96548129Y-69530380D01*
X96426763Y-69237379D01*
X96250569Y-68973685D01*
X96026315Y-68749431D01*
X95762621Y-68573237D01*
X95469620Y-68451871D01*
X95158571Y-68390000D01*
X94841429Y-68390000D01*
X94530380Y-68451871D01*
X94237379Y-68573237D01*
X93973685Y-68749431D01*
X93749431Y-68973685D01*
X93573237Y-69237379D01*
X93451871Y-69530380D01*
X93390000Y-69841429D01*
X93390000Y-70158571D01*
X93447464Y-70447464D01*
X93158571Y-70390000D01*
X92841429Y-70390000D01*
X92552536Y-70447464D01*
X92610000Y-70158571D01*
X92610000Y-69841429D01*
X92548129Y-69530380D01*
X92426763Y-69237379D01*
X92250569Y-68973685D01*
X92026315Y-68749431D01*
X91762621Y-68573237D01*
X91469620Y-68451871D01*
X91158571Y-68390000D01*
X90841429Y-68390000D01*
X90530380Y-68451871D01*
X90237379Y-68573237D01*
X89973685Y-68749431D01*
X89749431Y-68973685D01*
X89573237Y-69237379D01*
X89451871Y-69530380D01*
X89390000Y-69841429D01*
X89390000Y-70158571D01*
X89448594Y-70453145D01*
X89253010Y-70402117D01*
X88936416Y-70383460D01*
X88622267Y-70426926D01*
X88551757Y-70451380D01*
X88610000Y-70158571D01*
X88610000Y-69841429D01*
X88548129Y-69530380D01*
X88426763Y-69237379D01*
X88250569Y-68973685D01*
X88026315Y-68749431D01*
X87762621Y-68573237D01*
X87469620Y-68451871D01*
X87158571Y-68390000D01*
X86841429Y-68390000D01*
X86530380Y-68451871D01*
X86237379Y-68573237D01*
X85973685Y-68749431D01*
X85749431Y-68973685D01*
X85573237Y-69237379D01*
X85451871Y-69530380D01*
X85390000Y-69841429D01*
X85390000Y-70158571D01*
X85447464Y-70447464D01*
X85158571Y-70390000D01*
X84841429Y-70390000D01*
X84552536Y-70447464D01*
X84610000Y-70158571D01*
X84610000Y-69841429D01*
X84548129Y-69530380D01*
X84426763Y-69237379D01*
X84250569Y-68973685D01*
X84026315Y-68749431D01*
X83762621Y-68573237D01*
X83469620Y-68451871D01*
X83158571Y-68390000D01*
X82841429Y-68390000D01*
X82530380Y-68451871D01*
X82237379Y-68573237D01*
X81973685Y-68749431D01*
X81749431Y-68973685D01*
X81573237Y-69237379D01*
X81451871Y-69530380D01*
X81390000Y-69841429D01*
X81390000Y-70158571D01*
X81447464Y-70447464D01*
X81158571Y-70390000D01*
X80841429Y-70390000D01*
X80530380Y-70451871D01*
X80237379Y-70573237D01*
X79973685Y-70749431D01*
X79749431Y-70973685D01*
X79573237Y-71237379D01*
X79451871Y-71530380D01*
X79390000Y-71841429D01*
X79390000Y-72158571D01*
X79451871Y-72469620D01*
X79573237Y-72762621D01*
X79749431Y-73026315D01*
X79838116Y-73115000D01*
X74555752Y-73115000D01*
X74500000Y-73109509D01*
X74277501Y-73131423D01*
X74063553Y-73196324D01*
X73866377Y-73301716D01*
X73736856Y-73408011D01*
X73736854Y-73408013D01*
X73693551Y-73443551D01*
X73658013Y-73486855D01*
X72736864Y-74408005D01*
X72693551Y-74443551D01*
X72551716Y-74616377D01*
X72466549Y-74775716D01*
X72446324Y-74813554D01*
X72381423Y-75027502D01*
X72359509Y-75250000D01*
X70710000Y-75250000D01*
X70710000Y-62789721D01*
X70865000Y-62789721D01*
X70865000Y-63210279D01*
X70947047Y-63622756D01*
X71107988Y-64011302D01*
X71341637Y-64360983D01*
X71639017Y-64658363D01*
X71988698Y-64892012D01*
X72377244Y-65052953D01*
X72789721Y-65135000D01*
X73210279Y-65135000D01*
X73622756Y-65052953D01*
X74011302Y-64892012D01*
X74360983Y-64658363D01*
X74527693Y-64491653D01*
X87937952Y-64491653D01*
X88093962Y-64807214D01*
X88468745Y-64998020D01*
X88873551Y-65112044D01*
X89292824Y-65144902D01*
X89710451Y-65095334D01*
X90110383Y-64965243D01*
X90406038Y-64807214D01*
X90562048Y-64491653D01*
X103437952Y-64491653D01*
X103593962Y-64807214D01*
X103968745Y-64998020D01*
X104373551Y-65112044D01*
X104792824Y-65144902D01*
X105210451Y-65095334D01*
X105610383Y-64965243D01*
X105906038Y-64807214D01*
X106062048Y-64491653D01*
X104750000Y-63179605D01*
X103437952Y-64491653D01*
X90562048Y-64491653D01*
X89250000Y-63179605D01*
X87937952Y-64491653D01*
X74527693Y-64491653D01*
X74658363Y-64360983D01*
X74892012Y-64011302D01*
X75052953Y-63622756D01*
X75135000Y-63210279D01*
X75135000Y-63042824D01*
X87105098Y-63042824D01*
X87154666Y-63460451D01*
X87284757Y-63860383D01*
X87442786Y-64156038D01*
X87758347Y-64312048D01*
X89070395Y-63000000D01*
X89429605Y-63000000D01*
X90741653Y-64312048D01*
X91057214Y-64156038D01*
X91248020Y-63781255D01*
X91362044Y-63376449D01*
X91388189Y-63042824D01*
X102605098Y-63042824D01*
X102654666Y-63460451D01*
X102784757Y-63860383D01*
X102942786Y-64156038D01*
X103258347Y-64312048D01*
X104570395Y-63000000D01*
X104929605Y-63000000D01*
X106241653Y-64312048D01*
X106557214Y-64156038D01*
X106748020Y-63781255D01*
X106862044Y-63376449D01*
X106894902Y-62957176D01*
X106845334Y-62539549D01*
X106715243Y-62139617D01*
X106557214Y-61843962D01*
X106241653Y-61687952D01*
X104929605Y-63000000D01*
X104570395Y-63000000D01*
X103258347Y-61687952D01*
X102942786Y-61843962D01*
X102751980Y-62218745D01*
X102637956Y-62623551D01*
X102605098Y-63042824D01*
X91388189Y-63042824D01*
X91394902Y-62957176D01*
X91345334Y-62539549D01*
X91215243Y-62139617D01*
X91057214Y-61843962D01*
X90741653Y-61687952D01*
X89429605Y-63000000D01*
X89070395Y-63000000D01*
X87758347Y-61687952D01*
X87442786Y-61843962D01*
X87251980Y-62218745D01*
X87137956Y-62623551D01*
X87105098Y-63042824D01*
X75135000Y-63042824D01*
X75135000Y-62789721D01*
X75052953Y-62377244D01*
X74892012Y-61988698D01*
X74658363Y-61639017D01*
X74527693Y-61508347D01*
X87937952Y-61508347D01*
X89250000Y-62820395D01*
X90562048Y-61508347D01*
X103437952Y-61508347D01*
X104750000Y-62820395D01*
X106062048Y-61508347D01*
X105906038Y-61192786D01*
X105531255Y-61001980D01*
X105126449Y-60887956D01*
X104707176Y-60855098D01*
X104289549Y-60904666D01*
X103889617Y-61034757D01*
X103593962Y-61192786D01*
X103437952Y-61508347D01*
X90562048Y-61508347D01*
X90406038Y-61192786D01*
X90031255Y-61001980D01*
X89626449Y-60887956D01*
X89207176Y-60855098D01*
X88789549Y-60904666D01*
X88389617Y-61034757D01*
X88093962Y-61192786D01*
X87937952Y-61508347D01*
X74527693Y-61508347D01*
X74360983Y-61341637D01*
X74011302Y-61107988D01*
X73622756Y-60947047D01*
X73210279Y-60865000D01*
X72789721Y-60865000D01*
X72377244Y-60947047D01*
X71988698Y-61107988D01*
X71639017Y-61341637D01*
X71341637Y-61639017D01*
X71107988Y-61988698D01*
X70947047Y-62377244D01*
X70865000Y-62789721D01*
X70710000Y-62789721D01*
X70710000Y-60710000D01*
X144290001Y-60710000D01*
X144290000Y-134290000D01*
G36*
X89193748Y-71985858D02*
G01*
X89179605Y-72000000D01*
X89193748Y-72014143D01*
X89014143Y-72193748D01*
X89000000Y-72179605D01*
X88985858Y-72193748D01*
X88806253Y-72014143D01*
X88820395Y-72000000D01*
X88806253Y-71985858D01*
X88985858Y-71806253D01*
X89000000Y-71820395D01*
X89014143Y-71806253D01*
X89193748Y-71985858D01*
X89193748Y-71985858D01*
G37*
X89193748Y-71985858D02*
X89179605Y-72000000D01*
X89193748Y-72014143D01*
X89014143Y-72193748D01*
X89000000Y-72179605D01*
X88985858Y-72193748D01*
X88806253Y-72014143D01*
X88820395Y-72000000D01*
X88806253Y-71985858D01*
X88985858Y-71806253D01*
X89000000Y-71820395D01*
X89014143Y-71806253D01*
X89193748Y-71985858D01*
M02*
